<svg width="500" height="250" viewBox="0 0 500 250" fill="none" xmlns="http://www.w3.org/2000/svg">
<g clip-path="url(#clip0_856_1338)">
<rect width="500" height="250" fill="white"/>
<rect x="0.00012207" width="500" height="250" fill="url(#paint0_linear_856_1338)"/>
<rect y="200" width="500" height="50" fill="#8B7878"/>
<path d="M162 65L163.796 70.5279H169.608L164.906 73.9443L166.702 79.4721L162 76.0557L157.298 79.4721L159.094 73.9443L154.392 70.5279H160.204L162 65Z" fill="#FFFCFC"/>
<path d="M49 25L50.7961 30.5279H56.6085L51.9062 33.9443L53.7023 39.4721L49 36.0557L44.2977 39.4721L46.0938 33.9443L41.3915 30.5279H47.2039L49 25Z" fill="#FFFCFC"/>
<path d="M330 81L331.796 86.5279H337.608L332.906 89.9443L334.702 95.4721L330 92.0557L325.298 95.4721L327.094 89.9443L322.392 86.5279H328.204L330 81Z" fill="#FFFCFC"/>
<path d="M277 19L278.796 24.5279H284.608L279.906 27.9443L281.702 33.4721L277 30.0557L272.298 33.4721L274.094 27.9443L269.392 24.5279H275.204L277 19Z" fill="#FFFCFC"/>
<path d="M97 36L98.7961 41.5279H104.608L99.9062 44.9443L101.702 50.4721L97 47.0557L92.2977 50.4721L94.0938 44.9443L89.3915 41.5279H95.2039L97 36Z" fill="#FFFCFC"/>
<path d="M468 1L469.796 6.52786H475.608L470.906 9.94427L472.702 15.4721L468 12.0557L463.298 15.4721L465.094 9.94427L460.392 6.52786H466.204L468 1Z" fill="#FFFCFC"/>
<path d="M242 52L243.796 57.5279H249.608L244.906 60.9443L246.702 66.4721L242 63.0557L237.298 66.4721L239.094 60.9443L234.392 57.5279H240.204L242 52Z" fill="#FFFCFC"/>
<path d="M445 52L446.796 57.5279H452.608L447.906 60.9443L449.702 66.4721L445 63.0557L440.298 66.4721L442.094 60.9443L437.392 57.5279H443.204L445 52Z" fill="#FFFCFC"/>
<circle cx="32" cy="94" r="4" fill="white"/>
<circle cx="369.5" cy="32.5" r="3.5" fill="white"/>
<g opacity="0.5">
<path fill-rule="evenodd" clip-rule="evenodd" d="M35.4218 177.481C34.6536 176.702 33.2281 174.725 32.1469 174.447C31.4506 174.268 31.6536 176.121 31.645 176.475C31.6115 177.842 31.7988 179.201 32.0301 180.557C32.4467 183.003 33.8092 185.181 35.6779 187.262C36.6395 188.333 37.7673 189.417 39.3295 190.085C40.0486 190.393 40.9138 190.445 41.6239 190.71C42.4509 191.018 42.0005 190.769 42.3732 191.381C42.8908 192.232 43.0564 193.329 43.2959 194.237C44.3955 198.403 47.0576 220.427 46.5961 224.665C46.5551 225.041 47.2919 225.131 47.3286 224.672C47.5241 222.241 45.8324 205.403 44.9789 199.897C44.1255 194.39 43.2618 189.526 42.3957 187.62C41.3451 185.309 39.4476 182.53 37.8681 180.374C37.1344 179.373 36.3347 178.406 35.4218 177.481Z" fill="#69A1AC"/>
<path fill-rule="evenodd" clip-rule="evenodd" d="M29.7201 204.487C27.7212 203.444 25.5576 205.413 27.3663 206.456C28.3663 207.033 29.4117 206.828 30.0002 206.347C30.3822 206.678 30.7398 207.025 31.0834 207.317C32.1302 208.208 33.1196 209.12 34.0652 210.053C36.0295 211.993 37.7128 214.041 39.4729 216.052C41.2099 218.037 42.933 220.033 44.5073 222.068C45.841 223.792 47.6187 225.821 48.0753 227.711C47.3825 223.702 44.7536 219.848 41.623 216.314C38.5179 212.808 34.9544 208.98 30.1466 206.214C30.6359 205.702 30.6495 204.972 29.7201 204.487Z" fill="#C1DEE2"/>
<path fill-rule="evenodd" clip-rule="evenodd" d="M67.6503 194.711C66.5317 194.867 64.704 196.665 63.7819 197.351C62.6862 198.165 61.692 199.033 60.7549 199.943C58.7376 201.9 56.9334 203.982 55.3992 206.152C52.8981 209.691 50.8944 213.323 49.4402 217.177C48.5501 219.535 47.9737 221.98 47.6321 224.408C47.5676 224.865 46.8924 228.395 47.8654 228.49C48.7405 228.576 48.4702 225.81 48.5124 225.434C48.9896 221.189 50.4192 217.059 52.4078 213.058C52.841 212.187 53.2434 211.119 53.9361 210.335C54.4349 209.77 53.9396 209.967 54.8163 209.753C55.569 209.57 56.4267 209.615 57.1975 209.39C58.872 208.902 60.2128 207.954 61.3881 207.001C63.6722 205.148 65.4822 203.144 66.4256 200.77C66.949 199.454 67.43 198.13 67.6969 196.773C67.7659 196.423 68.3707 194.611 67.6503 194.711Z" fill="#69A1AC"/>
<path fill-rule="evenodd" clip-rule="evenodd" d="M63.2362 164.782C59.0227 169.977 55.5603 175.683 53.3246 181.462C51.9701 184.963 51.0228 188.557 50.0816 192.124C48.6243 197.647 47.2458 203.17 46.8537 208.791C46.4592 214.446 45.6792 220.967 48.2836 226.412C46.9827 220.884 48.2212 214.999 48.4405 209.435C48.5453 206.78 48.849 204.15 49.2474 201.509C49.634 198.948 50.2656 196.399 50.8537 193.858C51.1402 192.621 51.4411 191.385 51.7474 190.15C51.8389 189.782 51.8775 188.688 52.2063 188.436C52.5372 188.183 54.2256 188.08 54.7557 187.894C55.8232 187.519 56.8272 186.988 57.7158 186.426C59.4193 185.348 60.9013 183.941 62.0709 182.553C64.7773 179.342 65.8592 175.424 65.8046 171.705C65.794 170.984 64.1607 163.209 64.8167 163.102C64.7772 163.069 64.7398 163.035 64.7046 163C64.208 163.591 63.7207 164.186 63.2362 164.782Z" fill="#89C5CC"/>
<path fill-rule="evenodd" clip-rule="evenodd" d="M17.7593 183.517C17.6943 183.45 17.2712 182.987 17.4843 183.016C17.0505 182.956 18.081 183.528 17 183.177C17.5133 183.521 17.2171 183.969 17.2102 184.433C17.199 185.186 17.3763 185.932 17.5757 186.669C17.891 187.834 18.3605 188.966 19.0421 190.049C20.5277 192.41 23.0503 194.682 26.0451 196.158C27.5235 196.887 28.9724 197.135 30.6586 197.471C31.7236 197.682 31.8081 198.074 32.3734 198.809C33.5504 200.339 34.7064 201.864 35.7444 203.446C36.9838 205.334 38.187 207.225 39.3219 209.147C43.1454 215.622 46.2573 222.33 47.8916 229.272C47.9316 225.181 46.6003 220.968 44.9211 217.068C43.6979 214.228 42.1055 211.489 40.407 208.778C39.9954 208.121 39.3717 207.277 39.1969 206.552C39.0746 206.044 39.4487 205.555 39.62 205.02C40.2879 202.936 40.2401 200.601 39.6536 198.506C39.007 196.196 37.1369 195.124 33.9735 194.796C32.8165 194.677 31.3461 194.721 30.2852 194.37C29.1294 193.988 28.6526 192.733 27.9954 191.927C26.2302 189.763 24.1328 187.687 21.7244 185.863C21.0575 185.358 20.3404 184.892 19.5796 184.461C19.0998 184.188 18.0863 183.852 17.7593 183.517Z" fill="#89C5CC"/>
</g>
<g opacity="0.5">
<path fill-rule="evenodd" clip-rule="evenodd" d="M473.632 159.54C474.731 158.435 476.771 155.631 478.319 155.236C479.316 154.982 479.025 157.611 479.037 158.112C479.085 160.052 478.817 161.979 478.486 163.903C477.89 167.372 475.94 170.461 473.265 173.413C471.889 174.932 470.274 176.47 468.038 177.418C467.009 177.854 465.77 177.927 464.754 178.303C463.57 178.741 464.215 178.387 463.681 179.256C462.941 180.463 462.704 182.019 462.361 183.306C460.787 189.216 456.976 220.455 457.637 226.466C457.696 226.999 456.641 227.126 456.588 226.476C456.309 223.027 458.73 199.144 459.952 191.334C461.173 183.524 462.41 176.624 463.649 173.922C465.153 170.643 467.869 166.701 470.13 163.644C471.18 162.224 472.325 160.852 473.632 159.54Z" fill="#69A1AC"/>
<path fill-rule="evenodd" clip-rule="evenodd" d="M481.793 197.846C484.654 196.366 487.751 199.159 485.162 200.638C483.731 201.456 482.234 201.165 481.392 200.484C480.845 200.953 480.333 201.444 479.842 201.859C478.343 203.123 476.927 204.416 475.573 205.74C472.762 208.491 470.352 211.397 467.833 214.249C465.347 217.065 462.88 219.895 460.627 222.782C458.718 225.228 456.173 228.105 455.52 230.786C456.511 225.1 460.274 219.634 464.755 214.62C469.2 209.648 474.301 204.218 481.182 200.294C480.482 199.569 480.463 198.533 481.793 197.846Z" fill="#C1DEE2"/>
<path fill-rule="evenodd" clip-rule="evenodd" d="M427.501 183.979C429.102 184.2 431.718 186.751 433.038 187.723C434.606 188.879 436.029 190.11 437.37 191.4C440.258 194.177 442.84 197.129 445.036 200.208C448.616 205.227 451.484 210.379 453.566 215.844C454.84 219.19 455.665 222.658 456.154 226.101C456.246 226.75 457.213 231.757 455.82 231.892C454.568 232.013 454.954 228.09 454.894 227.557C454.211 221.536 452.165 215.678 449.318 210.003C448.698 208.767 448.122 207.253 447.131 206.141C446.417 205.339 447.126 205.619 445.871 205.315C444.793 205.055 443.566 205.119 442.462 204.8C440.066 204.107 438.146 202.763 436.464 201.411C433.195 198.783 430.604 195.941 429.253 192.574C428.504 190.707 427.816 188.829 427.434 186.905C427.335 186.407 426.469 183.837 427.501 183.979Z" fill="#69A1AC"/>
<path fill-rule="evenodd" clip-rule="evenodd" d="M433.819 141.528C439.85 148.896 444.806 156.989 448.006 165.186C449.945 170.153 451.301 175.249 452.648 180.309C454.734 188.143 456.707 195.977 457.268 203.951C457.833 211.97 458.949 221.22 455.222 228.944C457.084 221.102 455.311 212.755 454.997 204.864C454.847 201.097 454.412 197.367 453.842 193.622C453.289 189.989 452.385 186.374 451.543 182.769C451.133 181.014 450.702 179.261 450.264 177.509C450.133 176.987 450.077 175.436 449.607 175.079C449.133 174.72 446.716 174.573 445.957 174.309C444.43 173.778 442.992 173.024 441.72 172.227C439.282 170.699 437.161 168.702 435.487 166.734C431.613 162.18 430.064 156.622 430.143 151.348C430.158 150.324 432.495 139.297 431.557 139.145C431.613 139.098 431.667 139.05 431.717 139C432.428 139.838 433.125 140.682 433.819 141.528Z" fill="#89C5CC"/>
<path fill-rule="evenodd" clip-rule="evenodd" d="M498.913 168.101C499.006 168.007 499.612 167.349 499.307 167.391C499.928 167.306 498.453 168.116 500 167.619C499.265 168.108 499.689 168.742 499.699 169.4C499.715 170.468 499.462 171.527 499.176 172.572C498.725 174.224 498.053 175.83 497.077 177.367C494.951 180.715 491.34 183.939 487.053 186.032C484.937 187.065 482.863 187.417 480.45 187.893C478.925 188.194 478.804 188.749 477.995 189.791C476.31 191.962 474.656 194.124 473.17 196.368C471.396 199.047 469.674 201.729 468.049 204.456C462.576 213.639 458.122 223.153 455.783 233C455.725 227.197 457.631 221.221 460.035 215.691C461.786 211.661 464.065 207.777 466.496 203.932C467.085 203 467.978 201.802 468.228 200.774C468.403 200.053 467.868 199.36 467.622 198.601C466.666 195.645 466.735 192.334 467.574 189.362C468.5 186.085 471.177 184.564 475.705 184.1C477.361 183.93 479.466 183.993 480.984 183.495C482.638 182.954 483.321 181.173 484.262 180.03C486.788 176.96 489.79 174.016 493.238 171.429C494.192 170.713 495.219 170.052 496.308 169.44C496.995 169.053 498.445 168.577 498.913 168.101Z" fill="#89C5CC"/>
</g>
<g opacity="0.5">
<path fill-rule="evenodd" clip-rule="evenodd" d="M100.886 180.024C101.308 179.539 102.09 178.307 102.684 178.134C103.066 178.022 102.955 179.177 102.96 179.397C102.978 180.25 102.875 181.096 102.748 181.941C102.519 183.465 101.771 184.823 100.746 186.12C100.218 186.787 99.5984 187.463 98.7407 187.879C98.3459 188.071 97.8709 188.103 97.481 188.268C97.027 188.461 97.2743 188.305 97.0696 188.687C96.7855 189.217 96.6946 189.901 96.5631 190.467C95.9594 193.063 94.4978 206.788 94.7512 209.429C94.7737 209.663 94.3692 209.719 94.349 209.433C94.2417 207.918 95.1705 197.425 95.639 193.994C96.1076 190.562 96.5818 187.53 97.0573 186.343C97.6341 184.903 98.6759 183.171 99.543 181.828C99.9459 181.204 100.385 180.601 100.886 180.024Z" fill="#69A1AC"/>
<path fill-rule="evenodd" clip-rule="evenodd" d="M104.016 196.854C105.114 196.204 106.302 197.431 105.309 198.081C104.76 198.441 104.186 198.313 103.863 198.013C103.653 198.22 103.457 198.435 103.268 198.618C102.693 199.173 102.15 199.741 101.631 200.323C100.552 201.531 99.6282 202.808 98.6619 204.062C97.7082 205.299 96.7622 206.542 95.8979 207.81C95.1656 208.885 94.1897 210.149 93.939 211.327C94.3193 208.829 95.7627 206.427 97.4814 204.225C99.1862 202.04 101.143 199.654 103.782 197.93C103.514 197.611 103.506 197.156 104.016 196.854Z" fill="#C1DEE2"/>
<path fill-rule="evenodd" clip-rule="evenodd" d="M83.192 190.761C83.8061 190.858 84.8096 191.979 85.3158 192.406C85.9174 192.914 86.4632 193.455 86.9777 194.022C88.0853 195.242 89.0758 196.539 89.9181 197.891C91.2913 200.097 92.3913 202.36 93.1897 204.762C93.6784 206.231 93.9948 207.755 94.1824 209.268C94.2178 209.553 94.5885 211.753 94.0543 211.812C93.5739 211.866 93.7223 210.142 93.6991 209.907C93.4371 207.262 92.6522 204.688 91.5604 202.195C91.3226 201.652 91.1017 200.987 90.7214 200.498C90.4475 200.146 90.7194 200.269 90.2381 200.136C89.8249 200.021 89.354 200.049 88.9308 199.909C88.0115 199.605 87.2753 199.014 86.6301 198.42C85.3761 197.266 84.3823 196.017 83.8644 194.537C83.577 193.717 83.313 192.892 83.1664 192.047C83.1285 191.828 82.7965 190.699 83.192 190.761Z" fill="#69A1AC"/>
<path fill-rule="evenodd" clip-rule="evenodd" d="M85.6154 172.111C87.9287 175.348 89.8296 178.904 91.057 182.505C91.8007 184.687 92.3208 186.927 92.8376 189.15C93.6376 192.592 94.3944 196.033 94.6097 199.537C94.8263 203.06 95.2545 207.124 93.8247 210.518C94.5389 207.072 93.8589 203.405 93.7385 199.938C93.681 198.283 93.5142 196.644 93.2955 194.999C93.0833 193.403 92.7365 191.814 92.4136 190.23C92.2563 189.459 92.0912 188.689 91.923 187.92C91.8728 187.69 91.8516 187.009 91.671 186.852C91.4893 186.694 90.5624 186.629 90.2713 186.514C89.6853 186.28 89.134 185.949 88.6462 185.599C87.7109 184.927 86.8973 184.05 86.2551 183.185C84.7693 181.184 84.1753 178.742 84.2053 176.425C84.2111 175.975 85.1078 171.13 84.7477 171.064C84.7693 171.043 84.7898 171.022 84.8092 171C85.0818 171.368 85.3494 171.739 85.6154 172.111Z" fill="#89C5CC"/>
<path fill-rule="evenodd" clip-rule="evenodd" d="M110.583 183.785C110.619 183.744 110.851 183.455 110.734 183.474C110.972 183.436 110.407 183.792 111 183.574C110.718 183.788 110.881 184.067 110.885 184.356C110.891 184.825 110.793 185.291 110.684 185.75C110.511 186.476 110.253 187.181 109.879 187.856C109.063 189.328 107.678 190.744 106.034 191.664C105.222 192.118 104.427 192.272 103.501 192.481C102.916 192.613 102.87 192.857 102.56 193.315C101.914 194.269 101.279 195.219 100.709 196.205C100.029 197.382 99.3679 198.56 98.7448 199.758C96.6457 203.793 94.9372 207.973 94.0399 212.299C94.0179 209.75 94.7488 207.124 95.6708 204.694C96.3423 202.924 97.2166 201.217 98.1491 199.528C98.3751 199.119 98.7175 198.592 98.8134 198.14C98.8806 197.824 98.6752 197.519 98.5812 197.186C98.2145 195.887 98.2407 194.432 98.5627 193.127C98.9177 191.687 99.9444 191.019 101.681 190.815C102.316 190.74 103.124 190.768 103.706 190.549C104.341 190.311 104.602 189.529 104.963 189.027C105.932 187.678 107.084 186.384 108.406 185.248C108.772 184.933 109.166 184.643 109.584 184.374C109.847 184.204 110.404 183.995 110.583 183.785Z" fill="#89C5CC"/>
</g>
<g opacity="0.5">
<path fill-rule="evenodd" clip-rule="evenodd" d="M419.304 185.864C419.5 185.603 419.863 184.938 420.139 184.845C420.317 184.785 420.265 185.407 420.267 185.526C420.276 185.985 420.228 186.442 420.169 186.897C420.063 187.719 419.715 188.45 419.239 189.149C418.994 189.509 418.706 189.873 418.308 190.098C418.125 190.201 417.904 190.218 417.723 190.308C417.513 190.411 417.627 190.327 417.532 190.533C417.4 190.819 417.358 191.187 417.297 191.492C417.017 192.892 416.338 200.289 416.456 201.713C416.466 201.839 416.279 201.869 416.269 201.715C416.219 200.899 416.651 195.243 416.868 193.393C417.086 191.544 417.306 189.91 417.527 189.27C417.794 188.494 418.278 187.56 418.681 186.836C418.868 186.5 419.072 186.175 419.304 185.864Z" fill="#69A1AC"/>
<path fill-rule="evenodd" clip-rule="evenodd" d="M420.758 194.935C421.267 194.585 421.819 195.246 421.358 195.597C421.103 195.79 420.836 195.722 420.686 195.56C420.589 195.671 420.498 195.788 420.41 195.886C420.143 196.185 419.891 196.491 419.65 196.805C419.149 197.456 418.72 198.144 418.272 198.82C417.829 199.487 417.39 200.157 416.988 200.84C416.648 201.42 416.195 202.101 416.079 202.736C416.255 201.389 416.926 200.095 417.724 198.908C418.515 197.73 419.423 196.444 420.649 195.515C420.524 195.343 420.521 195.098 420.758 194.935Z" fill="#C1DEE2"/>
<path fill-rule="evenodd" clip-rule="evenodd" d="M411.089 191.652C411.374 191.704 411.84 192.308 412.075 192.538C412.355 192.812 412.608 193.104 412.847 193.409C413.361 194.067 413.821 194.766 414.212 195.495C414.85 196.683 415.36 197.903 415.731 199.198C415.958 199.99 416.105 200.811 416.192 201.627C416.208 201.78 416.38 202.966 416.132 202.998C415.909 203.027 415.978 202.098 415.967 201.971C415.846 200.546 415.481 199.158 414.974 197.814C414.864 197.522 414.761 197.163 414.585 196.9C414.458 196.71 414.584 196.776 414.361 196.704C414.169 196.643 413.95 196.658 413.754 196.582C413.327 196.418 412.985 196.1 412.685 195.78C412.103 195.157 411.642 194.484 411.401 193.687C411.268 193.245 411.145 192.8 411.077 192.344C411.06 192.227 410.905 191.618 411.089 191.652Z" fill="#69A1AC"/>
<path fill-rule="evenodd" clip-rule="evenodd" d="M412.214 181.599C413.288 183.343 414.171 185.26 414.741 187.201C415.086 188.377 415.328 189.584 415.567 190.782C415.939 192.638 416.29 194.493 416.39 196.381C416.491 198.28 416.69 200.471 416.026 202.3C416.357 200.443 416.042 198.466 415.986 196.597C415.959 195.705 415.882 194.822 415.78 193.935C415.682 193.075 415.521 192.219 415.371 191.365C415.298 190.949 415.221 190.534 415.143 190.119C415.12 189.996 415.11 189.628 415.026 189.544C414.942 189.459 414.511 189.424 414.376 189.362C414.104 189.236 413.848 189.057 413.621 188.868C413.187 188.507 412.81 188.034 412.511 187.568C411.822 186.489 411.546 185.173 411.56 183.924C411.562 183.682 411.979 181.07 411.811 181.034C411.822 181.023 411.831 181.012 411.84 181C411.967 181.199 412.091 181.398 412.214 181.599Z" fill="#89C5CC"/>
<path fill-rule="evenodd" clip-rule="evenodd" d="M423.806 187.891C423.823 187.869 423.931 187.713 423.877 187.723C423.987 187.703 423.724 187.895 424 187.777C423.869 187.893 423.945 188.043 423.946 188.199C423.949 188.452 423.904 188.703 423.853 188.95C423.773 189.341 423.653 189.722 423.479 190.086C423.101 190.878 422.458 191.642 421.694 192.138C421.318 192.382 420.948 192.466 420.518 192.578C420.247 192.649 420.225 192.781 420.081 193.028C419.781 193.542 419.487 194.054 419.222 194.585C418.906 195.22 418.599 195.855 418.31 196.5C417.335 198.675 416.542 200.928 416.126 203.26C416.115 201.886 416.455 200.471 416.883 199.161C417.195 198.207 417.601 197.287 418.033 196.376C418.138 196.156 418.297 195.872 418.342 195.629C418.373 195.458 418.278 195.294 418.234 195.114C418.064 194.414 418.076 193.63 418.226 192.926C418.39 192.15 418.867 191.79 419.673 191.68C419.968 191.64 420.343 191.655 420.614 191.537C420.908 191.409 421.03 190.987 421.197 190.716C421.647 189.989 422.182 189.292 422.796 188.68C422.966 188.51 423.149 188.353 423.342 188.208C423.465 188.117 423.723 188.004 423.806 187.891Z" fill="#89C5CC"/>
</g>
<g opacity="0.5">
<path fill-rule="evenodd" clip-rule="evenodd" d="M173.692 172.235C174.039 171.738 174.682 170.477 175.169 170.3C175.483 170.185 175.392 171.368 175.395 171.593C175.411 172.465 175.326 173.331 175.222 174.196C175.034 175.756 174.419 177.145 173.577 178.472C173.143 179.155 172.634 179.846 171.93 180.272C171.606 180.468 171.215 180.501 170.895 180.67C170.522 180.867 170.725 180.708 170.557 181.099C170.324 181.641 170.249 182.341 170.141 182.92C169.645 185.576 168.445 199.621 168.653 202.323C168.671 202.563 168.339 202.62 168.322 202.328C168.234 200.777 168.997 190.04 169.382 186.529C169.767 183.017 170.157 179.915 170.547 178.7C171.021 177.227 171.877 175.454 172.589 174.08C172.92 173.441 173.281 172.825 173.692 172.235Z" fill="#69A1AC"/>
<path fill-rule="evenodd" clip-rule="evenodd" d="M176.264 189.456C177.165 188.791 178.141 190.047 177.325 190.712C176.874 191.08 176.403 190.949 176.137 190.642C175.965 190.853 175.804 191.074 175.649 191.261C175.177 191.829 174.73 192.41 174.304 193.006C173.418 194.242 172.659 195.549 171.865 196.831C171.082 198.097 170.305 199.369 169.595 200.667C168.993 201.767 168.192 203.06 167.986 204.266C168.298 201.709 169.484 199.252 170.896 196.998C172.296 194.763 173.903 192.321 176.071 190.557C175.851 190.231 175.844 189.765 176.264 189.456Z" fill="#C1DEE2"/>
<path fill-rule="evenodd" clip-rule="evenodd" d="M159.158 183.221C159.662 183.32 160.486 184.468 160.902 184.905C161.396 185.424 161.845 185.977 162.267 186.557C163.177 187.806 163.991 189.133 164.683 190.517C165.811 192.774 166.714 195.09 167.37 197.547C167.772 199.051 168.031 200.61 168.186 202.158C168.215 202.45 168.519 204.701 168.08 204.762C167.686 204.816 167.808 203.053 167.789 202.813C167.573 200.106 166.929 197.472 166.032 194.921C165.836 194.365 165.655 193.685 165.343 193.185C165.118 192.824 165.341 192.95 164.946 192.814C164.606 192.696 164.219 192.725 163.872 192.582C163.117 192.27 162.512 191.666 161.982 191.058C160.952 189.877 160.135 188.599 159.71 187.085C159.474 186.246 159.257 185.402 159.137 184.536C159.106 184.313 158.833 183.157 159.158 183.221Z" fill="#69A1AC"/>
<path fill-rule="evenodd" clip-rule="evenodd" d="M161.148 164.137C163.049 167.449 164.61 171.087 165.618 174.773C166.229 177.006 166.656 179.297 167.081 181.572C167.738 185.094 168.36 188.616 168.537 192.2C168.715 195.806 169.066 199.964 167.892 203.437C168.478 199.911 167.92 196.158 167.821 192.611C167.774 190.917 167.637 189.24 167.457 187.557C167.283 185.924 166.998 184.298 166.733 182.678C166.604 181.889 166.468 181.101 166.33 180.313C166.288 180.078 166.271 179.381 166.123 179.22C165.973 179.059 165.212 178.993 164.973 178.874C164.492 178.636 164.039 178.296 163.638 177.938C162.87 177.251 162.201 176.353 161.674 175.469C160.453 173.421 159.965 170.922 159.99 168.551C159.995 168.091 160.731 163.133 160.436 163.065C160.453 163.044 160.47 163.023 160.486 163C160.71 163.377 160.93 163.756 161.148 164.137Z" fill="#89C5CC"/>
<path fill-rule="evenodd" clip-rule="evenodd" d="M181.658 176.083C181.687 176.04 181.878 175.745 181.782 175.764C181.977 175.725 181.513 176.09 182 175.866C181.769 176.086 181.902 176.371 181.905 176.667C181.91 177.147 181.83 177.623 181.74 178.093C181.598 178.836 181.386 179.558 181.079 180.249C180.409 181.754 179.271 183.203 177.921 184.144C177.254 184.609 176.601 184.767 175.84 184.981C175.36 185.116 175.322 185.366 175.067 185.834C174.536 186.81 174.015 187.782 173.547 188.791C172.988 189.995 172.445 191.201 171.933 192.427C170.209 196.556 168.806 200.833 168.069 205.26C168.05 202.651 168.651 199.964 169.408 197.478C169.96 195.666 170.678 193.92 171.444 192.192C171.63 191.773 171.911 191.234 171.99 190.772C172.045 190.448 171.876 190.136 171.799 189.795C171.498 188.466 171.519 186.977 171.784 185.641C172.075 184.168 172.919 183.484 174.345 183.276C174.867 183.199 175.53 183.227 176.009 183.004C176.53 182.76 176.745 181.96 177.041 181.446C177.837 180.066 178.783 178.742 179.869 177.579C180.17 177.257 180.494 176.96 180.837 176.685C181.053 176.511 181.51 176.297 181.658 176.083Z" fill="#89C5CC"/>
</g>
<path d="M170 6.04311C199.668 4.66287 207.58 36.8582 174.45 40.9976C172.49 41.2425 202.14 23.0602 170 6.04311Z" fill="#FFFDFD" fill-opacity="0.56"/>
<path fill-rule="evenodd" clip-rule="evenodd" d="M138.628 142.788C140.159 143.711 141.663 144.156 142.369 143.974C144.139 143.518 144.302 137.041 142.932 134.487C141.562 131.934 134.52 130.821 134.165 135.88C134.042 137.636 134.779 139.203 135.868 140.482L133.915 149.586H139.589L138.628 142.788Z" fill="#B28B67"/>
<path fill-rule="evenodd" clip-rule="evenodd" d="M140.691 131.707C139.916 131.47 138.79 131.39 138.317 131.444C138.586 130.799 138.693 130.08 138.606 129.38C138.521 128.7 138.217 128.121 137.936 127.514C137.807 127.234 137.66 126.956 137.441 126.742C137.218 126.524 136.936 126.38 136.64 126.312C136.337 126.241 136.02 126.247 135.717 126.311C135.582 126.339 135.462 126.401 135.33 126.435C135.196 126.47 135.13 126.385 135.032 126.3C134.797 126.096 134.451 125.995 134.153 125.959C133.818 125.919 133.471 125.969 133.152 126.079C132.841 126.186 132.542 126.36 132.318 126.614C132.218 126.726 132.127 126.855 132.068 126.996C132.044 127.055 132.04 127.089 131.982 127.11C131.928 127.13 131.865 127.131 131.81 127.149C131.274 127.331 130.816 127.745 130.567 128.276C130.422 128.586 130.353 129.132 130.371 129.744C130.39 130.356 130.943 131.952 131.459 132.534C131.921 133.054 132.599 133.397 133.253 133.547C132.818 134.043 132.529 134.664 132.316 135.294C132.083 135.98 131.94 136.692 131.887 137.417C131.836 138.106 131.832 138.835 131.993 139.51C132.144 140.14 132.468 140.658 133.007 140.986C133.254 141.136 133.52 141.249 133.788 141.353C134.051 141.454 134.316 141.553 134.592 141.61C135.115 141.718 135.717 141.7 136.119 141.284C136.264 141.134 136.424 140.946 136.53 140.762C136.568 140.696 136.591 140.653 136.545 140.589C136.489 140.512 136.4 140.453 136.328 140.392C135.923 140.048 135.671 139.589 135.608 139.043C135.544 138.49 135.693 137.775 136.231 137.533C136.896 137.235 137.627 137.577 138.218 137.897C138.469 137.011 138.985 136.213 139.793 135.806C140.687 135.357 141.713 135.304 142.631 134.918C142.871 134.818 143.115 134.704 143.291 134.499C143.365 134.413 143.451 134.302 143.48 134.189C143.519 134.04 143.423 133.916 143.349 133.8C142.956 133.185 141.466 131.943 140.691 131.707Z" fill="#A00D04"/>
<path fill-rule="evenodd" clip-rule="evenodd" d="M132.26 168.499L140.92 198.34L144.993 220.745H149.081L145 168.499H132.26Z" fill="#997659"/>
<path fill-rule="evenodd" clip-rule="evenodd" d="M128.368 168.499C128.972 184.001 128.734 192.457 128.599 193.865C128.464 195.273 127.696 204.706 122.464 221.218H126.716C133.645 205.378 136.063 195.945 136.858 193.865C137.653 191.785 140 183.33 143.426 168.499H128.368Z" fill="#B28B67"/>
<path fill-rule="evenodd" clip-rule="evenodd" d="M132.074 168.499C134.327 178.767 138.222 195.158 143.762 217.672H149.741C150.183 194.564 148.304 179.355 145.051 168.499H132.074Z" fill="#69A1AC"/>
<path fill-rule="evenodd" clip-rule="evenodd" d="M128.338 168.499C128.93 184.001 127.396 199.274 122.645 217.913H129.025C135.966 202.309 140.941 187.112 144.342 168.499H128.338Z" fill="#89C5CC"/>
<path fill-rule="evenodd" clip-rule="evenodd" d="M121.858 224.291L122.015 221.758C122.055 221.118 122.687 220.669 123.328 220.689C125.203 220.748 127.254 220.036 127.254 220.036C129.528 221.647 132.606 222.561 134.486 223.004C135.375 223.214 135.949 224.122 135.7 225.001V225.001H127.254H122.327L121.858 224.291Z" fill="#191847"/>
<path fill-rule="evenodd" clip-rule="evenodd" d="M144.08 224.291L144.237 221.758C144.277 221.118 144.909 220.669 145.55 220.689C147.425 220.748 149.476 220.036 149.476 220.036C151.75 221.647 154.828 222.561 156.708 223.004C157.597 223.214 158.172 224.122 157.923 225.001V225.001H149.476H144.549L144.08 224.291Z" fill="#191847"/>
<path fill-rule="evenodd" clip-rule="evenodd" d="M152.437 149.986L144.231 154.48L147.261 157.732L153.224 152.273C156.365 151.408 157.801 150.774 157.533 150.373C157.307 150.035 156.942 150.047 156.606 150.058C156.345 150.066 156.1 150.074 155.953 149.916C155.616 149.554 156.259 148.289 156.921 147.114C157.583 145.939 156.875 146.042 156.47 146.21C155.146 147.107 153.801 148.365 152.437 149.986ZM160.687 156.292L157.083 158.272L157.288 161.889C157.288 161.889 159.622 160.204 161.631 159.644C164.192 158.93 165.228 158.385 166.479 156.79C167.149 155.937 167.717 154.222 167.08 153.664C166.835 153.45 165.924 153.956 164.995 154.472C164.286 154.866 163.567 155.265 163.124 155.357C162.528 155.479 162.598 154.706 162.654 154.089C162.694 153.645 162.727 153.282 162.501 153.387C161.446 153.405 160.687 156.292 160.687 156.292Z" fill="#997659"/>
<path fill-rule="evenodd" clip-rule="evenodd" d="M140.235 153.48C143.109 153.449 146.942 152.842 151.031 150.246L152.637 153.828C149.817 156.627 145.85 158.928 142.382 158.83C139.649 158.753 138.252 155.447 140.235 153.48Z" fill="#2026A2"/>
<path fill-rule="evenodd" clip-rule="evenodd" d="M132.483 178.017C129.751 177.66 127.24 177.333 125.752 177.626C124.083 172.204 125.469 168.791 126.749 165.64C127.52 163.741 128.253 161.937 128.254 159.846C128.259 153.757 133.148 144.386 133.867 144.386H134.073H139.774H140.426C140.72 148.153 141.971 152.233 143.231 156.338C143.525 157.297 143.82 158.257 144.103 159.215C148.87 160.297 159.455 156.531 159.455 156.531C159.455 156.531 162.128 162.059 161.926 164.413C155.765 167.632 150.484 169.067 146.133 169.162C146.271 171.743 145.957 174.199 144.902 176.444C143.487 179.451 137.597 178.683 132.483 178.017Z" fill="#1F28CF"/>
<path fill-rule="evenodd" clip-rule="evenodd" d="M286.357 146.285C285.036 147.521 283.641 148.279 282.904 148.247C281.055 148.168 279.531 141.791 280.35 138.975C281.169 136.159 287.906 133.576 289.322 138.509C289.813 140.221 289.413 141.927 288.604 143.422L292.453 152.023L286.836 153.217L286.357 146.285Z" fill="#B28B67"/>
<path fill-rule="evenodd" clip-rule="evenodd" d="M289.275 144.458C289.313 141.172 290.867 138.608 290.262 137.271C289.658 135.935 288.257 135.876 288.257 135.876C288.257 135.876 286.979 133.243 283.324 134.453C279.668 135.664 277.713 137.705 279.427 140.916C280.334 140.723 281.36 140.162 282.993 140.403C283.771 140.517 284.377 141.843 284.377 141.843L285.061 141.697C285.061 141.697 285.707 139.834 286.768 140.066C287.829 140.298 287.66 142.099 287.66 142.099L288.547 144.613L289.275 144.458Z" fill="#F8C478"/>
<path fill-rule="evenodd" clip-rule="evenodd" d="M304.933 167.823L287.156 197.543L273.829 222.668H270.958L293.288 167.823L304.933 167.823Z" fill="#997659"/>
<path fill-rule="evenodd" clip-rule="evenodd" d="M273.465 221.671C274.567 221.671 275.871 221.879 275.978 222.976C275.983 223.024 275.986 223.07 275.986 223.112C275.986 223.759 275.77 225 275.77 225C275.019 225 262.277 225 262.277 225C262.277 225 261.751 223.262 262.884 223.123C264.017 222.984 264.767 222.873 264.767 222.873L270.323 220.395C270.838 220.166 271.44 220.407 271.655 220.928L271.76 221.182C271.76 221.182 272.809 221.671 273.465 221.671V221.671Z" fill="#AEAEAE"/>
<path fill-rule="evenodd" clip-rule="evenodd" d="M277.53 218.644L271.994 216.97C271.994 216.97 275.632 206.094 280.912 193.032C286.192 179.971 292.253 167.823 292.253 167.823H307.889C307.889 167.823 301.15 183.19 293.601 195.748C286.052 208.306 277.53 218.644 277.53 218.644Z" fill="#DB2721"/>
<path fill-rule="evenodd" clip-rule="evenodd" d="M306.101 167.823C307.779 178.267 311.015 191.61 311.32 192.021C311.524 192.296 318.853 194.752 333.308 199.389L332.688 201.921C315.451 199.434 306.368 197.504 305.44 196.132C304.048 194.074 297.098 177.814 294.407 167.823H306.101Z" fill="#B28B67"/>
<path fill-rule="evenodd" clip-rule="evenodd" d="M328.227 197.201L327.135 201.278C314.242 202.409 306.342 201.592 303.436 198.827C300.529 196.062 297.216 185.728 293.498 167.823H308.407C310.763 182.484 312.08 190.123 312.359 190.738C312.637 191.354 317.926 193.508 328.227 197.201Z" fill="#FF4133"/>
<path fill-rule="evenodd" clip-rule="evenodd" d="M332.393 200.451C332.585 199.366 333.016 198.117 334.114 198.202C334.163 198.206 334.208 198.211 334.25 198.218C334.887 198.331 336.072 198.759 336.072 198.759C335.942 199.498 333.729 212.047 333.729 212.047C333.729 212.047 331.925 212.263 331.986 211.123C332.046 209.983 332.066 209.225 332.066 209.225L330.591 203.323C330.455 202.776 330.796 202.225 331.347 202.104L331.615 202.045C331.615 202.045 332.28 201.096 332.393 200.451V200.451Z" fill="black"/>
<path fill-rule="evenodd" clip-rule="evenodd" d="M269.613 169.474L278.893 167.291L278.828 171.849L270.584 171.759C267.616 173.248 266.097 173.747 266.025 173.257C265.965 172.844 266.249 172.604 266.51 172.382C266.714 172.209 266.904 172.048 266.907 171.826C266.914 171.319 265.562 170.793 264.258 170.348C262.953 169.904 263.558 169.497 263.98 169.35C265.595 169.128 267.473 169.17 269.613 169.474ZM320.829 174.666C319.665 173.589 307.378 158.699 307.378 158.699L302.495 160.595C302.495 160.595 317.488 175.609 318.16 176.331C319.033 177.268 318.892 179.171 318.796 180.462C318.781 180.662 318.767 180.847 318.758 181.011C319.596 181.057 319.792 180.538 319.997 179.991C320.23 179.373 320.475 178.72 321.677 178.802C322.141 178.834 322.596 178.908 323.042 178.98C324.58 179.228 325.992 179.456 327.192 177.883C327.382 177.634 327.433 176.95 326.599 176.751C324.524 176.255 321.398 175.192 320.829 174.666Z" fill="#997659"/>
<path fill-rule="evenodd" clip-rule="evenodd" d="M288.028 148.331L284.297 150.056C286.629 158.95 283.561 166.311 271.359 168.901L274.049 180.475C285.332 177.738 293.107 169.815 290.566 157.422C289.909 154.213 289.099 150.922 288.028 148.331Z" fill="#AFB9C5"/>
<path fill-rule="evenodd" clip-rule="evenodd" d="M319.309 172.711C311.22 159.586 301.408 150.796 289.872 146.342L289.504 146.483L289.492 146.488L289.49 146.493L284.198 150.048C286.873 157.018 287.322 162.82 287.753 168.399C287.939 170.808 288.122 173.175 288.48 175.577L304.149 169.562C305.343 172.012 306.478 174.566 307.576 177.215L319.309 172.711Z" fill="#C5CFD6"/>
<path fill-rule="evenodd" clip-rule="evenodd" d="M304.149 169.561C301.718 164.572 299.047 160.011 295.963 155.944C298.133 160.727 300.544 166.767 300.964 170.784L304.149 169.561Z" fill="black" fill-opacity="0.1"/>
<path fill-rule="evenodd" clip-rule="evenodd" d="M227.998 146.724C228.786 148.277 229.799 149.422 230.477 149.636C232.175 150.173 235.654 144.905 235.84 142.088C236.027 139.27 230.782 134.714 227.877 138.712C226.868 140.099 226.668 141.774 226.908 143.393L220.594 149.907L225.282 152.837L227.998 146.724Z" fill="#B28B67"/>
<path fill-rule="evenodd" clip-rule="evenodd" d="M237.635 140.457C236.983 141.5 235.633 141.841 234.569 141.253C233.866 141.067 233.026 140.727 232.152 140.259C232.042 140.616 231.869 140.992 231.623 141.385C231.406 141.733 231.137 142.077 230.833 142.407C230.786 142.077 230.631 141.784 230.384 141.629C229.693 141.198 228.857 141.466 228.479 142.069C228.001 142.835 228.097 143.666 228.715 144.113C227.436 144.866 226.107 145.204 225.303 144.702C223.778 143.749 223.967 141.031 225.338 138.838C225.386 138.76 225.436 138.685 225.486 138.611C224.748 138.642 223.979 138.808 223.205 138.975L223.205 138.975C221.559 139.329 219.888 139.689 218.436 138.781C215.531 136.966 218.039 130.384 222.098 132.921C224.859 134.646 225.965 135.897 226.764 137.224C227.401 136.717 228.095 136.39 228.764 136.277C228.94 136.225 229.169 136.213 229.438 136.237C229.606 136.247 229.771 136.272 229.93 136.313C230.798 136.495 231.934 136.951 233.101 137.624C233.319 137.75 233.53 137.879 233.732 138.009C234.408 136.935 235.826 136.61 236.903 137.283C237.981 137.957 238.31 139.378 237.635 140.457Z" fill="#191847"/>
<path fill-rule="evenodd" clip-rule="evenodd" d="M201.437 190.543C201.437 190.543 209.726 192.861 215.74 192.861C221.754 192.861 226.911 189.291 226.911 189.291C226.911 189.291 218.8 186.911 213.552 186.911C208.303 186.911 201.437 190.543 201.437 190.543Z" fill="#1F28CF"/>
<path fill-rule="evenodd" clip-rule="evenodd" d="M220.523 195.088C220.47 195.008 220.425 194.921 220.389 194.827C219.651 192.873 207.82 171.801 206.641 167.948H219.961C220.857 170.877 224.891 189.26 225.458 192.927C227.249 198.712 230.937 217.448 231.408 218.746C231.903 220.111 229.116 221.534 228.374 219.855C227.192 217.184 224.377 209.794 223.124 205.281C221.949 201.05 220.992 197.244 220.523 195.088Z" fill="#997659"/>
<path fill-rule="evenodd" clip-rule="evenodd" d="M209.626 197.661C204.217 199.028 184.432 201.5 183.075 201.887C181.678 202.286 180.454 199.407 182.18 198.784C184.927 197.791 192.496 195.499 197.085 194.563C200.776 193.811 204.144 193.197 206.406 192.837C206.214 186.485 205.338 171.241 205.912 167.948H217.698C217.147 171.105 212.494 194.142 211.63 196.448C211.355 197.272 210.536 197.635 209.626 197.661V197.661Z" fill="#B28B67"/>
<path fill-rule="evenodd" clip-rule="evenodd" d="M182.505 200.054C182.32 199.01 181.905 197.807 180.848 197.889C180.801 197.893 180.757 197.898 180.717 197.905C180.104 198.013 178.963 198.425 178.963 198.425C179.088 199.137 181.219 211.22 181.219 211.22C181.219 211.22 182.955 211.428 182.897 210.33C182.839 209.232 182.82 208.503 182.82 208.503L184.231 202.857C184.367 202.31 184.025 201.759 183.475 201.638L183.254 201.589C183.254 201.589 182.614 200.676 182.505 200.054V200.054Z" fill="#363636"/>
<path fill-rule="evenodd" clip-rule="evenodd" d="M229.569 219.796C228.508 219.796 227.252 219.996 227.149 221.052C227.144 221.098 227.142 221.142 227.142 221.183C227.142 221.806 227.349 223.001 227.349 223.001C228.072 223.001 240.341 223.001 240.341 223.001C240.341 223.001 240.848 221.327 239.757 221.194C238.666 221.06 237.944 220.953 237.944 220.953L232.629 218.583C232.114 218.354 231.512 218.594 231.297 219.115L231.21 219.325C231.21 219.325 230.2 219.796 229.569 219.796V219.796Z" fill="#363636"/>
<path fill-rule="evenodd" clip-rule="evenodd" d="M205.95 167.948C205.95 167.948 213.741 165.72 220.692 167.948C222.305 175.305 226.223 178.225 226.912 189.504C219.08 193.395 209.405 186.728 201.343 190.523C199.04 185.215 202.265 172.432 205.95 167.948Z" fill="#2B44FF"/>
<path fill-rule="evenodd" clip-rule="evenodd" d="M235.842 181.086L232.031 172.804L228.664 175.529L233.565 181.695C234.193 184.807 234.711 186.246 235.119 186.013C235.463 185.816 235.476 185.46 235.488 185.133C235.498 184.878 235.507 184.64 235.671 184.508C236.046 184.205 237.232 184.916 238.329 185.639C239.425 186.362 239.374 185.667 239.237 185.262C238.456 183.914 237.324 182.522 235.842 181.086ZM196.621 175.936C197.742 174.9 204.671 163.263 204.671 163.263L209.158 165.006C209.158 165.006 199.838 176.844 199.191 177.539C198.35 178.442 198.486 180.274 198.579 181.517C198.593 181.709 198.606 181.887 198.615 182.046C197.808 182.089 197.62 181.59 197.422 181.063C197.198 180.469 196.961 179.839 195.805 179.919C195.358 179.95 194.919 180.021 194.49 180.09C193.01 180.329 191.649 180.548 190.495 179.034C190.312 178.794 190.263 178.136 191.065 177.944C193.064 177.467 196.073 176.443 196.621 175.936Z" fill="#B28B67"/>
<path fill-rule="evenodd" clip-rule="evenodd" d="M224.68 149.309L226.662 149.703C226.793 158.93 229.593 168.342 235.062 177.941L226.222 182.95C221.818 170.582 220.587 159.093 224.68 149.309Z" fill="#191847"/>
<path fill-rule="evenodd" clip-rule="evenodd" d="M207.604 169.566L224.162 175.922C224.162 175.922 223.778 159.722 227.532 149.942L222.823 147.281C216.474 152.087 212.382 159.435 207.604 169.566Z" fill="#F2C00E"/>
<path fill-rule="evenodd" clip-rule="evenodd" d="M197.353 173.773C207.006 154.038 222.714 147.238 222.714 147.238L222.716 147.243C222.717 147.242 222.718 147.241 222.719 147.24L223.046 147.366C223.623 147.61 224.8 148.123 224.8 148.123L224.683 152.035C222.453 158.416 217.16 178.318 217.16 178.318L206.322 174.158C206.004 175.041 205.703 175.946 205.424 176.871L197.353 173.773Z" fill="#2F3676"/>
<path fill-rule="evenodd" clip-rule="evenodd" d="M206.291 174.243C207.67 170.393 209.384 166.939 211.194 163.913C210.012 167.875 208.852 172.743 209.311 175.402L206.291 174.243Z" fill="black" fill-opacity="0.1"/>
<path fill-rule="evenodd" clip-rule="evenodd" d="M211.248 168.497L217.556 168.063L216.601 170.552L211.248 168.497Z" fill="white" fill-opacity="0.2"/>
<path fill-rule="evenodd" clip-rule="evenodd" d="M374.878 167.944C374.482 172.797 348.976 187.086 348.828 187.487C348.761 187.666 351.408 193.298 356.766 204.385L354.537 205.163C346.317 193.421 342.419 186.925 342.841 185.674C343.446 183.882 350.042 177.99 362.63 167.995L374.878 167.944Z" fill="#B28B67"/>
<path fill-rule="evenodd" clip-rule="evenodd" d="M356.18 201.882L352.54 203.072C344.864 195.293 341.855 188.875 342.404 185.605C342.77 183.425 349.343 177.542 362.125 167.956L375.139 167.956C374.695 179.196 351.054 187.53 350.738 188.009C350.422 188.488 353.534 193.179 356.18 201.882Z" fill="#5C63AB"/>
<path fill-rule="evenodd" clip-rule="evenodd" d="M356.18 201.882L352.54 203.072C344.864 195.293 341.855 188.875 342.404 185.605C342.77 183.425 349.343 177.542 362.125 167.956L375.139 167.956C374.695 179.196 351.054 187.53 350.738 188.009C350.422 188.488 353.534 193.179 356.18 201.882Z" fill="black" fill-opacity="0.2"/>
<path fill-rule="evenodd" clip-rule="evenodd" d="M357.075 204.319C357.626 204.987 357.984 205.5 358.15 205.858C358.353 206.294 358.589 206.944 358.861 207.809C358.457 207.909 354.825 208.81 347.966 210.511C347.14 209.41 347.011 208.737 347.577 208.493C348.144 208.248 348.612 208.038 348.98 207.863L352.734 203.783C352.807 203.705 352.946 203.731 353.046 203.842C353.048 203.844 353.049 203.846 353.051 203.848L353.835 204.755C354.552 204.944 355.087 204.995 355.44 204.908C355.727 204.837 356.056 204.594 356.427 204.179L356.427 204.179C356.57 204.019 356.848 204.069 357.05 204.289C357.058 204.299 357.067 204.309 357.075 204.319Z" fill="#E4E4E4"/>
<path fill-rule="evenodd" clip-rule="evenodd" d="M371.945 167.944L383.307 192.444L394.474 213.157H391.839L363.014 167.944H371.945Z" fill="#997659"/>
<path fill-rule="evenodd" clip-rule="evenodd" d="M394.632 212.219C394.877 212.811 395 213.253 395 213.547C395 213.904 394.934 214.425 394.802 215.109C394.343 215.109 390.215 215.109 382.418 215.109C382.096 214.15 382.282 213.632 382.975 213.556C383.669 213.479 384.245 213.41 384.703 213.349L390.459 211.035C390.57 210.99 390.7 211.035 390.749 211.135C390.75 211.137 390.751 211.138 390.752 211.14L391.122 211.949C391.764 212.219 392.285 212.354 392.686 212.354C393.012 212.354 393.463 212.236 394.037 211.998L394.037 211.998C394.258 211.907 394.518 211.994 394.619 212.193C394.624 212.202 394.628 212.21 394.632 212.219Z" fill="#E4E4E4"/>
<path fill-rule="evenodd" clip-rule="evenodd" d="M393.466 208.854L387.611 209.84C383.085 203.863 364.141 179.354 362.064 167.944H375.097C382.033 176.192 389.151 202.778 393.466 208.854Z" fill="#5C63AB"/>
<path fill-rule="evenodd" clip-rule="evenodd" d="M367.076 144.456C367.327 143.251 367.241 141.818 366.522 140.284C364.45 135.861 360.231 137.362 360.26 139.709C360.289 142.055 362.75 147.739 364.078 148.009C364.608 148.117 365.433 147.613 366.103 146.688L367.943 152.737L371.668 152.317L367.076 144.456Z" fill="#B28B67"/>
<path fill-rule="evenodd" clip-rule="evenodd" d="M360.598 140.789C360.529 140.472 360.513 140.112 360.495 139.806C360.472 139.411 360.522 139.046 360.598 138.697C360.74 138.04 360.977 137.432 361.294 136.911C361.873 135.958 362.825 135.322 363.992 135.322C364.581 135.322 365.216 135.491 365.83 135.834C366.384 136.143 366.988 136.629 367.544 136.593C368.148 136.552 368.468 135.881 368.804 135.447C369.183 134.957 369.638 134.575 370.217 134.371C371.187 134.028 372.317 134.295 373.399 135.175C374.551 136.112 375.675 137.564 375.685 139.018C375.687 139.288 375.647 139.521 375.541 139.725C375.444 139.912 375.268 140.121 375.301 140.393C375.337 140.683 375.674 141.015 375.846 141.256C376.093 141.602 376.327 141.969 376.44 142.367C376.625 143.02 376.499 143.686 376.282 144.162C376.062 144.647 375.686 144.961 375.228 145.145C374.922 145.268 374.596 145.357 374.246 145.376C374.073 145.386 373.904 145.353 373.725 145.333C373.551 145.314 373.48 145.375 373.382 145.493C372.928 146.044 372.322 146.318 371.574 146.35C370.943 146.377 370.177 146.306 369.503 145.897C368.753 145.443 368.492 144.708 368.332 143.906C368.223 144.004 367.86 144.106 367.972 143.762C368.017 143.626 368.169 143.552 368.257 143.463C368.361 143.36 368.457 143.231 368.511 143.079C368.727 142.463 367.88 141.389 367.28 141.276C366.388 141.109 366.685 142.413 366.245 142.822C365.991 143.058 365.556 142.845 365.215 142.614C364.758 142.304 364.362 141.864 363.994 141.411C363.69 141.038 363.395 140.659 363.089 140.288C362.946 140.116 362.494 139.633 362.548 139.408C361.935 139.358 361.405 139.715 361.049 140.136C360.902 140.31 360.808 140.492 360.796 140.765C360.794 140.823 360.805 140.994 360.744 141.01C360.632 141.039 360.615 140.869 360.598 140.789Z" fill="#191847"/>
<path fill-rule="evenodd" clip-rule="evenodd" d="M353.861 165.923L347.065 170.693C345.194 171.177 343.637 171.774 342.395 172.483C342.104 172.737 341.761 173.249 342.998 173.153C344.236 173.056 345.544 173.006 345.729 173.396C345.913 173.786 345.179 174.258 345.543 174.784C345.786 175.134 346.846 174.244 348.721 172.115L355.522 169.427L353.861 165.923ZM380.59 165.902L376.031 165.95C379.138 174.329 380.813 178.774 381.055 179.287C381.6 180.439 380.593 182.208 380.169 183.157C381.678 183.762 381.441 181.484 383.346 182.278C385.085 183.003 386.435 184.329 388.375 183.187C388.613 183.046 388.862 182.522 388.203 182.118C386.563 181.112 384.187 179.347 383.854 178.764C383.4 177.967 382.312 173.68 380.59 165.902Z" fill="#B28B67"/>
<path fill-rule="evenodd" clip-rule="evenodd" d="M367.132 148.902L365.249 148.62C358.492 154.168 356.008 164.754 347.686 170.41L349.818 172.724C364.537 170.947 367.748 158.033 367.132 148.902Z" fill="#FF9B21"/>
<path fill-rule="evenodd" clip-rule="evenodd" d="M367.132 148.902L365.249 148.62C358.492 154.168 356.008 164.754 347.686 170.41L349.818 172.724C364.537 170.947 367.748 158.033 367.132 148.902Z" fill="#D71E29"/>
<path fill-rule="evenodd" clip-rule="evenodd" d="M376.143 170.327C368.685 170.378 363.2 170.416 359.686 170.44C358.934 170.445 359.041 169.443 359.132 168.937C360.183 163.097 364.862 156.777 364.573 148.477L369.296 147.758C373.425 153.554 375.033 160.714 376.143 170.327Z" fill="#DDE3E9"/>
<path fill-rule="evenodd" clip-rule="evenodd" d="M375.485 153.369C376.166 153.182 376.694 152.752 377.072 152.081C378.699 149.185 378.02 147.602 376.156 147.093C374.292 146.584 372.683 147.67 369.741 147.69C369.581 147.692 369.435 147.702 369.302 147.721L367.825 147.81C364.042 161.148 363.18 170.035 365.238 174.472L378.135 174.383C378.957 176.026 379.736 177.408 380.474 178.528L383.988 178.504C383.975 168.61 381.141 160.231 375.485 153.369Z" fill="#FF212E"/>
<path fill-rule="evenodd" clip-rule="evenodd" d="M375.002 167.503C374.704 170.647 374.122 172.932 373.256 174.357L378.056 174.324C377.095 172.406 376.077 170.132 375.002 167.503V167.503Z" fill="black" fill-opacity="0.1"/>
</g>
<defs>
<linearGradient id="paint0_linear_856_1338" x1="250" y1="0" x2="250" y2="250" gradientUnits="userSpaceOnUse">
<stop stop-color="#00A1B7"/>
<stop offset="0.791667" stop-color="#9AEFFB"/>
</linearGradient>
<clipPath id="clip0_856_1338">
<rect width="500" height="250" fill="white"/>
</clipPath>
</defs>
</svg>
