<svg width="500" height="500" viewBox="0 0 500 500" fill="none" xmlns="http://www.w3.org/2000/svg">
<g clip-path="url(#clip0_770_196)">
<rect width="500" height="500" fill="#8B7878"/>
<rect width="500" height="378.104" fill="url(#paint0_linear_770_196)"/>
<path fill-rule="evenodd" clip-rule="evenodd" d="M88.6185 179.739C92.3224 181.971 95.9616 183.05 97.6699 182.609C101.954 181.505 102.347 165.834 99.0329 159.656C95.7184 153.479 78.6794 150.786 77.8205 163.026C77.5224 167.274 79.3063 171.066 81.9418 174.159L77.2161 196.186H90.9433L88.6185 179.739Z" fill="#B28B67"/>
<path fill-rule="evenodd" clip-rule="evenodd" d="M93.6106 152.928C91.7349 152.356 89.0119 152.162 87.8665 152.293C88.5181 150.732 88.7766 148.993 88.5659 147.299C88.361 145.654 87.6257 144.253 86.9456 142.784C86.6322 142.108 86.2769 141.435 85.7473 140.917C85.2077 140.39 84.5248 140.042 83.8086 139.875C83.0757 139.705 82.3094 139.72 81.5753 139.874C81.2506 139.942 80.9592 140.091 80.6408 140.173C80.3147 140.258 80.1565 140.054 79.9198 139.848C79.3493 139.354 78.513 139.11 77.7913 139.023C76.9817 138.925 76.1415 139.047 75.3693 139.313C74.6176 139.572 73.8955 139.993 73.3521 140.606C73.1102 140.879 72.8905 141.19 72.7478 141.532C72.6892 141.673 72.6796 141.757 72.5391 141.808C72.4093 141.856 72.2574 141.857 72.1233 141.903C70.8274 142.342 69.7193 143.343 69.116 144.629C68.764 145.379 68.5972 146.699 68.6429 148.179C68.6886 149.66 70.0251 153.522 71.2752 154.931C72.391 156.188 74.0311 157.018 75.6139 157.381C74.5633 158.582 73.8639 160.083 73.3468 161.609C72.785 163.267 72.4374 164.989 72.309 166.744C72.187 168.412 72.1758 170.175 72.5667 171.807C72.9324 173.333 73.7144 174.585 75.02 175.379C75.6181 175.743 76.2615 176.016 76.9087 176.266C77.5465 176.512 78.1862 176.752 78.8543 176.89C80.1187 177.151 81.5756 177.106 82.5496 176.1C82.9006 175.737 83.2867 175.281 83.5428 174.838C83.6349 174.679 83.6904 174.574 83.5785 174.419C83.4445 174.232 83.2277 174.089 83.0555 173.943C82.0737 173.111 81.4659 172 81.3127 170.679C81.1573 169.339 81.5172 167.61 82.8197 167.026C84.4276 166.304 86.1983 167.132 87.6274 167.904C88.2348 165.761 89.4819 163.831 91.4371 162.847C93.6001 161.76 96.0823 161.632 98.3052 160.699C98.8844 160.456 99.4744 160.18 99.9009 159.684C100.079 159.477 100.288 159.208 100.359 158.934C100.453 158.575 100.221 158.273 100.041 157.992C99.0909 156.505 95.4863 153.5 93.6106 152.928Z" fill="#191847"/>
<path fill-rule="evenodd" clip-rule="evenodd" d="M73.2122 241.943L94.1639 314.141L104.019 368.349H113.91L104.036 241.943H73.2122Z" fill="#997659"/>
<path fill-rule="evenodd" clip-rule="evenodd" d="M63.7961 241.943C65.2581 279.45 64.6815 299.907 64.3543 303.314C64.0271 306.722 62.1695 329.544 49.5117 369.493H59.7993C76.5625 331.169 82.4144 308.347 84.337 303.314C86.2596 298.282 91.938 277.825 100.228 241.943H63.7961Z" fill="#B28B67"/>
<path fill-rule="evenodd" clip-rule="evenodd" d="M72.7625 241.943C78.2123 266.787 87.6383 306.443 101.04 360.913H115.507C116.576 305.005 112.03 268.208 104.158 241.943H72.7625Z" fill="#69A1AC"/>
<path fill-rule="evenodd" clip-rule="evenodd" d="M63.7231 241.943C65.1549 279.45 61.4444 316.401 49.9504 361.497H65.3858C82.1798 323.745 94.2166 286.977 102.443 241.943H63.7231Z" fill="#89C5CC"/>
<path fill-rule="evenodd" clip-rule="evenodd" d="M48.0454 376.928L48.5356 369.026C48.5753 368.386 49.2 367.947 49.8332 368.049C54.7337 368.841 61.101 366.633 61.101 366.633C67.4355 371.12 76.3452 373.372 80.4461 374.224C81.6241 374.469 82.3812 375.663 82.053 376.82L81.5359 378.644H61.101H49.1807L48.0454 376.928Z" fill="#191847"/>
<path fill-rule="evenodd" clip-rule="evenodd" d="M101.811 376.928L102.301 369.026C102.34 368.386 102.965 367.947 103.598 368.049C108.499 368.841 114.866 366.633 114.866 366.633C121.201 371.12 130.11 373.372 134.211 374.224C135.389 374.469 136.146 375.663 135.818 376.82L135.301 378.644H114.866H102.946L101.811 376.928Z" fill="#191847"/>
<path fill-rule="evenodd" clip-rule="evenodd" d="M122.028 197.152L102.176 208.026L109.507 215.894L123.932 202.686C131.532 200.592 135.007 199.06 134.358 198.09C133.811 197.272 132.929 197.301 132.116 197.327C131.483 197.347 130.892 197.366 130.535 196.983C129.719 196.107 131.276 193.046 132.877 190.204C134.478 187.362 132.766 187.609 131.787 188.018C128.583 190.187 125.33 193.232 122.028 197.152ZM141.989 212.409L133.269 217.2L133.766 225.951C133.766 225.951 139.414 221.875 144.273 220.52C150.468 218.792 152.975 217.473 156.003 213.615C157.623 211.551 158.997 207.402 157.455 206.051C156.864 205.532 154.66 206.757 152.412 208.007C150.698 208.959 148.958 209.926 147.886 210.146C146.444 210.443 146.612 208.573 146.747 207.079C146.844 206.006 146.924 205.127 146.378 205.381C143.825 205.425 141.989 212.409 141.989 212.409Z" fill="#997659"/>
<path fill-rule="evenodd" clip-rule="evenodd" d="M92.5072 205.604C99.461 205.53 108.734 204.062 118.628 197.781L122.514 206.446C115.689 213.219 106.093 218.784 97.7018 218.549C91.0894 218.363 87.7098 210.365 92.5072 205.604Z" fill="#2026A2"/>
<path fill-rule="evenodd" clip-rule="evenodd" d="M73.7524 264.97C67.1416 264.108 61.0671 263.316 57.4674 264.025C53.4285 250.908 56.7823 242.649 59.8783 235.025C61.7443 230.43 63.5166 226.066 63.5204 221.007C63.5314 206.277 75.3596 183.603 77.0998 183.603H77.5993H91.3911H92.9701C93.6796 192.718 96.708 202.588 99.7557 212.521C100.467 214.841 101.18 217.164 101.865 219.482C113.399 222.1 139.009 212.987 139.009 212.987C139.009 212.987 145.475 226.362 144.987 232.058C130.08 239.845 117.303 243.317 106.777 243.546C107.112 249.792 106.351 255.735 103.798 261.165C100.376 268.441 86.1248 266.583 73.7524 264.97Z" fill="#1F28CF"/>
<path fill-rule="evenodd" clip-rule="evenodd" d="M259.144 189.241C261.102 193.097 263.617 195.94 265.299 196.472C269.517 197.805 278.155 184.725 278.618 177.729C279.081 170.733 266.058 159.42 258.843 169.346C256.339 172.791 255.843 176.951 256.439 180.971L240.759 197.147L252.4 204.421L259.144 189.241Z" fill="#B28B67"/>
<path fill-rule="evenodd" clip-rule="evenodd" d="M283.075 173.679C281.457 176.27 278.103 177.117 275.461 175.656C273.717 175.193 271.63 174.35 269.459 173.188C269.186 174.075 268.756 175.008 268.145 175.985C267.606 176.847 266.94 177.703 266.184 178.522C266.068 177.702 265.682 176.974 265.069 176.591C263.353 175.519 261.277 176.184 260.34 177.683C259.152 179.585 259.39 181.647 260.924 182.759C257.749 184.628 254.448 185.467 252.454 184.22C248.665 181.853 249.137 175.104 252.54 169.658C252.659 169.467 252.782 169.279 252.907 169.095C251.075 169.174 249.165 169.585 247.242 169.999C243.156 170.879 239.008 171.772 235.402 169.518C228.187 165.01 234.415 148.668 244.495 154.967C251.35 159.25 254.097 162.357 256.08 165.65C257.662 164.393 259.385 163.58 261.047 163.3C261.485 163.171 262.052 163.14 262.721 163.201C263.138 163.225 263.546 163.288 263.942 163.39C266.097 163.841 268.919 164.973 271.816 166.646C272.358 166.958 272.881 167.278 273.384 167.602C275.062 164.935 278.582 164.127 281.256 165.797C283.935 167.471 284.749 171 283.075 173.679Z" fill="#191847"/>
<path fill-rule="evenodd" clip-rule="evenodd" d="M193.192 298.047C193.192 298.047 213.773 303.803 228.706 303.803C243.639 303.803 256.447 294.938 256.447 294.938C256.447 294.938 236.306 289.029 223.273 289.029C210.24 289.029 193.192 298.047 193.192 298.047Z" fill="#1F28CF"/>
<path fill-rule="evenodd" clip-rule="evenodd" d="M240.585 309.335C240.452 309.136 240.341 308.92 240.252 308.686C238.418 303.835 209.04 251.51 206.114 241.943H239.189C241.414 249.217 251.429 294.862 252.839 303.969C257.286 318.334 266.442 364.857 267.611 368.08C268.841 371.47 261.922 375.002 260.078 370.834C257.145 364.202 250.155 345.85 247.042 334.645C244.124 324.14 241.749 314.689 240.585 309.335Z" fill="#997659"/>
<path fill-rule="evenodd" clip-rule="evenodd" d="M213.525 315.724C200.094 319.118 150.967 325.255 147.595 326.218C144.127 327.208 141.086 320.059 145.373 318.511C152.194 316.047 170.988 310.354 182.384 308.031C191.549 306.162 199.913 304.638 205.528 303.745C205.052 287.972 202.878 250.119 204.303 241.943H233.568C232.201 249.783 220.647 306.986 218.5 312.712C217.818 314.757 215.785 315.66 213.525 315.724V315.724Z" fill="#B28B67"/>
<path fill-rule="evenodd" clip-rule="evenodd" d="M146.386 318.967C146.617 317.819 145.933 316.643 144.774 316.473C143.7 316.316 142.475 316.199 141.742 316.328C140.218 316.597 137.384 317.62 137.384 317.62C137.696 319.387 142.986 349.39 142.986 349.39C142.986 349.39 147.299 349.906 147.155 347.181C147.011 344.455 146.963 342.644 146.963 342.644L150.835 327.144C150.972 326.597 150.63 326.046 150.08 325.925L148.04 325.476C148.04 325.476 146.452 323.209 146.18 321.665C146.056 320.964 146.196 319.91 146.386 318.967Z" fill="#363636"/>
<path fill-rule="evenodd" clip-rule="evenodd" d="M260.424 370.013C259.334 369.587 258.057 370.056 257.689 371.168C257.348 372.198 257.019 373.384 257.019 374.129C257.019 375.676 257.535 378.644 257.535 378.644C259.329 378.644 289.795 378.644 289.795 378.644C289.795 378.644 291.052 374.487 288.343 374.155C285.634 373.824 283.842 373.557 283.842 373.557L269.25 367.052C268.735 366.822 268.133 367.063 267.918 367.584L267.122 369.515C267.122 369.515 264.614 370.685 263.046 370.685C262.334 370.685 261.32 370.364 260.424 370.013Z" fill="#363636"/>
<path fill-rule="evenodd" clip-rule="evenodd" d="M204.398 241.943C204.398 241.943 223.742 236.409 241.004 241.943C245.008 260.21 254.736 267.461 256.447 295.467C237 305.13 212.977 288.576 192.958 297.999C187.239 284.818 195.246 253.076 204.398 241.943Z" fill="#2B44FF"/>
<path fill-rule="evenodd" clip-rule="evenodd" d="M278.622 274.564L269.16 254.001L260.799 260.766L272.969 276.078C274.528 283.805 275.814 287.378 276.827 286.799C277.681 286.31 277.714 285.428 277.744 284.615C277.768 283.982 277.79 283.392 278.198 283.062C279.128 282.309 282.074 284.076 284.797 285.871C287.52 287.667 287.393 285.942 287.054 284.936C285.113 281.589 282.303 278.131 278.622 274.564ZM181.231 261.778C184.015 259.204 201.221 230.31 201.221 230.31L212.363 234.637C212.363 234.637 189.22 264.033 187.613 265.758C185.525 267.999 185.864 272.55 186.093 275.636C186.129 276.113 186.162 276.555 186.183 276.949C184.179 277.057 183.712 275.817 183.221 274.509C182.665 273.033 182.077 271.47 179.206 271.668C178.096 271.745 177.007 271.92 175.942 272.092C172.265 272.686 168.887 273.231 166.02 269.471C165.565 268.874 165.444 267.24 167.436 266.764C172.399 265.578 179.871 263.037 181.231 261.778Z" fill="#B28B67"/>
<path fill-rule="evenodd" clip-rule="evenodd" d="M250.906 195.659L255.827 196.639C256.154 219.55 263.107 242.922 276.685 266.755L254.736 279.195C243.8 248.483 240.744 219.954 250.906 195.659Z" fill="#191847"/>
<path fill-rule="evenodd" clip-rule="evenodd" d="M208.503 245.959L249.62 261.742C249.62 261.742 248.667 221.515 257.989 197.231L246.295 190.622C230.53 202.557 220.368 220.802 208.503 245.959Z" fill="#DDE3E9"/>
<path fill-rule="evenodd" clip-rule="evenodd" d="M183.05 256.406C207.02 207.401 246.023 190.517 246.023 190.517L246.03 190.53C246.032 190.528 246.035 190.525 246.038 190.523L246.847 190.834C248.281 191.442 251.205 192.713 251.205 192.713L250.914 202.428C245.377 218.274 232.234 267.692 232.234 267.692L205.321 257.361C204.531 259.555 203.785 261.801 203.09 264.099L183.05 256.406Z" fill="#2F3676"/>
<path fill-rule="evenodd" clip-rule="evenodd" d="M205.245 257.574C208.668 248.013 212.925 239.437 217.419 231.921C214.484 241.76 211.604 253.847 212.742 260.452L205.245 257.574Z" fill="black" fill-opacity="0.1"/>
<path fill-rule="evenodd" clip-rule="evenodd" d="M217.554 243.306L233.216 242.23L230.844 248.408L217.554 243.306Z" fill="white" fill-opacity="0.2"/>
<path fill-rule="evenodd" clip-rule="evenodd" d="M359.603 190.45C356.444 193.404 353.109 195.215 351.346 195.14C346.927 194.95 343.283 179.704 345.241 172.972C347.199 166.24 363.305 160.063 366.69 171.858C367.865 175.951 366.909 180.03 364.974 183.604L374.176 204.167L360.749 207.021L359.603 190.45Z" fill="#B28B67"/>
<path fill-rule="evenodd" clip-rule="evenodd" d="M366.579 186.08C366.67 178.225 370.385 172.093 368.939 168.898C367.494 165.703 364.145 165.561 364.145 165.561C364.145 165.561 361.091 159.266 352.35 162.161C343.61 165.056 338.937 169.934 343.035 177.612C345.204 177.151 347.655 175.81 351.561 176.385C353.42 176.658 354.869 179.827 354.869 179.827L356.505 179.48C356.505 179.48 358.048 175.025 360.585 175.579C363.123 176.134 362.718 180.44 362.718 180.44L364.838 186.45L366.579 186.08Z" fill="#191847"/>
<path fill-rule="evenodd" clip-rule="evenodd" d="M404.015 241.943L361.514 312.997L329.65 373.068H322.787L376.175 241.943L404.015 241.943Z" fill="#997659"/>
<path fill-rule="evenodd" clip-rule="evenodd" d="M331.401 370.013C332.492 369.587 333.769 370.056 334.137 371.168C334.478 372.198 334.807 373.384 334.807 374.129C334.807 375.676 334.291 378.644 334.291 378.644C332.496 378.644 302.031 378.644 302.031 378.644C302.031 378.644 300.774 374.487 303.483 374.155C306.192 373.824 307.984 373.557 307.984 373.557L322.576 367.052C323.091 366.822 323.693 367.063 323.908 367.584L324.704 369.515C324.704 369.515 327.212 370.685 328.78 370.685C329.491 370.685 330.506 370.364 331.401 370.013Z" fill="#730000"/>
<path fill-rule="evenodd" clip-rule="evenodd" d="M338.5 363.449L325.264 359.445C325.264 359.445 333.963 333.442 346.586 302.214C359.21 270.987 373.701 241.943 373.701 241.943H411.082C411.082 241.943 394.972 278.682 376.923 308.707C358.875 338.731 338.5 363.449 338.5 363.449Z" fill="#DB2721"/>
<path fill-rule="evenodd" clip-rule="evenodd" d="M406.808 241.943C410.819 266.912 418.556 298.813 419.286 299.797C419.773 300.454 437.296 306.326 471.856 317.413L470.374 323.465C429.161 317.519 407.446 312.905 405.227 309.625C401.9 304.704 385.284 265.831 378.848 241.943H406.808Z" fill="#B28B67"/>
<path fill-rule="evenodd" clip-rule="evenodd" d="M459.708 312.182L457.097 321.929C426.272 324.632 407.385 322.679 400.436 316.068C393.487 309.458 385.566 284.75 376.676 241.943H412.321C417.954 276.996 421.103 295.258 421.769 296.729C422.434 298.201 435.081 303.352 459.708 312.182Z" fill="#FF4133"/>
<path fill-rule="evenodd" clip-rule="evenodd" d="M469.463 317.251C469.232 316.103 469.916 314.927 471.074 314.758C472.148 314.601 473.374 314.483 474.107 314.612C475.63 314.881 478.464 315.904 478.464 315.904C478.152 317.671 472.862 347.674 472.862 347.674C472.862 347.674 468.55 348.19 468.694 345.465C468.838 342.739 468.886 340.928 468.886 340.928L465.013 325.428C464.877 324.881 465.218 324.33 465.769 324.209L467.808 323.76C467.808 323.76 469.396 321.494 469.669 319.949C469.792 319.249 469.652 318.194 469.463 317.251Z" fill="#730000"/>
<path fill-rule="evenodd" clip-rule="evenodd" d="M319.572 245.891L341.759 240.673L341.602 251.571L321.891 251.356C314.797 254.914 311.164 256.107 310.993 254.936C310.849 253.949 311.527 253.374 312.152 252.844C312.639 252.431 313.094 252.046 313.101 251.515C313.119 250.303 309.885 249.044 306.767 247.982C303.649 246.919 305.095 245.948 306.103 245.594C309.964 245.065 314.454 245.164 319.572 245.891ZM442.02 258.305C439.237 255.731 409.862 220.13 409.862 220.13L398.186 224.663C398.186 224.663 434.031 260.56 435.639 262.285C437.727 264.526 437.388 269.076 437.158 272.162C437.123 272.64 437.09 273.082 437.069 273.475C439.073 273.584 439.539 272.344 440.031 271.036C440.587 269.559 441.174 267.996 444.046 268.195C445.156 268.271 446.245 268.447 447.31 268.619C450.987 269.212 454.365 269.757 457.232 265.997C457.686 265.401 457.808 263.767 455.816 263.291C450.853 262.105 443.381 259.563 442.02 258.305Z" fill="#997659"/>
<path fill-rule="evenodd" clip-rule="evenodd" d="M363.598 195.34L354.677 199.464C360.253 220.728 352.917 238.327 323.746 244.52L330.177 272.191C357.152 265.647 375.741 246.706 369.667 217.074C368.094 209.404 366.157 201.536 363.598 195.34Z" fill="#AFB9C5"/>
<path fill-rule="evenodd" clip-rule="evenodd" d="M438.386 253.63C419.047 222.25 395.587 201.235 368.006 190.585L367.127 190.922L367.097 190.933L367.093 190.945L354.442 199.446C360.838 216.108 361.91 229.981 362.941 243.319C363.386 249.079 363.823 254.738 364.678 260.48L402.14 246.1C404.995 251.958 407.71 258.064 410.335 264.397L438.386 253.63Z" fill="#C5CFD6"/>
<path fill-rule="evenodd" clip-rule="evenodd" d="M402.14 246.1C396.329 234.172 389.942 223.268 382.57 213.543C387.757 224.978 393.523 239.42 394.526 249.023L402.14 246.1Z" fill="black" fill-opacity="0.1"/>
<path d="M66 13L67.7961 18.5279H73.6085L68.9062 21.9443L70.7023 27.4721L66 24.0557L61.2977 27.4721L63.0938 21.9443L58.3915 18.5279H64.2039L66 13Z" fill="#FFFCFC"/>
<path d="M427 21L428.796 26.5279H434.608L429.906 29.9443L431.702 35.4721L427 32.0557L422.298 35.4721L424.094 29.9443L419.392 26.5279H425.204L427 21Z" fill="#FFFCFC"/>
<path d="M229 53L230.796 58.5279H236.608L231.906 61.9443L233.702 67.4721L229 64.0557L224.298 67.4721L226.094 61.9443L221.392 58.5279H227.204L229 53Z" fill="#FFFCFC"/>
<path d="M434 92L435.796 97.5279H441.608L436.906 100.944L438.702 106.472L434 103.056L429.298 106.472L431.094 100.944L426.392 97.5279H432.204L434 92Z" fill="#FFFCFC"/>
<path d="M323 21L324.796 26.5279H330.608L325.906 29.9443L327.702 35.4721L323 32.0557L318.298 35.4721L320.094 29.9443L315.392 26.5279H321.204L323 21Z" fill="#FFFCFC"/>
<path d="M100 76L101.796 81.5279H107.608L102.906 84.9443L104.702 90.4721L100 87.0557L95.2977 90.4721L97.0938 84.9443L92.3915 81.5279H98.2039L100 76Z" fill="#FFFCFC"/>
<g opacity="0.5">
<path fill-rule="evenodd" clip-rule="evenodd" d="M29.8232 376.272C30.3613 375.505 31.36 373.556 32.1174 373.282C32.6053 373.105 32.463 374.932 32.4691 375.28C32.4925 376.628 32.3613 377.967 32.1993 379.303C31.9074 381.713 30.9529 383.86 29.6438 385.911C28.9701 386.967 28.18 388.035 27.0856 388.693C26.5818 388.997 25.9757 389.047 25.4782 389.309C24.8988 389.613 25.2143 389.367 24.9532 389.971C24.5906 390.809 24.4746 391.89 24.3069 392.785C23.5365 396.891 21.6715 418.596 21.9949 422.772C22.0236 423.142 21.5074 423.231 21.4816 422.779C21.3447 420.383 22.5298 403.789 23.1277 398.363C23.7257 392.936 24.3308 388.142 24.9375 386.264C25.6735 383.987 27.0028 381.247 28.1094 379.123C28.6234 378.137 29.1836 377.184 29.8232 376.272Z" fill="#69A1AC"/>
<path fill-rule="evenodd" clip-rule="evenodd" d="M33.8176 402.886C35.2179 401.858 36.7337 403.799 35.4665 404.827C34.766 405.395 34.0336 405.193 33.6213 404.719C33.3537 405.046 33.1032 405.387 32.8625 405.675C32.1291 406.553 31.436 407.452 30.7735 408.372C29.3974 410.283 28.2181 412.302 26.9851 414.284C25.7682 416.24 24.5611 418.206 23.4581 420.212C22.5238 421.911 21.2784 423.911 20.9585 425.774C21.4439 421.823 23.2856 418.025 25.4788 414.542C27.6541 411.087 30.1506 407.314 33.5188 404.588C33.176 404.084 33.1665 403.364 33.8176 402.886Z" fill="#C1DEE2"/>
<path fill-rule="evenodd" clip-rule="evenodd" d="M7.245 393.251C8.02864 393.404 9.30908 395.177 9.95503 395.852C10.7227 396.655 11.4192 397.51 12.0757 398.407C13.489 400.336 14.7529 402.387 15.8277 404.527C17.5799 408.014 18.9836 411.594 20.0024 415.391C20.626 417.715 21.0297 420.125 21.269 422.517C21.3142 422.968 21.7873 426.447 21.1056 426.541C20.4926 426.625 20.6819 423.899 20.6523 423.529C20.318 419.345 19.3165 415.275 17.9234 411.333C17.6199 410.474 17.338 409.422 16.8527 408.649C16.5033 408.092 16.8502 408.286 16.2361 408.075C15.7087 407.894 15.1079 407.939 14.5679 407.717C13.3948 407.236 12.4554 406.302 11.6321 405.363C10.0319 403.537 8.7639 401.562 8.10294 399.222C7.73628 397.925 7.39934 396.621 7.21236 395.283C7.16399 394.938 6.74027 393.152 7.245 393.251Z" fill="#69A1AC"/>
<path fill-rule="evenodd" clip-rule="evenodd" d="M10.3373 363.756C13.2891 368.876 15.7148 374.499 17.281 380.194C18.23 383.645 18.8936 387.186 19.553 390.702C20.5739 396.145 21.5396 401.588 21.8143 407.128C22.0907 412.7 22.6371 419.127 20.8126 424.493C21.724 419.045 20.8563 413.245 20.7026 407.762C20.6292 405.145 20.4165 402.553 20.1374 399.951C19.8666 397.427 19.4241 394.915 19.0121 392.411C18.8114 391.191 18.6006 389.974 18.386 388.756C18.3219 388.393 18.2948 387.316 18.0645 387.068C17.8327 386.818 16.6498 386.716 16.2784 386.533C15.5306 386.164 14.8272 385.64 14.2047 385.086C13.0113 384.024 11.9731 382.637 11.1536 381.27C9.25769 378.105 8.49969 374.244 8.538 370.579C8.54536 369.868 9.6896 362.206 9.23005 362.101C9.25772 362.068 9.28389 362.035 9.30857 362C9.65649 362.583 9.99789 363.169 10.3373 363.756Z" fill="#89C5CC"/>
<path fill-rule="evenodd" clip-rule="evenodd" d="M42.1969 382.219C42.2425 382.154 42.5389 381.697 42.3896 381.726C42.6935 381.667 41.9716 382.23 42.7289 381.884C42.3693 382.224 42.5768 382.665 42.5816 383.122C42.5894 383.864 42.4653 384.6 42.3255 385.326C42.1047 386.474 41.7757 387.59 41.2982 388.657C40.2575 390.984 38.4902 393.223 36.3922 394.678C35.3565 395.396 34.3414 395.64 33.1601 395.971C32.414 396.18 32.3548 396.566 31.9588 397.29C31.1342 398.798 30.3244 400.3 29.5972 401.859C28.7289 403.721 27.886 405.584 27.0909 407.479C24.4123 413.859 22.2322 420.47 21.0873 427.311C21.0593 423.28 21.9919 419.127 23.1683 415.285C24.0253 412.485 25.1408 409.786 26.3307 407.115C26.6191 406.467 27.056 405.635 27.1784 404.92C27.2642 404.42 27.0021 403.938 26.882 403.411C26.4142 401.357 26.4477 399.056 26.8585 396.992C27.3115 394.715 28.6216 393.658 30.8378 393.336C31.6483 393.218 32.6785 393.261 33.4217 392.915C34.2314 392.539 34.5654 391.302 35.0259 390.508C36.2625 388.375 37.7319 386.329 39.4191 384.532C39.8863 384.034 40.3887 383.575 40.9217 383.15C41.2578 382.881 41.9679 382.55 42.1969 382.219Z" fill="#89C5CC"/>
<path fill-rule="evenodd" clip-rule="evenodd" d="M16.8654 424.726C16.7279 423.794 17.4504 422.957 18.3927 422.957H24.1647C25.107 422.957 25.8295 423.794 25.692 424.726L25.4446 426.404C25.1399 428.47 23.367 430 21.2787 430V430C19.1903 430 17.4175 428.47 17.1128 426.404L16.8654 424.726Z" fill="#C1DEE2"/>
</g>
<g opacity="0.5">
<path fill-rule="evenodd" clip-rule="evenodd" d="M108.301 428.901C109.039 428.1 110.408 426.065 111.447 425.779C112.116 425.595 111.921 427.502 111.929 427.866C111.961 429.273 111.782 430.671 111.559 432.067C111.159 434.583 109.85 436.824 108.055 438.966C107.131 440.068 106.047 441.183 104.546 441.871C103.855 442.188 103.024 442.241 102.342 442.513C101.547 442.831 101.98 442.574 101.622 443.205C101.124 444.08 100.965 445.209 100.735 446.143C99.6788 450.43 97.1211 473.093 97.5645 477.453C97.6039 477.84 96.896 477.932 96.8607 477.46C96.6728 474.958 98.2982 457.633 99.1182 451.967C99.9383 446.301 100.768 441.295 101.6 439.335C102.61 436.956 104.433 434.096 105.95 431.879C106.655 430.848 107.424 429.853 108.301 428.901Z" fill="#69A1AC"/>
<path fill-rule="evenodd" clip-rule="evenodd" d="M113.779 456.69C115.699 455.617 117.778 457.643 116.04 458.716C115.079 459.31 114.075 459.099 113.51 458.604C113.143 458.945 112.799 459.301 112.469 459.602C111.463 460.519 110.513 461.457 109.604 462.418C107.717 464.413 106.099 466.521 104.408 468.591C102.74 470.633 101.084 472.686 99.5714 474.78C98.29 476.555 96.582 478.642 96.1433 480.587C96.809 476.462 99.3348 472.497 102.343 468.86C105.326 465.253 108.75 461.313 113.369 458.467C112.899 457.94 112.886 457.189 113.779 456.69Z" fill="#C1DEE2"/>
<path fill-rule="evenodd" clip-rule="evenodd" d="M77.336 446.63C78.4107 446.79 80.1668 448.641 81.0527 449.346C82.1055 450.184 83.0606 451.077 83.961 452.013C85.8992 454.028 87.6327 456.17 89.1067 458.403C91.5097 462.044 93.4348 465.782 94.832 469.747C95.6872 472.174 96.241 474.689 96.5691 477.187C96.6311 477.659 97.2799 481.291 96.3451 481.389C95.5043 481.477 95.764 478.631 95.7234 478.243C95.2649 473.876 93.8913 469.626 91.9807 465.509C91.5646 464.613 91.178 463.514 90.5124 462.707C90.0332 462.126 90.509 462.328 89.6667 462.109C88.9435 461.919 88.1195 461.966 87.3789 461.734C85.7701 461.232 84.4818 460.257 83.3526 459.276C81.1581 457.37 79.4191 455.308 78.5126 452.865C78.0098 451.511 77.5477 450.148 77.2912 448.752C77.2249 448.391 76.6438 446.527 77.336 446.63Z" fill="#69A1AC"/>
<path fill-rule="evenodd" clip-rule="evenodd" d="M81.577 415.834C85.6252 421.179 88.9518 427.05 91.0999 432.997C92.4013 436.6 93.3115 440.297 94.2158 443.968C95.6159 449.651 96.9403 455.334 97.317 461.119C97.696 466.937 98.4455 473.647 95.9432 479.25C97.1931 473.561 96.0031 467.506 95.7924 461.781C95.6917 459.048 95.3999 456.342 95.0172 453.626C94.6458 450.99 94.039 448.367 93.4739 445.753C93.1986 444.479 92.9096 443.208 92.6152 441.937C92.5274 441.558 92.4902 440.433 92.1743 440.174C91.8564 439.913 90.2342 439.807 89.7249 439.615C88.6993 439.23 87.7346 438.683 86.8808 438.105C85.2442 436.996 83.8203 435.548 82.6965 434.12C80.0963 430.816 79.0568 426.784 79.1093 422.958C79.1194 422.215 80.6887 414.215 80.0584 414.105C80.0964 414.071 80.1323 414.036 80.1661 414C80.6433 414.608 81.1115 415.221 81.577 415.834Z" fill="#89C5CC"/>
<path fill-rule="evenodd" clip-rule="evenodd" d="M125.271 435.112C125.333 435.043 125.74 434.566 125.535 434.596C125.952 434.534 124.962 435.123 126 434.762C125.507 435.116 125.792 435.577 125.798 436.054C125.809 436.829 125.639 437.597 125.447 438.355C125.144 439.554 124.693 440.719 124.038 441.833C122.611 444.262 120.187 446.601 117.31 448.119C115.889 448.869 114.497 449.125 112.877 449.47C111.854 449.688 111.773 450.091 111.23 450.847C110.099 452.421 108.988 453.99 107.991 455.618C106.8 457.562 105.644 459.507 104.554 461.485C100.88 468.147 97.8901 475.049 96.3199 482.193C96.2815 477.983 97.5605 473.648 99.1739 469.636C100.349 466.712 101.879 463.894 103.511 461.105C103.906 460.429 104.506 459.56 104.674 458.814C104.791 458.291 104.432 457.789 104.267 457.238C103.625 455.094 103.671 452.691 104.235 450.535C104.856 448.158 106.653 447.055 109.692 446.718C110.804 446.595 112.217 446.64 113.236 446.279C114.346 445.886 114.804 444.595 115.436 443.766C117.132 441.538 119.147 439.403 121.461 437.526C122.102 437.006 122.791 436.527 123.522 436.083C123.983 435.802 124.956 435.457 125.271 435.112Z" fill="#89C5CC"/>
<path fill-rule="evenodd" clip-rule="evenodd" d="M90.5549 479.622C90.3564 478.598 91.1412 477.646 92.1848 477.646H100.98C102.024 477.646 102.809 478.598 102.61 479.622L102.517 480.106C101.966 482.948 99.4775 485.001 96.5825 485.001V485.001C93.6875 485.001 91.199 482.948 90.6485 480.106L90.5549 479.622Z" fill="#C1DEE2"/>
</g>
<g opacity="0.5">
<path fill-rule="evenodd" clip-rule="evenodd" d="M287.688 429.259C288.577 428.277 290.226 425.784 291.477 425.433C292.283 425.207 292.048 427.545 292.058 427.99C292.096 429.715 291.88 431.428 291.612 433.138C291.13 436.221 289.554 438.967 287.392 441.592C286.28 442.942 284.975 444.309 283.168 445.151C282.336 445.539 281.335 445.604 280.513 445.939C279.557 446.328 280.078 446.013 279.647 446.786C279.048 447.858 278.856 449.242 278.579 450.386C277.307 455.639 274.227 483.409 274.761 488.752C274.809 489.226 273.956 489.339 273.914 488.761C273.688 485.695 275.645 464.465 276.632 457.522C277.619 450.579 278.619 444.446 279.62 442.044C280.836 439.129 283.031 435.625 284.858 432.907C285.707 431.645 286.632 430.426 287.688 429.259Z" fill="#69A1AC"/>
<path fill-rule="evenodd" clip-rule="evenodd" d="M294.285 463.311C296.597 461.995 299.1 464.478 297.007 465.793C295.851 466.52 294.641 466.262 293.961 465.656C293.519 466.073 293.105 466.51 292.707 466.878C291.496 468.002 290.352 469.152 289.258 470.329C286.985 472.774 285.038 475.357 283.002 477.893C280.992 480.395 278.999 482.911 277.178 485.477C275.635 487.652 273.578 490.209 273.05 492.593C273.852 487.538 276.893 482.679 280.514 478.222C284.107 473.803 288.229 468.976 293.791 465.487C293.225 464.842 293.209 463.922 294.285 463.311Z" fill="#C1DEE2"/>
<path fill-rule="evenodd" clip-rule="evenodd" d="M250.405 450.984C251.699 451.18 253.813 453.448 254.88 454.312C256.147 455.339 257.297 456.433 258.382 457.58C260.715 460.048 262.803 462.673 264.577 465.41C267.471 469.871 269.789 474.451 271.471 479.31C272.501 482.284 273.168 485.366 273.563 488.427C273.637 489.004 274.419 493.455 273.293 493.575C272.281 493.683 272.593 490.195 272.544 489.721C271.992 484.369 270.339 479.162 268.038 474.117C267.537 473.018 267.071 471.672 266.27 470.684C265.693 469.971 266.266 470.22 265.252 469.95C264.381 469.718 263.389 469.775 262.497 469.492C260.56 468.876 259.009 467.681 257.649 466.479C255.007 464.143 252.913 461.616 251.821 458.623C251.216 456.964 250.659 455.295 250.351 453.584C250.271 453.142 249.571 450.857 250.405 450.984Z" fill="#69A1AC"/>
<path fill-rule="evenodd" clip-rule="evenodd" d="M255.511 413.247C260.385 419.797 264.391 426.991 266.977 434.278C268.544 438.693 269.64 443.224 270.729 447.721C272.415 454.685 274.01 461.649 274.463 468.737C274.92 475.866 275.822 484.088 272.809 490.955C274.314 483.984 272.881 476.563 272.628 469.549C272.506 466.2 272.155 462.884 271.694 459.555C271.247 456.326 270.516 453.112 269.836 449.908C269.505 448.348 269.156 446.79 268.802 445.233C268.696 444.768 268.652 443.389 268.271 443.072C267.888 442.752 265.935 442.622 265.322 442.388C264.087 441.916 262.925 441.245 261.897 440.536C259.927 439.178 258.212 437.403 256.859 435.654C253.728 431.605 252.477 426.665 252.54 421.976C252.552 421.066 254.442 411.264 253.683 411.129C253.728 411.087 253.772 411.045 253.812 411C254.387 411.745 254.951 412.496 255.511 413.247Z" fill="#89C5CC"/>
<path fill-rule="evenodd" clip-rule="evenodd" d="M308.122 436.869C308.197 436.785 308.686 436.201 308.44 436.238C308.942 436.162 307.75 436.883 309 436.441C308.406 436.875 308.749 437.439 308.757 438.024C308.77 438.973 308.565 439.915 308.334 440.844C307.969 442.312 307.426 443.74 306.638 445.106C304.919 448.082 302.001 450.948 298.536 452.809C296.826 453.727 295.15 454.04 293.199 454.463C291.967 454.73 291.869 455.224 291.215 456.15C289.854 458.08 288.516 460.002 287.315 461.997C285.882 464.378 284.49 466.763 283.177 469.186C278.753 477.35 275.153 485.807 273.263 494.56C273.216 489.402 274.757 484.09 276.699 479.173C278.114 475.591 279.956 472.138 281.921 468.721C282.397 467.892 283.119 466.827 283.321 465.913C283.463 465.273 283.03 464.657 282.832 463.982C282.059 461.354 282.114 458.41 282.793 455.769C283.541 452.856 285.704 451.504 289.364 451.091C290.702 450.94 292.404 450.996 293.631 450.554C294.968 450.072 295.52 448.489 296.28 447.474C298.322 444.745 300.748 442.127 303.535 439.828C304.306 439.191 305.136 438.604 306.016 438.059C306.571 437.716 307.743 437.293 308.122 436.869Z" fill="#89C5CC"/>
<path fill-rule="evenodd" clip-rule="evenodd" d="M266.319 491.399C266.081 490.148 267.04 488.989 268.313 488.989H278.845C280.118 488.989 281.077 490.148 280.839 491.399L280.705 492.103C280.054 495.525 277.062 498.001 273.579 498.001V498.001C270.096 498.001 267.104 495.525 266.453 492.103L266.319 491.399Z" fill="#C1DEE2"/>
</g>
<g opacity="0.5">
<path fill-rule="evenodd" clip-rule="evenodd" d="M417.578 405.481C418.346 404.702 419.772 402.725 420.853 402.447C421.549 402.268 421.346 404.121 421.355 404.475C421.388 405.842 421.201 407.201 420.97 408.557C420.553 411.003 419.191 413.181 417.322 415.262C416.361 416.333 415.233 417.417 413.671 418.085C412.951 418.393 412.086 418.445 411.376 418.71C410.549 419.018 410.999 418.769 410.627 419.381C410.109 420.232 409.944 421.329 409.704 422.237C408.605 426.403 405.942 448.427 406.404 452.665C406.445 453.041 405.708 453.131 405.671 452.672C405.476 450.241 407.168 433.403 408.021 427.897C408.875 422.39 409.738 417.526 410.604 415.62C411.655 413.309 413.552 410.53 415.132 408.374C415.866 407.373 416.665 406.406 417.578 405.481Z" fill="#69A1AC"/>
<path fill-rule="evenodd" clip-rule="evenodd" d="M423.28 432.487C425.279 431.444 427.442 433.413 425.634 434.456C424.634 435.033 423.588 434.828 423 434.347C422.618 434.678 422.26 435.025 421.917 435.317C420.87 436.208 419.88 437.12 418.935 438.053C416.971 439.993 415.287 442.041 413.527 444.052C411.79 446.037 410.067 448.033 408.493 450.068C407.159 451.792 405.381 453.821 404.925 455.711C405.617 451.702 408.246 447.848 411.377 444.314C414.482 440.808 418.046 436.98 422.853 434.214C422.364 433.702 422.351 432.972 423.28 432.487Z" fill="#C1DEE2"/>
<path fill-rule="evenodd" clip-rule="evenodd" d="M385.35 422.711C386.468 422.867 388.296 424.665 389.218 425.351C390.314 426.165 391.308 427.033 392.245 427.943C394.262 429.9 396.067 431.982 397.601 434.152C400.102 437.691 402.106 441.323 403.56 445.177C404.45 447.535 405.026 449.98 405.368 452.408C405.432 452.865 406.108 456.395 405.135 456.49C404.26 456.576 404.53 453.81 404.488 453.434C404.01 449.189 402.581 445.059 400.592 441.058C400.159 440.187 399.757 439.119 399.064 438.335C398.565 437.77 399.06 437.967 398.184 437.753C397.431 437.57 396.573 437.615 395.803 437.39C394.128 436.902 392.787 435.954 391.612 435.001C389.328 433.148 387.518 431.144 386.574 428.77C386.051 427.454 385.57 426.13 385.303 424.773C385.234 424.423 384.629 422.611 385.35 422.711Z" fill="#69A1AC"/>
<path fill-rule="evenodd" clip-rule="evenodd" d="M389.764 392.782C393.977 397.977 397.44 403.683 399.675 409.462C401.03 412.963 401.977 416.557 402.919 420.124C404.376 425.647 405.754 431.17 406.146 436.791C406.541 442.446 407.321 448.967 404.717 454.412C406.017 448.884 404.779 442.999 404.56 437.435C404.455 434.78 404.151 432.15 403.753 429.509C403.366 426.948 402.735 424.399 402.146 421.858C401.86 420.621 401.559 419.385 401.253 418.15C401.161 417.782 401.123 416.688 400.794 416.436C400.463 416.183 398.774 416.08 398.244 415.894C397.177 415.519 396.173 414.988 395.284 414.426C393.581 413.348 392.099 411.941 390.929 410.553C388.223 407.342 387.141 403.424 387.196 399.705C387.206 398.984 388.839 391.209 388.183 391.102C388.223 391.069 388.26 391.035 388.296 391C388.792 391.591 389.279 392.186 389.764 392.782Z" fill="#89C5CC"/>
<path fill-rule="evenodd" clip-rule="evenodd" d="M435.241 411.517C435.306 411.45 435.729 410.987 435.516 411.016C435.95 410.956 434.919 411.528 436 411.177C435.487 411.521 435.783 411.969 435.79 412.433C435.801 413.186 435.624 413.932 435.424 414.669C435.109 415.834 434.639 416.966 433.958 418.049C432.472 420.41 429.95 422.682 426.955 424.158C425.477 424.887 424.028 425.135 422.341 425.471C421.276 425.682 421.192 426.074 420.627 426.809C419.45 428.339 418.294 429.864 417.256 431.446C416.016 433.334 414.813 435.225 413.678 437.147C409.855 443.622 406.743 450.33 405.108 457.272C405.068 453.181 406.4 448.968 408.079 445.068C409.302 442.228 410.895 439.489 412.593 436.778C413.005 436.121 413.628 435.277 413.803 434.552C413.925 434.044 413.551 433.555 413.38 433.02C412.712 430.936 412.76 428.601 413.346 426.506C413.993 424.196 415.863 423.124 419.027 422.796C420.183 422.677 421.654 422.721 422.715 422.37C423.871 421.988 424.347 420.733 425.005 419.927C426.77 417.763 428.867 415.687 431.276 413.863C431.942 413.358 432.66 412.892 433.42 412.461C433.9 412.188 434.914 411.852 435.241 411.517Z" fill="#89C5CC"/>
<path fill-rule="evenodd" clip-rule="evenodd" d="M399.116 454.812C398.906 453.801 399.678 452.854 400.71 452.854H410.054C411.086 452.854 411.857 453.801 411.647 454.812L411.625 454.919C411.011 457.879 408.404 460 405.382 460V460C402.359 460 399.752 457.879 399.138 454.919L399.116 454.812Z" fill="#C1DEE2"/>
</g>
<g opacity="0.5">
<path fill-rule="evenodd" clip-rule="evenodd" d="M177.886 413.024C178.308 412.539 179.09 411.307 179.684 411.134C180.066 411.022 179.955 412.177 179.96 412.397C179.978 413.25 179.875 414.096 179.748 414.941C179.519 416.465 178.771 417.823 177.745 419.12C177.217 419.787 176.598 420.463 175.741 420.879C175.346 421.071 174.871 421.103 174.481 421.268C174.027 421.461 174.274 421.305 174.07 421.687C173.785 422.217 173.694 422.901 173.563 423.467C172.959 426.063 171.498 439.788 171.751 442.429C171.774 442.663 171.369 442.719 171.349 442.433C171.242 440.918 172.17 430.425 172.639 426.994C173.108 423.562 173.582 420.53 174.057 419.343C174.634 417.903 175.676 416.171 176.543 414.828C176.946 414.204 177.385 413.601 177.886 413.024Z" fill="#69A1AC"/>
<path fill-rule="evenodd" clip-rule="evenodd" d="M181.016 429.854C182.114 429.204 183.302 430.431 182.309 431.081C181.76 431.441 181.186 431.313 180.863 431.013C180.653 431.22 180.457 431.435 180.268 431.618C179.693 432.173 179.15 432.741 178.631 433.323C177.552 434.531 176.628 435.808 175.662 437.062C174.708 438.299 173.762 439.542 172.898 440.81C172.166 441.885 171.19 443.149 170.939 444.327C171.319 441.829 172.763 439.427 174.481 437.225C176.186 435.04 178.143 432.654 180.782 430.93C180.514 430.611 180.506 430.156 181.016 429.854Z" fill="#C1DEE2"/>
<path fill-rule="evenodd" clip-rule="evenodd" d="M160.192 423.761C160.806 423.858 161.81 424.979 162.316 425.406C162.917 425.914 163.463 426.455 163.978 427.022C165.085 428.242 166.076 429.539 166.918 430.891C168.291 433.097 169.391 435.36 170.19 437.762C170.678 439.231 170.995 440.755 171.182 442.268C171.218 442.553 171.589 444.753 171.054 444.812C170.574 444.866 170.722 443.142 170.699 442.907C170.437 440.262 169.652 437.688 168.56 435.195C168.323 434.652 168.102 433.987 167.721 433.498C167.448 433.146 167.719 433.269 167.238 433.136C166.825 433.021 166.354 433.049 165.931 432.909C165.011 432.605 164.275 432.014 163.63 431.42C162.376 430.266 161.382 429.017 160.864 427.537C160.577 426.717 160.313 425.892 160.166 425.047C160.129 424.828 159.796 423.699 160.192 423.761Z" fill="#69A1AC"/>
<path fill-rule="evenodd" clip-rule="evenodd" d="M162.615 405.111C164.929 408.348 166.829 411.904 168.057 415.505C168.801 417.687 169.321 419.927 169.837 422.15C170.638 425.592 171.394 429.033 171.61 432.537C171.826 436.06 172.254 440.124 170.825 443.518C171.539 440.072 170.859 436.405 170.738 432.938C170.681 431.283 170.514 429.644 170.295 427.999C170.083 426.403 169.736 424.814 169.414 423.23C169.256 422.459 169.091 421.689 168.923 420.92C168.873 420.69 168.851 420.009 168.671 419.852C168.489 419.694 167.562 419.629 167.271 419.514C166.685 419.28 166.134 418.949 165.646 418.599C164.711 417.927 163.897 417.05 163.255 416.185C161.769 414.184 161.175 411.742 161.205 409.425C161.211 408.975 162.108 404.13 161.748 404.064C161.769 404.043 161.79 404.022 161.809 404C162.082 404.368 162.349 404.739 162.615 405.111Z" fill="#89C5CC"/>
<path fill-rule="evenodd" clip-rule="evenodd" d="M187.583 416.785C187.619 416.744 187.851 416.455 187.734 416.474C187.972 416.436 187.407 416.792 188 416.574C187.718 416.788 187.881 417.067 187.885 417.356C187.891 417.825 187.794 418.291 187.684 418.75C187.511 419.476 187.253 420.181 186.879 420.856C186.063 422.328 184.678 423.744 183.034 424.664C182.223 425.118 181.427 425.272 180.501 425.481C179.917 425.613 179.87 425.857 179.56 426.315C178.914 427.269 178.279 428.219 177.709 429.205C177.029 430.382 176.368 431.56 175.745 432.758C173.646 436.793 171.937 440.973 171.04 445.299C171.018 442.75 171.749 440.124 172.671 437.694C173.342 435.924 174.217 434.217 175.149 432.528C175.375 432.119 175.718 431.592 175.814 431.14C175.881 430.824 175.675 430.519 175.581 430.186C175.215 428.887 175.241 427.432 175.563 426.127C175.918 424.687 176.945 424.019 178.681 423.815C179.317 423.74 180.124 423.768 180.706 423.549C181.341 423.311 181.603 422.529 181.963 422.027C182.933 420.678 184.084 419.384 185.406 418.248C185.772 417.933 186.166 417.643 186.584 417.374C186.847 417.204 187.404 416.995 187.583 416.785Z" fill="#89C5CC"/>
<path fill-rule="evenodd" clip-rule="evenodd" d="M167.742 443.724C167.63 443.111 168.101 442.546 168.724 442.546H173.656C174.279 442.546 174.75 443.111 174.638 443.724L174.551 444.197C174.255 445.82 172.84 447 171.19 447V447C169.54 447 168.125 445.82 167.829 444.197L167.742 443.724Z" fill="#C1DEE2"/>
</g>
<g opacity="0.5">
<path fill-rule="evenodd" clip-rule="evenodd" d="M222.692 376.235C223.039 375.738 223.682 374.477 224.169 374.3C224.483 374.185 224.392 375.368 224.395 375.593C224.411 376.465 224.326 377.331 224.222 378.196C224.034 379.756 223.419 381.145 222.577 382.472C222.143 383.155 221.634 383.846 220.93 384.272C220.606 384.468 220.215 384.501 219.895 384.67C219.522 384.867 219.725 384.708 219.557 385.099C219.324 385.641 219.249 386.341 219.141 386.92C218.645 389.576 217.445 403.621 217.653 406.323C217.671 406.563 217.339 406.62 217.322 406.328C217.234 404.777 217.997 394.04 218.382 390.529C218.767 387.017 219.157 383.915 219.547 382.7C220.021 381.227 220.877 379.454 221.589 378.08C221.92 377.441 222.281 376.825 222.692 376.235Z" fill="#69A1AC"/>
<path fill-rule="evenodd" clip-rule="evenodd" d="M225.263 393.456C226.165 392.791 227.141 394.047 226.325 394.712C225.874 395.08 225.403 394.949 225.137 394.642C224.965 394.853 224.804 395.074 224.649 395.261C224.177 395.829 223.73 396.41 223.304 397.006C222.418 398.242 221.659 399.549 220.865 400.831C220.082 402.097 219.305 403.369 218.595 404.667C217.993 405.767 217.192 407.06 216.986 408.266C217.298 405.709 218.484 403.252 219.895 400.998C221.296 398.763 222.903 396.321 225.071 394.557C224.85 394.231 224.844 393.765 225.263 393.456Z" fill="#C1DEE2"/>
<path fill-rule="evenodd" clip-rule="evenodd" d="M208.158 387.221C208.662 387.32 209.486 388.468 209.902 388.905C210.396 389.424 210.845 389.977 211.267 390.557C212.177 391.806 212.991 393.133 213.683 394.517C214.811 396.774 215.714 399.09 216.37 401.547C216.772 403.051 217.031 404.61 217.186 406.158C217.215 406.45 217.519 408.701 217.08 408.762C216.686 408.816 216.808 407.053 216.789 406.813C216.573 404.106 215.929 401.472 215.032 398.921C214.836 398.365 214.655 397.685 214.343 397.185C214.118 396.824 214.341 396.95 213.946 396.814C213.606 396.696 213.219 396.725 212.872 396.582C212.117 396.27 211.512 395.666 210.982 395.058C209.952 393.877 209.135 392.599 208.71 391.085C208.474 390.246 208.257 389.402 208.137 388.536C208.106 388.313 207.833 387.157 208.158 387.221Z" fill="#69A1AC"/>
<path fill-rule="evenodd" clip-rule="evenodd" d="M210.148 368.137C212.049 371.449 213.61 375.087 214.618 378.773C215.229 381.006 215.656 383.297 216.081 385.572C216.738 389.094 217.36 392.616 217.537 396.2C217.715 399.806 218.066 403.964 216.892 407.437C217.478 403.911 216.92 400.158 216.821 396.611C216.774 394.917 216.637 393.24 216.457 391.557C216.283 389.924 215.998 388.298 215.733 386.678C215.604 385.889 215.468 385.101 215.33 384.313C215.288 384.078 215.271 383.381 215.123 383.22C214.973 383.059 214.212 382.993 213.973 382.874C213.492 382.636 213.039 382.296 212.638 381.938C211.87 381.251 211.201 380.353 210.674 379.469C209.453 377.421 208.965 374.922 208.99 372.551C208.995 372.091 209.731 367.133 209.436 367.065C209.453 367.044 209.47 367.023 209.486 367C209.71 367.377 209.93 367.756 210.148 368.137Z" fill="#89C5CC"/>
<path fill-rule="evenodd" clip-rule="evenodd" d="M230.658 380.083C230.687 380.04 230.878 379.745 230.782 379.764C230.977 379.725 230.513 380.09 231 379.866C230.769 380.086 230.902 380.371 230.905 380.667C230.91 381.147 230.83 381.623 230.74 382.093C230.598 382.836 230.386 383.558 230.079 384.249C229.409 385.754 228.271 387.203 226.921 388.144C226.254 388.609 225.601 388.767 224.84 388.981C224.36 389.116 224.322 389.366 224.067 389.834C223.536 390.81 223.015 391.782 222.547 392.791C221.988 393.995 221.445 395.201 220.933 396.427C219.209 400.556 217.806 404.833 217.069 409.26C217.05 406.651 217.651 403.964 218.408 401.478C218.96 399.666 219.678 397.92 220.444 396.192C220.63 395.773 220.911 395.234 220.99 394.772C221.045 394.448 220.876 394.136 220.799 393.795C220.498 392.466 220.519 390.977 220.784 389.641C221.075 388.168 221.919 387.484 223.345 387.276C223.867 387.199 224.53 387.227 225.009 387.004C225.53 386.76 225.745 385.96 226.041 385.446C226.837 384.066 227.783 382.742 228.869 381.579C229.17 381.257 229.494 380.96 229.837 380.685C230.053 380.511 230.51 380.297 230.658 380.083Z" fill="#89C5CC"/>
<path fill-rule="evenodd" clip-rule="evenodd" d="M214.351 407.586C214.262 406.983 214.729 406.442 215.338 406.442H219.045C219.654 406.442 220.121 406.983 220.033 407.586L219.872 408.684C219.677 410.014 218.536 411 217.192 411V411C215.848 411 214.707 410.014 214.512 408.684L214.351 407.586Z" fill="#C1DEE2"/>
</g>
<g opacity="0.5">
<path fill-rule="evenodd" clip-rule="evenodd" d="M351.692 402.235C352.039 401.738 352.682 400.477 353.169 400.3C353.483 400.185 353.392 401.368 353.395 401.593C353.411 402.465 353.326 403.331 353.222 404.196C353.034 405.756 352.419 407.145 351.577 408.472C351.143 409.155 350.634 409.846 349.93 410.272C349.606 410.468 349.215 410.501 348.895 410.67C348.522 410.867 348.725 410.708 348.557 411.099C348.324 411.641 348.249 412.341 348.141 412.92C347.645 415.576 346.445 429.621 346.653 432.323C346.671 432.563 346.339 432.62 346.322 432.328C346.234 430.777 346.997 420.04 347.382 416.529C347.767 413.017 348.157 409.915 348.547 408.7C349.021 407.227 349.877 405.454 350.589 404.08C350.92 403.441 351.281 402.825 351.692 402.235Z" fill="#69A1AC"/>
<path fill-rule="evenodd" clip-rule="evenodd" d="M354.263 419.456C355.165 418.791 356.141 420.047 355.325 420.712C354.874 421.08 354.403 420.949 354.137 420.642C353.965 420.853 353.804 421.074 353.649 421.261C353.177 421.829 352.73 422.41 352.304 423.006C351.418 424.242 350.659 425.549 349.865 426.831C349.082 428.097 348.305 429.369 347.595 430.667C346.993 431.767 346.192 433.06 345.986 434.266C346.298 431.709 347.484 429.252 348.895 426.998C350.296 424.763 351.903 422.321 354.071 420.557C353.85 420.231 353.844 419.765 354.263 419.456Z" fill="#C1DEE2"/>
<path fill-rule="evenodd" clip-rule="evenodd" d="M337.158 413.221C337.662 413.32 338.486 414.468 338.902 414.905C339.396 415.424 339.845 415.977 340.267 416.557C341.177 417.806 341.991 419.133 342.683 420.517C343.811 422.774 344.714 425.09 345.37 427.547C345.772 429.051 346.031 430.61 346.186 432.158C346.215 432.45 346.519 434.701 346.08 434.762C345.686 434.816 345.808 433.053 345.789 432.813C345.573 430.106 344.929 427.472 344.032 424.921C343.836 424.365 343.655 423.685 343.343 423.185C343.118 422.824 343.341 422.95 342.946 422.814C342.606 422.696 342.219 422.725 341.872 422.582C341.117 422.27 340.512 421.666 339.982 421.058C338.952 419.877 338.135 418.599 337.71 417.085C337.474 416.246 337.257 415.402 337.137 414.536C337.106 414.313 336.833 413.157 337.158 413.221Z" fill="#69A1AC"/>
<path fill-rule="evenodd" clip-rule="evenodd" d="M339.148 394.137C341.049 397.449 342.61 401.087 343.618 404.773C344.229 407.006 344.656 409.297 345.081 411.572C345.738 415.094 346.36 418.616 346.537 422.2C346.715 425.806 347.066 429.964 345.892 433.437C346.478 429.911 345.92 426.158 345.821 422.611C345.774 420.917 345.637 419.24 345.457 417.557C345.283 415.924 344.998 414.298 344.733 412.678C344.604 411.889 344.468 411.101 344.33 410.313C344.288 410.078 344.271 409.381 344.123 409.22C343.973 409.059 343.212 408.993 342.973 408.874C342.492 408.636 342.039 408.296 341.638 407.938C340.87 407.251 340.201 406.353 339.674 405.469C338.453 403.421 337.965 400.922 337.99 398.551C337.995 398.091 338.731 393.133 338.436 393.065C338.453 393.044 338.47 393.023 338.486 393C338.71 393.377 338.93 393.756 339.148 394.137Z" fill="#89C5CC"/>
<path fill-rule="evenodd" clip-rule="evenodd" d="M359.658 406.083C359.687 406.04 359.878 405.745 359.782 405.764C359.977 405.725 359.513 406.09 360 405.866C359.769 406.086 359.902 406.371 359.905 406.667C359.91 407.147 359.83 407.623 359.74 408.093C359.598 408.836 359.386 409.558 359.079 410.249C358.409 411.754 357.271 413.203 355.921 414.144C355.254 414.609 354.601 414.767 353.84 414.981C353.36 415.116 353.322 415.366 353.067 415.834C352.536 416.81 352.015 417.782 351.547 418.791C350.988 419.995 350.445 421.201 349.933 422.427C348.209 426.556 346.806 430.833 346.069 435.26C346.05 432.651 346.651 429.964 347.408 427.478C347.96 425.666 348.678 423.92 349.444 422.192C349.63 421.773 349.911 421.234 349.99 420.772C350.045 420.448 349.876 420.136 349.799 419.795C349.498 418.466 349.519 416.977 349.784 415.641C350.075 414.168 350.919 413.484 352.345 413.276C352.867 413.199 353.53 413.227 354.009 413.004C354.53 412.76 354.745 411.96 355.041 411.446C355.837 410.066 356.783 408.742 357.869 407.579C358.17 407.257 358.494 406.96 358.837 406.685C359.053 406.511 359.51 406.297 359.658 406.083Z" fill="#89C5CC"/>
<path fill-rule="evenodd" clip-rule="evenodd" d="M343.351 433.586C343.262 432.983 343.729 432.442 344.338 432.442H348.045C348.654 432.442 349.121 432.983 349.033 433.586L348.872 434.684C348.677 436.014 347.536 437 346.192 437V437C344.848 437 343.707 436.014 343.512 434.684L343.351 433.586Z" fill="#C1DEE2"/>
</g>
<g opacity="0.5">
<path fill-rule="evenodd" clip-rule="evenodd" d="M418.692 363.235C419.039 362.738 419.682 361.477 420.169 361.3C420.483 361.185 420.392 362.368 420.395 362.593C420.411 363.465 420.326 364.331 420.222 365.196C420.034 366.756 419.419 368.145 418.577 369.472C418.143 370.155 417.634 370.846 416.93 371.272C416.606 371.468 416.215 371.501 415.895 371.67C415.522 371.867 415.725 371.708 415.557 372.099C415.324 372.641 415.249 373.341 415.141 373.92C414.645 376.576 413.445 390.621 413.653 393.323C413.671 393.563 413.339 393.62 413.322 393.328C413.234 391.777 413.997 381.04 414.382 377.529C414.767 374.017 415.157 370.915 415.547 369.7C416.021 368.227 416.877 366.454 417.589 365.08C417.92 364.441 418.281 363.825 418.692 363.235Z" fill="#69A1AC"/>
<path fill-rule="evenodd" clip-rule="evenodd" d="M421.264 380.456C422.165 379.791 423.141 381.047 422.325 381.712C421.874 382.08 421.403 381.949 421.137 381.642C420.965 381.853 420.804 382.074 420.649 382.261C420.177 382.829 419.73 383.41 419.304 384.006C418.418 385.242 417.659 386.549 416.865 387.831C416.082 389.097 415.305 390.369 414.595 391.667C413.993 392.767 413.192 394.06 412.986 395.266C413.298 392.709 414.484 390.252 415.896 387.998C417.296 385.763 418.903 383.321 421.071 381.557C420.851 381.231 420.844 380.765 421.264 380.456Z" fill="#C1DEE2"/>
<path fill-rule="evenodd" clip-rule="evenodd" d="M404.158 374.221C404.662 374.32 405.486 375.468 405.902 375.905C406.396 376.424 406.845 376.977 407.267 377.557C408.177 378.806 408.991 380.133 409.683 381.517C410.811 383.774 411.714 386.09 412.37 388.547C412.772 390.051 413.031 391.61 413.186 393.158C413.215 393.45 413.519 395.701 413.08 395.762C412.686 395.816 412.808 394.053 412.789 393.813C412.573 391.106 411.929 388.472 411.032 385.921C410.836 385.365 410.655 384.685 410.343 384.185C410.118 383.824 410.341 383.95 409.946 383.814C409.606 383.696 409.219 383.725 408.872 383.582C408.117 383.27 407.512 382.666 406.982 382.058C405.952 380.877 405.135 379.599 404.71 378.085C404.474 377.246 404.257 376.402 404.137 375.536C404.106 375.313 403.833 374.157 404.158 374.221Z" fill="#69A1AC"/>
<path fill-rule="evenodd" clip-rule="evenodd" d="M406.148 355.137C408.049 358.449 409.61 362.087 410.618 365.773C411.229 368.006 411.656 370.297 412.081 372.572C412.738 376.094 413.36 379.616 413.537 383.2C413.715 386.806 414.066 390.964 412.892 394.437C413.478 390.911 412.92 387.158 412.821 383.611C412.774 381.917 412.637 380.24 412.457 378.557C412.283 376.924 411.998 375.298 411.733 373.678C411.604 372.889 411.468 372.101 411.33 371.313C411.288 371.078 411.271 370.381 411.123 370.22C410.973 370.059 410.212 369.993 409.973 369.874C409.492 369.636 409.039 369.296 408.638 368.938C407.87 368.251 407.201 367.353 406.674 366.469C405.453 364.421 404.965 361.922 404.99 359.551C404.995 359.091 405.731 354.133 405.436 354.065C405.453 354.044 405.47 354.023 405.486 354C405.71 354.377 405.93 354.756 406.148 355.137Z" fill="#89C5CC"/>
<path fill-rule="evenodd" clip-rule="evenodd" d="M426.658 367.083C426.687 367.04 426.878 366.745 426.782 366.764C426.977 366.725 426.513 367.09 427 366.866C426.769 367.086 426.902 367.371 426.905 367.667C426.91 368.147 426.83 368.623 426.74 369.093C426.598 369.836 426.386 370.558 426.079 371.249C425.409 372.754 424.271 374.203 422.921 375.144C422.254 375.609 421.601 375.767 420.84 375.981C420.36 376.116 420.322 376.366 420.067 376.834C419.536 377.81 419.015 378.782 418.547 379.791C417.988 380.995 417.445 382.201 416.933 383.427C415.209 387.556 413.806 391.833 413.069 396.26C413.05 393.651 413.651 390.964 414.408 388.478C414.96 386.666 415.678 384.92 416.444 383.192C416.63 382.773 416.911 382.234 416.99 381.772C417.045 381.448 416.876 381.136 416.799 380.795C416.498 379.466 416.519 377.977 416.784 376.641C417.075 375.168 417.919 374.484 419.345 374.276C419.867 374.199 420.53 374.227 421.009 374.004C421.53 373.76 421.745 372.96 422.041 372.446C422.837 371.066 423.783 369.742 424.869 368.579C425.17 368.257 425.494 367.96 425.837 367.685C426.053 367.511 426.51 367.297 426.658 367.083Z" fill="#89C5CC"/>
<path fill-rule="evenodd" clip-rule="evenodd" d="M410.35 394.586C410.262 393.983 410.729 393.442 411.338 393.442H415.045C415.654 393.442 416.121 393.983 416.033 394.586L415.872 395.684C415.677 397.014 414.536 398 413.192 398V398C411.848 398 410.707 397.014 410.512 395.684L410.35 394.586Z" fill="#C1DEE2"/>
</g>
</g>
<defs>
<linearGradient id="paint0_linear_770_196" x1="250" y1="0" x2="250" y2="378.104" gradientUnits="userSpaceOnUse">
<stop stop-color="#00C9E4"/>
<stop offset="1" stop-color="#9AEFFB"/>
</linearGradient>
<clipPath id="clip0_770_196">
<rect width="500" height="500" fill="white"/>
</clipPath>
</defs>
</svg>
