<svg width="500" height="500" viewBox="0 0 500 500" fill="none" xmlns="http://www.w3.org/2000/svg">
<g clip-path="url(#clip0_777_513)">
<rect width="500" height="500" fill="#8B7878"/>
<rect width="500" height="378.104" fill="url(#paint0_linear_777_513)"/>
<path fill-rule="evenodd" clip-rule="evenodd" d="M88.6181 179.739C92.322 181.971 95.9612 183.05 97.6695 182.609C101.953 181.505 102.347 165.834 99.0325 159.656C95.7181 153.479 78.679 150.786 77.8201 163.026C77.5221 167.274 79.3059 171.066 81.9415 174.159L77.2157 196.186H90.943L88.6181 179.739Z" fill="#B28B67"/>
<path fill-rule="evenodd" clip-rule="evenodd" d="M93.6104 152.928C91.7346 152.356 89.0117 152.162 87.8663 152.293C88.5178 150.732 88.7764 148.993 88.5656 147.299C88.3607 145.654 87.6254 144.253 86.9454 142.784C86.6319 142.108 86.2767 141.435 85.747 140.917C85.2075 140.39 84.5245 140.042 83.8084 139.875C83.0755 139.705 82.3091 139.72 81.5751 139.874C81.2504 139.942 80.959 140.091 80.6405 140.173C80.3144 140.258 80.1562 140.054 79.9195 139.848C79.3491 139.354 78.5128 139.11 77.7911 139.023C76.9814 138.925 76.1412 139.047 75.369 139.313C74.6174 139.572 73.8953 139.993 73.3519 140.606C73.1099 140.879 72.8903 141.19 72.7475 141.532C72.689 141.673 72.6793 141.757 72.5389 141.808C72.409 141.856 72.2571 141.857 72.1231 141.903C70.8271 142.342 69.7191 143.343 69.1157 144.629C68.7637 145.379 68.597 146.699 68.6427 148.179C68.6883 149.66 70.0249 153.522 71.2749 154.931C72.3907 156.188 74.0308 157.018 75.6137 157.381C74.563 158.582 73.8637 160.083 73.3465 161.609C72.7848 163.267 72.4371 164.989 72.3088 166.744C72.1868 168.412 72.1755 170.175 72.5664 171.807C72.9321 173.333 73.7142 174.585 75.0198 175.379C75.6178 175.743 76.2613 176.016 76.9084 176.266C77.5462 176.512 78.1859 176.752 78.854 176.89C80.1184 177.151 81.5753 177.106 82.5493 176.1C82.9004 175.737 83.2864 175.281 83.5425 174.838C83.6346 174.679 83.6901 174.574 83.5783 174.419C83.4442 174.232 83.2274 174.089 83.0553 173.943C82.0735 173.111 81.4657 172 81.3125 170.679C81.157 169.339 81.5169 167.61 82.8195 167.026C84.4274 166.304 86.1981 167.132 87.6272 167.904C88.2345 165.761 89.4816 163.831 91.4368 162.847C93.5999 161.76 96.082 161.632 98.3049 160.699C98.8842 160.456 99.4741 160.18 99.9006 159.684C100.079 159.477 100.288 159.208 100.359 158.934C100.453 158.575 100.22 158.273 100.041 157.992C99.0907 156.505 95.4861 153.5 93.6104 152.928Z" fill="#555555"/>
<path fill-rule="evenodd" clip-rule="evenodd" d="M73.2119 241.943L94.1636 314.141L104.018 368.349H113.909L104.036 241.943H73.2119Z" fill="#997659"/>
<path fill-rule="evenodd" clip-rule="evenodd" d="M63.796 241.943C65.2579 279.45 64.6814 299.907 64.3542 303.314C64.027 306.722 62.1694 329.544 49.5116 369.493H59.7992C76.5624 331.169 82.4143 308.347 84.3369 303.314C86.2595 298.282 91.9379 277.825 100.228 241.943H63.796Z" fill="#B28B67"/>
<path fill-rule="evenodd" clip-rule="evenodd" d="M72.7621 241.943C78.212 266.787 87.6379 306.443 101.04 360.913H115.507C116.575 305.005 112.03 268.208 104.158 241.943H72.7621Z" fill="#69A1AC"/>
<path fill-rule="evenodd" clip-rule="evenodd" d="M63.7229 241.943C65.1547 279.45 61.4441 316.401 49.9502 361.497H65.3855C82.1796 323.745 94.2164 286.977 102.443 241.943H63.7229Z" fill="#89C5CC"/>
<path fill-rule="evenodd" clip-rule="evenodd" d="M48.0452 376.928L48.5353 369.026C48.575 368.386 49.1998 367.947 49.8329 368.049C54.7335 368.841 61.1008 366.633 61.1008 366.633C67.4353 371.12 76.345 373.372 80.4459 374.224C81.6239 374.469 82.381 375.663 82.0528 376.82L81.5357 378.644H61.1008H49.1804L48.0452 376.928Z" fill="#E2E2E2"/>
<path fill-rule="evenodd" clip-rule="evenodd" d="M101.81 376.928L102.3 369.026C102.34 368.386 102.965 367.947 103.598 368.049C108.499 368.841 114.866 366.633 114.866 366.633C121.2 371.12 130.11 373.372 134.211 374.224C135.389 374.469 136.146 375.663 135.818 376.82L135.301 378.644H114.866H102.946L101.81 376.928Z" fill="#191847"/>
<path fill-rule="evenodd" clip-rule="evenodd" d="M122.028 197.152L102.175 208.026L109.507 215.894L123.932 202.686C131.532 200.592 135.007 199.06 134.358 198.09C133.811 197.272 132.929 197.301 132.116 197.327C131.483 197.347 130.892 197.366 130.535 196.983C129.719 196.107 131.276 193.046 132.877 190.204C134.478 187.362 132.766 187.609 131.787 188.018C128.583 190.187 125.33 193.232 122.028 197.152ZM141.989 212.409L133.269 217.2L133.765 225.951C133.765 225.951 139.413 221.875 144.273 220.52C150.468 218.792 152.975 217.473 156.003 213.615C157.622 211.551 158.997 207.402 157.455 206.051C156.864 205.532 154.66 206.757 152.412 208.007C150.698 208.959 148.958 209.926 147.886 210.146C146.443 210.443 146.612 208.573 146.747 207.079C146.844 206.006 146.924 205.127 146.377 205.381C143.825 205.425 141.989 212.409 141.989 212.409Z" fill="#997659"/>
<path fill-rule="evenodd" clip-rule="evenodd" d="M92.5068 205.604C99.4606 205.53 108.733 204.062 118.628 197.781L122.513 206.446C115.689 213.219 106.092 218.784 97.7014 218.549C91.089 218.363 87.7095 210.365 92.5068 205.604Z" fill="#2026A2"/>
<path fill-rule="evenodd" clip-rule="evenodd" d="M73.7522 264.97C67.1414 264.108 61.0669 263.316 57.4672 264.025C53.4282 250.908 56.782 242.649 59.8781 235.025C61.744 230.43 63.5164 226.066 63.5202 221.007C63.5312 206.277 75.3593 183.603 77.0996 183.603H77.5991H91.3909H92.9699C93.6794 192.718 96.7077 202.588 99.7555 212.521C100.467 214.841 101.18 217.164 101.865 219.482C113.398 222.1 139.009 212.987 139.009 212.987C139.009 212.987 145.474 226.362 144.986 232.058C130.08 239.845 117.303 243.317 106.777 243.546C107.111 249.792 106.351 255.735 103.797 261.165C100.375 268.441 86.1246 266.583 73.7522 264.97Z" fill="#1F28CF"/>
<path fill-rule="evenodd" clip-rule="evenodd" d="M259.144 189.241C261.102 193.097 263.617 195.94 265.299 196.472C269.517 197.805 278.155 184.725 278.618 177.729C279.081 170.733 266.058 159.42 258.843 169.346C256.339 172.791 255.843 176.951 256.439 180.971L240.759 197.147L252.4 204.421L259.144 189.241Z" fill="#B28B67"/>
<path fill-rule="evenodd" clip-rule="evenodd" d="M283.075 173.679C281.456 176.27 278.103 177.117 275.461 175.656C273.716 175.193 271.63 174.35 269.459 173.188C269.186 174.075 268.756 175.008 268.145 175.985C267.606 176.847 266.94 177.703 266.184 178.522C266.068 177.702 265.682 176.974 265.069 176.591C263.353 175.519 261.277 176.184 260.34 177.683C259.151 179.585 259.39 181.647 260.924 182.759C257.749 184.628 254.448 185.467 252.454 184.22C248.665 181.853 249.136 175.104 252.539 169.658C252.659 169.467 252.782 169.279 252.907 169.095C251.074 169.174 249.165 169.585 247.242 169.999C243.156 170.879 239.008 171.772 235.402 169.518C228.187 165.01 234.415 148.668 244.495 154.967C251.35 159.25 254.097 162.357 256.079 165.65C257.662 164.393 259.385 163.58 261.047 163.3C261.485 163.171 262.052 163.14 262.721 163.201C263.138 163.225 263.546 163.288 263.942 163.39C266.097 163.841 268.919 164.973 271.816 166.646C272.357 166.958 272.881 167.278 273.384 167.602C275.062 164.935 278.582 164.127 281.256 165.797C283.935 167.471 284.749 171 283.075 173.679Z" fill="#191847"/>
<path fill-rule="evenodd" clip-rule="evenodd" d="M193.192 298.047C193.192 298.047 213.773 303.803 228.706 303.803C243.639 303.803 256.447 294.938 256.447 294.938C256.447 294.938 236.306 289.029 223.273 289.029C210.24 289.029 193.192 298.047 193.192 298.047Z" fill="#1F28CF"/>
<path fill-rule="evenodd" clip-rule="evenodd" d="M240.584 309.335C240.452 309.136 240.34 308.92 240.252 308.686C238.418 303.835 209.04 251.51 206.114 241.943H239.188C241.414 249.217 251.429 294.862 252.839 303.969C257.286 318.334 266.442 364.857 267.611 368.08C268.841 371.47 261.922 375.002 260.078 370.834C257.145 364.202 250.155 345.85 247.042 334.645C244.124 324.14 241.748 314.689 240.584 309.335Z" fill="#997659"/>
<path fill-rule="evenodd" clip-rule="evenodd" d="M213.525 315.724C200.094 319.118 150.967 325.255 147.595 326.218C144.127 327.208 141.086 320.059 145.373 318.511C152.194 316.047 170.989 310.354 182.384 308.031C191.549 306.162 199.913 304.638 205.528 303.745C205.052 287.972 202.878 250.119 204.303 241.943H233.568C232.201 249.783 220.647 306.986 218.5 312.712C217.819 314.757 215.785 315.66 213.525 315.724V315.724Z" fill="#B28B67"/>
<path fill-rule="evenodd" clip-rule="evenodd" d="M146.386 318.967C146.617 317.819 145.933 316.643 144.774 316.473C143.7 316.316 142.475 316.199 141.742 316.328C140.218 316.597 137.384 317.62 137.384 317.62C137.696 319.387 142.986 349.39 142.986 349.39C142.986 349.39 147.299 349.906 147.155 347.181C147.011 344.455 146.963 342.644 146.963 342.644L150.835 327.144C150.972 326.597 150.63 326.046 150.08 325.925L148.04 325.476C148.04 325.476 146.452 323.209 146.18 321.665C146.056 320.964 146.196 319.91 146.386 318.967Z" fill="#363636"/>
<path fill-rule="evenodd" clip-rule="evenodd" d="M260.424 370.013C259.334 369.587 258.057 370.056 257.689 371.168C257.348 372.198 257.019 373.384 257.019 374.129C257.019 375.676 257.535 378.644 257.535 378.644C259.329 378.644 289.795 378.644 289.795 378.644C289.795 378.644 291.052 374.487 288.343 374.155C285.634 373.824 283.842 373.557 283.842 373.557L269.25 367.052C268.735 366.822 268.133 367.063 267.918 367.584L267.122 369.515C267.122 369.515 264.614 370.685 263.046 370.685C262.334 370.685 261.32 370.364 260.424 370.013Z" fill="#363636"/>
<path fill-rule="evenodd" clip-rule="evenodd" d="M204.398 241.943C204.398 241.943 223.742 236.409 241.004 241.943C245.008 260.21 254.736 267.461 256.447 295.467C237 305.13 212.977 288.576 192.958 297.999C187.239 284.818 195.246 253.076 204.398 241.943Z" fill="#2B44FF"/>
<path fill-rule="evenodd" clip-rule="evenodd" d="M278.622 274.564L269.16 254.001L260.799 260.766L272.968 276.078C274.528 283.805 275.814 287.378 276.826 286.799C277.68 286.31 277.713 285.428 277.744 284.615C277.768 283.982 277.79 283.392 278.197 283.062C279.128 282.309 282.073 284.076 284.797 285.871C287.52 287.667 287.393 285.942 287.053 284.936C285.113 281.589 282.302 278.131 278.622 274.564ZM181.231 261.778C184.014 259.204 201.22 230.31 201.22 230.31L212.362 234.637C212.362 234.637 189.22 264.033 187.613 265.758C185.525 267.999 185.863 272.55 186.093 275.636C186.129 276.113 186.161 276.555 186.182 276.949C184.178 277.057 183.712 275.817 183.22 274.509C182.665 273.033 182.077 271.47 179.205 271.668C178.096 271.745 177.006 271.92 175.942 272.092C172.265 272.686 168.887 273.231 166.02 269.471C165.565 268.874 165.443 267.24 167.436 266.764C172.399 265.578 179.87 263.037 181.231 261.778Z" fill="#B28B67"/>
<path fill-rule="evenodd" clip-rule="evenodd" d="M250.906 195.659L255.827 196.639C256.154 219.55 263.106 242.922 276.685 266.755L254.736 279.195C243.8 248.483 240.743 219.954 250.906 195.659Z" fill="#191847"/>
<path fill-rule="evenodd" clip-rule="evenodd" d="M208.503 245.959L249.619 261.742C249.619 261.742 248.667 221.515 257.989 197.231L246.295 190.622C230.53 202.557 220.368 220.802 208.503 245.959Z" fill="#EEAA5A"/>
<path fill-rule="evenodd" clip-rule="evenodd" d="M183.049 256.406C207.02 207.401 246.023 190.517 246.023 190.517L246.029 190.53C246.032 190.528 246.035 190.525 246.038 190.523L246.847 190.834C248.281 191.442 251.205 192.713 251.205 192.713L250.914 202.428C245.377 218.274 232.234 267.692 232.234 267.692L205.32 257.361C204.531 259.555 203.785 261.801 203.09 264.099L183.049 256.406Z" fill="#2F3676"/>
<path fill-rule="evenodd" clip-rule="evenodd" d="M205.244 257.574C208.668 248.013 212.925 239.437 217.419 231.921C214.484 241.76 211.603 253.847 212.742 260.452L205.244 257.574Z" fill="black" fill-opacity="0.1"/>
<path fill-rule="evenodd" clip-rule="evenodd" d="M217.554 243.306L233.216 242.23L230.844 248.408L217.554 243.306Z" fill="white" fill-opacity="0.2"/>
<path fill-rule="evenodd" clip-rule="evenodd" d="M359.603 190.45C356.444 193.404 353.109 195.215 351.346 195.14C346.927 194.95 343.283 179.704 345.241 172.972C347.199 166.24 363.305 160.063 366.69 171.858C367.865 175.951 366.909 180.03 364.974 183.604L374.176 204.167L360.749 207.021L359.603 190.45Z" fill="#B28B67"/>
<path fill-rule="evenodd" clip-rule="evenodd" d="M366.578 186.08C366.67 178.225 370.385 172.093 368.939 168.898C367.494 165.703 364.145 165.561 364.145 165.561C364.145 165.561 361.09 159.266 352.35 162.161C343.61 165.056 338.937 169.934 343.035 177.612C345.204 177.151 347.655 175.81 351.561 176.385C353.42 176.658 354.869 179.827 354.869 179.827L356.505 179.48C356.505 179.48 358.048 175.025 360.585 175.579C363.123 176.134 362.718 180.44 362.718 180.44L364.838 186.45L366.578 186.08Z" fill="#700B0B"/>
<path fill-rule="evenodd" clip-rule="evenodd" d="M404.015 241.943L361.514 312.997L329.65 373.068H322.787L376.175 241.943L404.015 241.943Z" fill="#997659"/>
<path fill-rule="evenodd" clip-rule="evenodd" d="M331.401 370.013C332.492 369.587 333.769 370.056 334.137 371.168C334.478 372.198 334.807 373.384 334.807 374.129C334.807 375.676 334.291 378.644 334.291 378.644C332.496 378.644 302.031 378.644 302.031 378.644C302.031 378.644 300.774 374.487 303.483 374.155C306.192 373.824 307.984 373.557 307.984 373.557L322.576 367.052C323.091 366.822 323.693 367.063 323.908 367.584L324.704 369.515C324.704 369.515 327.212 370.685 328.78 370.685C329.491 370.685 330.506 370.364 331.401 370.013Z" fill="black"/>
<path fill-rule="evenodd" clip-rule="evenodd" d="M338.5 363.449L325.264 359.445C325.264 359.445 333.963 333.442 346.586 302.214C359.21 270.987 373.701 241.943 373.701 241.943H411.082C411.082 241.943 394.972 278.682 376.923 308.707C358.875 338.731 338.5 363.449 338.5 363.449Z" fill="#DB2721"/>
<path fill-rule="evenodd" clip-rule="evenodd" d="M406.808 241.943C410.819 266.912 418.556 298.813 419.286 299.797C419.773 300.454 437.296 306.326 471.856 317.413L470.374 323.465C429.161 317.519 407.446 312.905 405.227 309.625C401.9 304.704 385.284 265.831 378.848 241.943H406.808Z" fill="#B28B67"/>
<path fill-rule="evenodd" clip-rule="evenodd" d="M459.708 312.182L457.097 321.929C426.272 324.632 407.385 322.679 400.436 316.068C393.487 309.458 385.566 284.75 376.676 241.943H412.321C417.954 276.996 421.103 295.258 421.769 296.729C422.434 298.201 435.081 303.352 459.708 312.182Z" fill="#FF4133"/>
<path fill-rule="evenodd" clip-rule="evenodd" d="M469.463 317.251C469.232 316.103 469.916 314.927 471.074 314.758C472.148 314.601 473.374 314.483 474.107 314.612C475.63 314.881 478.464 315.904 478.464 315.904C478.152 317.671 472.862 347.674 472.862 347.674C472.862 347.674 468.55 348.19 468.694 345.465C468.838 342.739 468.886 340.928 468.886 340.928L465.013 325.428C464.877 324.881 465.218 324.33 465.769 324.209L467.808 323.76C467.808 323.76 469.396 321.494 469.669 319.949C469.792 319.249 469.652 318.194 469.463 317.251Z" fill="black"/>
<path fill-rule="evenodd" clip-rule="evenodd" d="M319.572 245.891L341.759 240.673L341.602 251.571L321.891 251.356C314.797 254.914 311.164 256.107 310.993 254.936C310.849 253.949 311.527 253.374 312.152 252.844C312.639 252.431 313.094 252.046 313.101 251.515C313.119 250.303 309.885 249.044 306.767 247.982C303.649 246.919 305.095 245.948 306.103 245.594C309.964 245.065 314.454 245.164 319.572 245.891ZM442.02 258.305C439.237 255.731 409.862 220.13 409.862 220.13L398.186 224.663C398.186 224.663 434.031 260.56 435.639 262.285C437.727 264.526 437.388 269.076 437.158 272.162C437.123 272.64 437.09 273.082 437.069 273.475C439.073 273.584 439.539 272.344 440.031 271.036C440.587 269.559 441.174 267.996 444.046 268.195C445.156 268.271 446.245 268.447 447.31 268.619C450.987 269.212 454.365 269.757 457.232 265.997C457.686 265.401 457.808 263.767 455.816 263.291C450.853 262.105 443.381 259.563 442.02 258.305Z" fill="#997659"/>
<path fill-rule="evenodd" clip-rule="evenodd" d="M363.598 195.34L354.677 199.464C360.253 220.728 352.918 238.327 323.746 244.52L330.177 272.191C357.152 265.647 375.741 246.706 369.667 217.074C368.094 209.404 366.157 201.536 363.598 195.34Z" fill="#AFB9C5"/>
<path fill-rule="evenodd" clip-rule="evenodd" d="M438.386 253.63C419.047 222.25 395.587 201.235 368.006 190.585L367.127 190.922L367.097 190.933L367.093 190.945L354.442 199.446C360.838 216.108 361.91 229.981 362.941 243.319C363.386 249.079 363.823 254.738 364.678 260.48L402.14 246.1C404.995 251.958 407.71 258.064 410.335 264.397L438.386 253.63Z" fill="#C5CFD6"/>
<path fill-rule="evenodd" clip-rule="evenodd" d="M402.141 246.1C396.329 234.172 389.942 223.268 382.57 213.543C387.757 224.978 393.523 239.42 394.527 249.023L402.141 246.1Z" fill="black" fill-opacity="0.1"/>
<path d="M427 21L428.796 26.5279H434.608L429.906 29.9443L431.702 35.4721L427 32.0557L422.298 35.4721L424.094 29.9443L419.392 26.5279H425.204L427 21Z" fill="#FFFCFC"/>
<path d="M229 53L230.796 58.5279H236.608L231.906 61.9443L233.702 67.4721L229 64.0557L224.298 67.4721L226.094 61.9443L221.392 58.5279H227.204L229 53Z" fill="#FFFCFC"/>
<path d="M323 21L324.796 26.5279H330.608L325.906 29.9443L327.702 35.4721L323 32.0557L318.298 35.4721L320.094 29.9443L315.392 26.5279H321.204L323 21Z" fill="#FFFCFC"/>
<path d="M100 76L101.796 81.5279H107.608L102.906 84.9443L104.702 90.4721L100 87.0557L95.2977 90.4721L97.0938 84.9443L92.3915 81.5279H98.2039L100 76Z" fill="#FFFCFC"/>
<g opacity="0.5">
<path fill-rule="evenodd" clip-rule="evenodd" d="M29.8233 376.272C30.3614 375.505 31.3601 373.556 32.1175 373.282C32.6054 373.105 32.4632 374.932 32.4692 375.28C32.4926 376.628 32.3614 377.967 32.1994 379.303C31.9075 381.713 30.953 383.86 29.6439 385.911C28.9702 386.967 28.1801 388.035 27.0857 388.693C26.5819 388.997 25.9758 389.047 25.4783 389.309C24.8989 389.613 25.2145 389.367 24.9533 389.971C24.5907 390.809 24.4747 391.89 24.307 392.785C23.5366 396.891 21.6717 418.596 21.995 422.772C22.0237 423.142 21.5075 423.231 21.4817 422.779C21.3448 420.383 22.5299 403.789 23.1279 398.363C23.7258 392.936 24.3309 388.142 24.9376 386.264C25.6736 383.987 27.0029 381.247 28.1095 379.123C28.6235 378.137 29.1837 377.184 29.8233 376.272Z" fill="#69A1AC"/>
<path fill-rule="evenodd" clip-rule="evenodd" d="M33.8177 402.886C35.218 401.858 36.7338 403.799 35.4666 404.827C34.7661 405.395 34.0337 405.193 33.6215 404.719C33.3538 405.046 33.1033 405.387 32.8626 405.675C32.1292 406.553 31.4361 407.452 30.7737 408.372C29.3975 410.283 28.2182 412.302 26.9852 414.284C25.7683 416.24 24.5612 418.206 23.4582 420.212C22.5239 421.911 21.2785 423.911 20.9586 425.774C21.444 421.823 23.2857 418.025 25.4789 414.542C27.6542 411.087 30.1507 407.314 33.5189 404.588C33.1761 404.084 33.1666 403.364 33.8177 402.886Z" fill="#C1DEE2"/>
<path fill-rule="evenodd" clip-rule="evenodd" d="M7.245 393.251C8.02864 393.404 9.30908 395.177 9.95503 395.852C10.7227 396.655 11.4192 397.51 12.0757 398.407C13.489 400.336 14.7529 402.387 15.8277 404.527C17.5799 408.014 18.9836 411.594 20.0024 415.391C20.626 417.715 21.0297 420.125 21.269 422.517C21.3142 422.968 21.7873 426.447 21.1056 426.541C20.4926 426.625 20.6819 423.899 20.6523 423.529C20.318 419.345 19.3165 415.275 17.9234 411.333C17.6199 410.474 17.338 409.422 16.8527 408.649C16.5033 408.092 16.8502 408.286 16.2361 408.075C15.7087 407.894 15.1079 407.939 14.5679 407.717C13.3948 407.236 12.4554 406.302 11.6321 405.363C10.0319 403.537 8.7639 401.562 8.10294 399.222C7.73628 397.925 7.39934 396.621 7.21236 395.283C7.16399 394.938 6.74027 393.152 7.245 393.251Z" fill="#69A1AC"/>
<path fill-rule="evenodd" clip-rule="evenodd" d="M10.3374 363.756C13.2892 368.876 15.7149 374.499 17.2811 380.194C18.2301 383.645 18.8937 387.186 19.5531 390.702C20.5741 396.145 21.5397 401.588 21.8144 407.128C22.0908 412.7 22.6373 419.127 20.8127 424.493C21.7241 419.045 20.8564 413.245 20.7028 407.762C20.6293 405.145 20.4166 402.553 20.1375 399.951C19.8667 397.427 19.4242 394.915 19.0122 392.411C18.8115 391.191 18.6007 389.974 18.3861 388.756C18.322 388.393 18.295 387.316 18.0646 387.068C17.8328 386.818 16.6499 386.716 16.2785 386.533C15.5307 386.164 14.8273 385.64 14.2048 385.086C13.0114 384.024 11.9732 382.637 11.1538 381.27C9.25781 378.105 8.49981 374.244 8.53812 370.579C8.54548 369.868 9.68972 362.206 9.23018 362.101C9.25784 362.068 9.28402 362.035 9.3087 362C9.65661 362.583 9.99801 363.169 10.3374 363.756Z" fill="#89C5CC"/>
<path fill-rule="evenodd" clip-rule="evenodd" d="M42.1969 382.219C42.2425 382.154 42.5389 381.697 42.3896 381.726C42.6935 381.667 41.9716 382.23 42.7289 381.884C42.3693 382.224 42.5768 382.665 42.5816 383.122C42.5894 383.864 42.4653 384.6 42.3255 385.326C42.1047 386.474 41.7757 387.59 41.2982 388.657C40.2575 390.984 38.4902 393.223 36.3922 394.678C35.3565 395.396 34.3414 395.64 33.1601 395.971C32.414 396.18 32.3548 396.566 31.9588 397.29C31.1342 398.798 30.3244 400.3 29.5972 401.859C28.7289 403.721 27.886 405.584 27.0909 407.479C24.4123 413.859 22.2322 420.47 21.0873 427.311C21.0593 423.28 21.9919 419.127 23.1683 415.285C24.0253 412.485 25.1408 409.786 26.3307 407.115C26.6191 406.467 27.056 405.635 27.1784 404.92C27.2642 404.42 27.0021 403.938 26.882 403.411C26.4142 401.357 26.4477 399.056 26.8585 396.992C27.3115 394.715 28.6216 393.658 30.8378 393.336C31.6483 393.218 32.6785 393.261 33.4217 392.915C34.2314 392.539 34.5654 391.302 35.0259 390.508C36.2625 388.375 37.7319 386.329 39.4191 384.532C39.8863 384.034 40.3887 383.575 40.9217 383.15C41.2578 382.881 41.9679 382.55 42.1969 382.219Z" fill="#89C5CC"/>
<path fill-rule="evenodd" clip-rule="evenodd" d="M16.8654 424.726C16.7279 423.794 17.4504 422.957 18.3927 422.957H24.1647C25.107 422.957 25.8295 423.794 25.692 424.726L25.4446 426.404C25.1399 428.47 23.367 430 21.2787 430V430C19.1903 430 17.4175 428.47 17.1128 426.404L16.8654 424.726Z" fill="#C1DEE2"/>
</g>
<g opacity="0.5">
<path fill-rule="evenodd" clip-rule="evenodd" d="M94.6994 428.901C93.9613 428.1 92.5917 426.065 91.5529 425.779C90.8839 425.595 91.0789 427.502 91.0707 427.866C91.0385 429.273 91.2184 430.671 91.4406 432.067C91.841 434.583 93.15 436.824 94.9454 438.966C95.8693 440.068 96.9529 441.183 98.4538 441.871C99.1447 442.188 99.976 442.241 100.658 442.513C101.453 442.831 101.02 442.574 101.378 443.205C101.876 444.08 102.035 445.209 102.265 446.143C103.321 450.43 105.879 473.093 105.435 477.453C105.396 477.84 106.104 477.932 106.139 477.46C106.327 474.958 104.702 457.633 103.882 451.967C103.062 446.301 102.232 441.295 101.4 439.335C100.39 436.956 98.5673 434.096 97.0498 431.879C96.3449 430.848 95.5765 429.853 94.6994 428.901Z" fill="#69A1AC"/>
<path fill-rule="evenodd" clip-rule="evenodd" d="M89.2212 456.69C87.3007 455.617 85.222 457.643 86.9598 458.716C87.9205 459.31 88.9249 459.099 89.4903 458.604C89.8574 458.945 90.201 459.301 90.5311 459.602C91.5368 460.519 92.4874 461.457 93.3959 462.418C95.2832 464.413 96.9006 466.521 98.5916 468.591C100.26 470.633 101.916 472.686 103.429 474.78C104.71 476.555 106.418 478.642 106.857 480.587C106.191 476.462 103.665 472.497 100.657 468.86C97.674 465.253 94.2503 461.313 89.631 458.467C90.1011 457.94 90.1142 457.189 89.2212 456.69Z" fill="#C1DEE2"/>
<path fill-rule="evenodd" clip-rule="evenodd" d="M125.664 446.63C124.589 446.79 122.833 448.641 121.947 449.346C120.895 450.184 119.939 451.077 119.039 452.013C117.101 454.028 115.367 456.17 113.893 458.403C111.49 462.044 109.565 465.782 108.168 469.747C107.313 472.174 106.759 474.689 106.431 477.187C106.369 477.659 105.72 481.291 106.655 481.389C107.496 481.477 107.236 478.631 107.277 478.243C107.735 473.876 109.109 469.626 111.019 465.509C111.435 464.613 111.822 463.514 112.488 462.707C112.967 462.126 112.491 462.328 113.333 462.109C114.056 461.919 114.88 461.966 115.621 461.734C117.23 461.232 118.518 460.257 119.647 459.276C121.842 457.37 123.581 455.308 124.487 452.865C124.99 451.511 125.452 450.148 125.709 448.752C125.775 448.391 126.356 446.527 125.664 446.63Z" fill="#69A1AC"/>
<path fill-rule="evenodd" clip-rule="evenodd" d="M121.423 415.834C117.375 421.179 114.048 427.05 111.9 432.997C110.599 436.6 109.689 440.297 108.784 443.968C107.384 449.651 106.06 455.334 105.683 461.119C105.304 466.937 104.555 473.647 107.057 479.25C105.807 473.561 106.997 467.506 107.208 461.781C107.308 459.048 107.6 456.342 107.983 453.626C108.354 450.99 108.961 448.367 109.526 445.753C109.801 444.479 110.09 443.208 110.385 441.937C110.473 441.558 110.51 440.433 110.826 440.174C111.144 439.913 112.766 439.807 113.275 439.615C114.301 439.23 115.265 438.683 116.119 438.105C117.756 436.996 119.18 435.548 120.303 434.12C122.904 430.816 123.943 426.784 123.891 422.958C123.881 422.215 122.311 414.215 122.942 414.105C122.904 414.071 122.868 414.036 122.834 414C122.357 414.608 121.889 415.221 121.423 415.834Z" fill="#89C5CC"/>
<path fill-rule="evenodd" clip-rule="evenodd" d="M77.7294 435.112C77.667 435.043 77.2604 434.566 77.4652 434.596C77.0483 434.534 78.0384 435.123 76.9999 434.762C77.493 435.116 77.2084 435.577 77.2018 436.054C77.1911 436.829 77.3614 437.597 77.553 438.355C77.8559 439.554 78.3071 440.719 78.9619 441.833C80.3893 444.262 82.8129 446.601 85.6902 448.119C87.1107 448.869 88.5028 449.125 90.1228 449.47C91.1461 449.688 91.2273 450.091 91.7704 450.847C92.9012 452.421 94.0119 453.99 95.0092 455.618C96.2 457.562 97.356 459.507 98.4465 461.485C102.12 468.147 105.11 475.049 106.68 482.193C106.719 477.983 105.439 473.648 103.826 469.636C102.651 466.712 101.121 463.894 99.489 461.105C99.0936 460.429 98.4943 459.56 98.3264 458.814C98.2088 458.291 98.5683 457.789 98.7329 457.238C99.3746 455.094 99.3286 452.691 98.7651 450.535C98.1439 448.158 96.3471 447.055 93.3077 446.718C92.1962 446.595 90.7834 446.64 89.7641 446.279C88.6536 445.886 88.1956 444.595 87.5641 443.766C85.8681 441.538 83.8529 439.403 81.539 437.526C80.8983 437.006 80.2092 436.527 79.4783 436.083C79.0173 435.802 78.0436 435.457 77.7294 435.112Z" fill="#89C5CC"/>
<path fill-rule="evenodd" clip-rule="evenodd" d="M112.445 479.622C112.644 478.598 111.859 477.646 110.815 477.646H102.02C100.976 477.646 100.192 478.598 100.39 479.622L100.484 480.106C101.034 482.948 103.523 485.001 106.418 485.001V485.001C109.313 485.001 111.801 482.948 112.352 480.106L112.445 479.622Z" fill="#C1DEE2"/>
</g>
<g opacity="0.5">
<path fill-rule="evenodd" clip-rule="evenodd" d="M287.689 429.259C288.577 428.277 290.226 425.784 291.477 425.433C292.283 425.207 292.048 427.545 292.058 427.99C292.096 429.715 291.88 431.428 291.612 433.138C291.13 436.221 289.554 438.967 287.392 441.592C286.28 442.942 284.975 444.309 283.168 445.151C282.336 445.539 281.335 445.604 280.514 445.939C279.557 446.328 280.078 446.013 279.647 446.786C279.048 447.858 278.856 449.242 278.579 450.386C277.307 455.639 274.228 483.409 274.761 488.752C274.809 489.226 273.956 489.339 273.914 488.761C273.688 485.695 275.645 464.465 276.632 457.522C277.62 450.579 278.619 444.446 279.621 442.044C280.836 439.129 283.031 435.625 284.858 432.907C285.707 431.645 286.632 430.426 287.689 429.259Z" fill="#69A1AC"/>
<path fill-rule="evenodd" clip-rule="evenodd" d="M294.285 463.311C296.597 461.995 299.1 464.478 297.008 465.793C295.851 466.52 294.641 466.262 293.961 465.656C293.519 466.073 293.105 466.51 292.708 466.878C291.496 468.002 290.352 469.152 289.258 470.329C286.986 472.774 285.038 475.357 283.002 477.893C280.993 480.395 278.999 482.911 277.178 485.477C275.635 487.652 273.578 490.209 273.05 492.593C273.852 487.538 276.893 482.679 280.515 478.222C284.107 473.803 288.229 468.976 293.791 465.487C293.225 464.842 293.209 463.922 294.285 463.311Z" fill="#C1DEE2"/>
<path fill-rule="evenodd" clip-rule="evenodd" d="M250.405 450.984C251.699 451.18 253.813 453.448 254.88 454.312C256.147 455.339 257.297 456.433 258.382 457.58C260.715 460.048 262.803 462.673 264.577 465.41C267.471 469.871 269.789 474.451 271.471 479.31C272.501 482.284 273.168 485.366 273.563 488.427C273.637 489.004 274.419 493.455 273.293 493.575C272.281 493.683 272.593 490.195 272.544 489.721C271.992 484.369 270.339 479.162 268.038 474.117C267.537 473.018 267.071 471.672 266.27 470.684C265.693 469.971 266.266 470.22 265.252 469.95C264.381 469.718 263.389 469.775 262.497 469.492C260.56 468.876 259.009 467.681 257.649 466.479C255.007 464.143 252.913 461.616 251.821 458.623C251.216 456.964 250.659 455.295 250.351 453.584C250.271 453.142 249.571 450.857 250.405 450.984Z" fill="#69A1AC"/>
<path fill-rule="evenodd" clip-rule="evenodd" d="M255.511 413.247C260.385 419.797 264.391 426.991 266.977 434.278C268.544 438.693 269.64 443.224 270.729 447.721C272.415 454.685 274.01 461.649 274.463 468.737C274.92 475.866 275.822 484.088 272.809 490.955C274.314 483.984 272.881 476.563 272.628 469.549C272.506 466.2 272.155 462.884 271.694 459.555C271.247 456.326 270.516 453.112 269.836 449.908C269.505 448.348 269.156 446.79 268.802 445.233C268.696 444.768 268.652 443.389 268.271 443.072C267.888 442.752 265.935 442.622 265.322 442.388C264.087 441.916 262.925 441.245 261.897 440.536C259.927 439.178 258.212 437.403 256.859 435.654C253.728 431.605 252.477 426.665 252.54 421.976C252.552 421.066 254.442 411.264 253.683 411.129C253.728 411.087 253.772 411.045 253.812 411C254.387 411.745 254.951 412.496 255.511 413.247Z" fill="#89C5CC"/>
<path fill-rule="evenodd" clip-rule="evenodd" d="M308.122 436.869C308.197 436.785 308.686 436.201 308.44 436.238C308.942 436.162 307.75 436.883 309 436.441C308.406 436.875 308.749 437.439 308.757 438.024C308.77 438.973 308.565 439.915 308.334 440.844C307.969 442.312 307.426 443.74 306.638 445.106C304.919 448.082 302.001 450.948 298.536 452.809C296.826 453.727 295.15 454.04 293.199 454.463C291.967 454.73 291.869 455.224 291.215 456.15C289.854 458.08 288.516 460.002 287.315 461.997C285.882 464.378 284.49 466.763 283.177 469.186C278.753 477.35 275.153 485.807 273.263 494.56C273.216 489.402 274.757 484.09 276.699 479.173C278.114 475.591 279.956 472.138 281.921 468.721C282.397 467.892 283.119 466.827 283.321 465.913C283.463 465.273 283.03 464.657 282.832 463.982C282.059 461.354 282.114 458.41 282.793 455.769C283.541 452.856 285.704 451.504 289.364 451.091C290.702 450.94 292.404 450.996 293.631 450.554C294.968 450.072 295.52 448.489 296.28 447.474C298.322 444.745 300.748 442.127 303.535 439.828C304.306 439.191 305.136 438.604 306.016 438.059C306.571 437.716 307.743 437.293 308.122 436.869Z" fill="#89C5CC"/>
<path fill-rule="evenodd" clip-rule="evenodd" d="M266.319 491.399C266.081 490.148 267.04 488.989 268.313 488.989H278.845C280.118 488.989 281.077 490.148 280.839 491.399L280.705 492.103C280.054 495.525 277.062 498.001 273.579 498.001V498.001C270.096 498.001 267.104 495.525 266.453 492.103L266.319 491.399Z" fill="#C1DEE2"/>
</g>
<g opacity="0.5">
<path fill-rule="evenodd" clip-rule="evenodd" d="M417.578 405.481C418.346 404.702 419.772 402.725 420.853 402.447C421.549 402.268 421.346 404.121 421.355 404.475C421.388 405.842 421.201 407.201 420.97 408.557C420.553 411.003 419.191 413.181 417.322 415.262C416.361 416.333 415.233 417.417 413.671 418.085C412.951 418.393 412.086 418.445 411.376 418.71C410.549 419.018 410.999 418.769 410.627 419.381C410.109 420.232 409.944 421.329 409.704 422.237C408.605 426.403 405.942 448.427 406.404 452.665C406.445 453.041 405.708 453.131 405.671 452.672C405.476 450.241 407.168 433.403 408.021 427.897C408.875 422.39 409.738 417.526 410.604 415.62C411.655 413.309 413.552 410.53 415.132 408.374C415.866 407.373 416.665 406.406 417.578 405.481Z" fill="#69A1AC"/>
<path fill-rule="evenodd" clip-rule="evenodd" d="M423.28 432.487C425.279 431.444 427.442 433.413 425.634 434.456C424.634 435.033 423.588 434.828 423 434.347C422.618 434.678 422.26 435.025 421.917 435.317C420.87 436.208 419.88 437.12 418.935 438.053C416.971 439.993 415.287 442.041 413.527 444.052C411.79 446.037 410.067 448.033 408.493 450.068C407.159 451.792 405.381 453.821 404.925 455.711C405.617 451.702 408.246 447.848 411.377 444.314C414.482 440.808 418.046 436.98 422.853 434.214C422.364 433.702 422.351 432.972 423.28 432.487Z" fill="#C1DEE2"/>
<path fill-rule="evenodd" clip-rule="evenodd" d="M385.35 422.711C386.468 422.867 388.296 424.665 389.218 425.351C390.314 426.165 391.308 427.033 392.245 427.943C394.262 429.9 396.067 431.982 397.601 434.152C400.102 437.691 402.106 441.323 403.56 445.177C404.45 447.535 405.026 449.98 405.368 452.408C405.432 452.865 406.108 456.395 405.135 456.49C404.26 456.576 404.53 453.81 404.488 453.434C404.01 449.189 402.581 445.059 400.592 441.058C400.159 440.187 399.757 439.119 399.064 438.335C398.565 437.77 399.06 437.967 398.184 437.753C397.431 437.57 396.573 437.615 395.803 437.39C394.128 436.902 392.787 435.954 391.612 435.001C389.328 433.148 387.518 431.144 386.574 428.77C386.051 427.454 385.57 426.13 385.303 424.773C385.234 424.423 384.629 422.611 385.35 422.711Z" fill="#69A1AC"/>
<path fill-rule="evenodd" clip-rule="evenodd" d="M389.764 392.782C393.977 397.977 397.44 403.683 399.675 409.462C401.03 412.963 401.977 416.557 402.918 420.124C404.376 425.647 405.754 431.17 406.146 436.791C406.541 442.446 407.321 448.967 404.716 454.412C406.017 448.884 404.779 442.999 404.559 437.435C404.455 434.78 404.151 432.15 403.753 429.509C403.366 426.948 402.734 424.399 402.146 421.858C401.86 420.621 401.559 419.385 401.253 418.15C401.161 417.782 401.123 416.688 400.794 416.436C400.463 416.183 398.774 416.08 398.244 415.894C397.177 415.519 396.173 414.988 395.284 414.426C393.581 413.348 392.099 411.941 390.929 410.553C388.223 407.342 387.141 403.424 387.195 399.705C387.206 398.984 388.839 391.209 388.183 391.102C388.223 391.069 388.26 391.035 388.295 391C388.792 391.591 389.279 392.186 389.764 392.782Z" fill="#89C5CC"/>
<path fill-rule="evenodd" clip-rule="evenodd" d="M435.241 411.517C435.306 411.45 435.729 410.987 435.516 411.016C435.95 410.956 434.919 411.528 436 411.177C435.487 411.521 435.783 411.969 435.79 412.433C435.801 413.186 435.624 413.932 435.424 414.669C435.109 415.834 434.639 416.966 433.958 418.049C432.472 420.41 429.95 422.682 426.955 424.158C425.477 424.887 424.028 425.135 422.341 425.471C421.276 425.682 421.192 426.074 420.627 426.809C419.45 428.339 418.294 429.864 417.256 431.446C416.016 433.334 414.813 435.225 413.678 437.147C409.855 443.622 406.743 450.33 405.108 457.272C405.068 453.181 406.4 448.968 408.079 445.068C409.302 442.228 410.895 439.489 412.593 436.778C413.005 436.121 413.628 435.277 413.803 434.552C413.925 434.044 413.551 433.555 413.38 433.02C412.712 430.936 412.76 428.601 413.346 426.506C413.993 424.196 415.863 423.124 419.027 422.796C420.183 422.677 421.654 422.721 422.715 422.37C423.871 421.988 424.347 420.733 425.005 419.927C426.77 417.763 428.867 415.687 431.276 413.863C431.942 413.358 432.66 412.892 433.42 412.461C433.9 412.188 434.914 411.852 435.241 411.517Z" fill="#89C5CC"/>
<path fill-rule="evenodd" clip-rule="evenodd" d="M399.116 454.812C398.907 453.801 399.678 452.854 400.71 452.854H410.054C411.086 452.854 411.857 453.801 411.648 454.812L411.625 454.919C411.011 457.879 408.404 460 405.382 460V460C402.36 460 399.752 457.879 399.138 454.919L399.116 454.812Z" fill="#C1DEE2"/>
</g>
<g opacity="0.5">
<path fill-rule="evenodd" clip-rule="evenodd" d="M177.886 413.024C178.308 412.539 179.09 411.307 179.684 411.134C180.066 411.022 179.955 412.177 179.96 412.397C179.978 413.25 179.875 414.096 179.748 414.941C179.519 416.465 178.771 417.823 177.746 419.12C177.218 419.787 176.598 420.463 175.741 420.879C175.346 421.071 174.871 421.103 174.481 421.268C174.027 421.461 174.274 421.305 174.07 421.687C173.785 422.217 173.695 422.901 173.563 423.467C172.959 426.063 171.498 439.788 171.751 442.429C171.774 442.663 171.369 442.719 171.349 442.433C171.242 440.918 172.17 430.425 172.639 426.994C173.108 423.562 173.582 420.53 174.057 419.343C174.634 417.903 175.676 416.171 176.543 414.828C176.946 414.204 177.385 413.601 177.886 413.024Z" fill="#69A1AC"/>
<path fill-rule="evenodd" clip-rule="evenodd" d="M181.016 429.854C182.114 429.204 183.302 430.431 182.309 431.081C181.76 431.441 181.186 431.313 180.863 431.013C180.653 431.22 180.457 431.435 180.268 431.618C179.693 432.173 179.15 432.741 178.631 433.323C177.552 434.531 176.628 435.808 175.662 437.062C174.708 438.299 173.762 439.542 172.898 440.81C172.166 441.885 171.19 443.149 170.939 444.327C171.319 441.829 172.763 439.427 174.481 437.225C176.186 435.04 178.143 432.654 180.782 430.93C180.514 430.611 180.506 430.156 181.016 429.854Z" fill="#C1DEE2"/>
<path fill-rule="evenodd" clip-rule="evenodd" d="M160.192 423.761C160.806 423.858 161.81 424.979 162.316 425.406C162.917 425.914 163.463 426.455 163.978 427.022C165.085 428.242 166.076 429.539 166.918 430.891C168.291 433.097 169.391 435.36 170.19 437.762C170.678 439.231 170.995 440.755 171.182 442.268C171.218 442.553 171.589 444.753 171.054 444.812C170.574 444.866 170.722 443.142 170.699 442.907C170.437 440.262 169.652 437.688 168.56 435.195C168.323 434.652 168.102 433.987 167.721 433.498C167.448 433.146 167.719 433.269 167.238 433.136C166.825 433.021 166.354 433.049 165.931 432.909C165.011 432.605 164.275 432.014 163.63 431.42C162.376 430.266 161.382 429.017 160.864 427.537C160.577 426.717 160.313 425.892 160.166 425.047C160.129 424.828 159.796 423.699 160.192 423.761Z" fill="#69A1AC"/>
<path fill-rule="evenodd" clip-rule="evenodd" d="M162.615 405.111C164.929 408.348 166.83 411.904 168.057 415.505C168.801 417.687 169.321 419.927 169.838 422.15C170.638 425.592 171.394 429.033 171.61 432.537C171.826 436.06 172.255 440.124 170.825 443.518C171.539 440.072 170.859 436.405 170.739 432.938C170.681 431.283 170.514 429.644 170.296 427.999C170.083 426.403 169.737 424.814 169.414 423.23C169.256 422.459 169.091 421.689 168.923 420.92C168.873 420.69 168.852 420.009 168.671 419.852C168.489 419.694 167.562 419.629 167.271 419.514C166.685 419.28 166.134 418.949 165.646 418.599C164.711 417.927 163.897 417.05 163.255 416.185C161.769 414.184 161.175 411.742 161.205 409.425C161.211 408.975 162.108 404.13 161.748 404.064C161.769 404.043 161.79 404.022 161.809 404C162.082 404.368 162.349 404.739 162.615 405.111Z" fill="#89C5CC"/>
<path fill-rule="evenodd" clip-rule="evenodd" d="M187.583 416.785C187.619 416.744 187.851 416.455 187.734 416.474C187.972 416.436 187.407 416.792 188 416.574C187.718 416.788 187.881 417.067 187.885 417.356C187.891 417.825 187.793 418.291 187.684 418.75C187.511 419.476 187.253 420.181 186.879 420.856C186.063 422.328 184.678 423.744 183.034 424.664C182.222 425.118 181.427 425.272 180.501 425.481C179.916 425.613 179.87 425.857 179.56 426.315C178.914 427.269 178.279 428.219 177.709 429.205C177.029 430.382 176.368 431.56 175.745 432.758C173.646 436.793 171.937 440.973 171.04 445.299C171.018 442.75 171.749 440.124 172.671 437.694C173.342 435.924 174.217 434.217 175.149 432.528C175.375 432.119 175.717 431.592 175.813 431.14C175.881 430.824 175.675 430.519 175.581 430.186C175.214 428.887 175.241 427.432 175.563 426.127C175.918 424.687 176.944 424.019 178.681 423.815C179.316 423.74 180.124 423.768 180.706 423.549C181.341 423.311 181.602 422.529 181.963 422.027C182.932 420.678 184.084 419.384 185.406 418.248C185.772 417.933 186.166 417.643 186.584 417.374C186.847 417.204 187.404 416.995 187.583 416.785Z" fill="#89C5CC"/>
<path fill-rule="evenodd" clip-rule="evenodd" d="M167.742 443.724C167.63 443.111 168.101 442.546 168.724 442.546H173.656C174.279 442.546 174.75 443.111 174.638 443.724L174.551 444.197C174.255 445.82 172.84 447 171.19 447V447C169.54 447 168.125 445.82 167.829 444.197L167.742 443.724Z" fill="#C1DEE2"/>
</g>
<g opacity="0.5">
<path fill-rule="evenodd" clip-rule="evenodd" d="M222.692 376.235C223.039 375.738 223.682 374.477 224.169 374.3C224.483 374.185 224.392 375.368 224.395 375.593C224.411 376.465 224.326 377.331 224.222 378.196C224.034 379.756 223.419 381.145 222.577 382.472C222.143 383.155 221.634 383.846 220.93 384.272C220.606 384.468 220.215 384.501 219.895 384.67C219.522 384.867 219.725 384.708 219.557 385.099C219.324 385.641 219.249 386.341 219.141 386.92C218.645 389.576 217.445 403.621 217.653 406.323C217.671 406.563 217.339 406.62 217.322 406.328C217.234 404.777 217.997 394.04 218.382 390.529C218.767 387.017 219.157 383.915 219.547 382.7C220.021 381.227 220.877 379.454 221.589 378.08C221.92 377.441 222.281 376.825 222.692 376.235Z" fill="#69A1AC"/>
<path fill-rule="evenodd" clip-rule="evenodd" d="M225.264 393.456C226.165 392.791 227.141 394.047 226.325 394.712C225.874 395.08 225.403 394.949 225.137 394.642C224.965 394.853 224.804 395.074 224.649 395.261C224.177 395.829 223.73 396.41 223.304 397.006C222.418 398.242 221.659 399.549 220.865 400.831C220.082 402.097 219.305 403.369 218.595 404.667C217.993 405.767 217.192 407.06 216.986 408.266C217.298 405.709 218.484 403.252 219.896 400.998C221.296 398.763 222.903 396.321 225.071 394.557C224.851 394.231 224.844 393.765 225.264 393.456Z" fill="#C1DEE2"/>
<path fill-rule="evenodd" clip-rule="evenodd" d="M208.158 387.221C208.662 387.32 209.486 388.468 209.902 388.905C210.396 389.424 210.845 389.977 211.267 390.557C212.177 391.806 212.991 393.133 213.683 394.517C214.811 396.774 215.714 399.09 216.37 401.547C216.772 403.051 217.031 404.61 217.186 406.158C217.215 406.45 217.519 408.701 217.08 408.762C216.686 408.816 216.808 407.053 216.789 406.813C216.573 404.106 215.929 401.472 215.032 398.921C214.836 398.365 214.655 397.685 214.343 397.185C214.118 396.824 214.341 396.95 213.946 396.814C213.606 396.696 213.219 396.725 212.872 396.582C212.117 396.27 211.512 395.666 210.982 395.058C209.952 393.877 209.135 392.599 208.71 391.085C208.474 390.246 208.257 389.402 208.137 388.536C208.106 388.313 207.833 387.157 208.158 387.221Z" fill="#69A1AC"/>
<path fill-rule="evenodd" clip-rule="evenodd" d="M210.148 368.137C212.049 371.449 213.61 375.087 214.618 378.773C215.229 381.006 215.656 383.297 216.081 385.572C216.738 389.094 217.36 392.616 217.537 396.2C217.715 399.806 218.066 403.964 216.892 407.437C217.478 403.911 216.92 400.158 216.821 396.611C216.774 394.917 216.637 393.24 216.457 391.557C216.283 389.924 215.998 388.298 215.733 386.678C215.604 385.889 215.468 385.101 215.33 384.313C215.288 384.078 215.271 383.381 215.123 383.22C214.973 383.059 214.212 382.993 213.973 382.874C213.492 382.636 213.039 382.296 212.638 381.938C211.87 381.251 211.201 380.353 210.674 379.469C209.453 377.421 208.965 374.922 208.99 372.551C208.995 372.091 209.731 367.133 209.436 367.065C209.453 367.044 209.47 367.023 209.486 367C209.71 367.377 209.93 367.756 210.148 368.137Z" fill="#89C5CC"/>
<path fill-rule="evenodd" clip-rule="evenodd" d="M230.658 380.083C230.687 380.04 230.878 379.745 230.782 379.764C230.977 379.725 230.513 380.09 231 379.866C230.769 380.086 230.902 380.371 230.905 380.667C230.91 381.147 230.83 381.623 230.74 382.093C230.598 382.836 230.386 383.558 230.079 384.249C229.409 385.754 228.271 387.203 226.921 388.144C226.254 388.609 225.601 388.767 224.84 388.981C224.36 389.116 224.322 389.366 224.067 389.834C223.536 390.81 223.015 391.782 222.547 392.791C221.988 393.995 221.445 395.201 220.933 396.427C219.209 400.556 217.806 404.833 217.069 409.26C217.05 406.651 217.651 403.964 218.408 401.478C218.96 399.666 219.678 397.92 220.444 396.192C220.63 395.773 220.911 395.234 220.99 394.772C221.045 394.448 220.876 394.136 220.799 393.795C220.498 392.466 220.519 390.977 220.784 389.641C221.075 388.168 221.919 387.484 223.345 387.276C223.867 387.199 224.53 387.227 225.009 387.004C225.53 386.76 225.745 385.96 226.041 385.446C226.837 384.066 227.783 382.742 228.869 381.579C229.17 381.257 229.494 380.96 229.837 380.685C230.053 380.511 230.51 380.297 230.658 380.083Z" fill="#89C5CC"/>
<path fill-rule="evenodd" clip-rule="evenodd" d="M214.35 407.586C214.262 406.983 214.729 406.442 215.338 406.442H219.045C219.654 406.442 220.121 406.983 220.033 407.586L219.872 408.684C219.677 410.014 218.536 411 217.192 411V411C215.848 411 214.707 410.014 214.512 408.684L214.35 407.586Z" fill="#C1DEE2"/>
</g>
<g opacity="0.5">
<path fill-rule="evenodd" clip-rule="evenodd" d="M418.692 363.235C419.039 362.738 419.682 361.477 420.169 361.3C420.483 361.185 420.392 362.368 420.395 362.593C420.411 363.465 420.326 364.331 420.222 365.196C420.034 366.756 419.419 368.145 418.577 369.472C418.143 370.155 417.634 370.846 416.93 371.272C416.606 371.468 416.215 371.501 415.895 371.67C415.522 371.867 415.725 371.708 415.557 372.099C415.324 372.641 415.249 373.341 415.141 373.92C414.645 376.576 413.445 390.621 413.653 393.323C413.671 393.563 413.339 393.62 413.322 393.328C413.234 391.777 413.997 381.04 414.382 377.529C414.767 374.017 415.157 370.915 415.547 369.7C416.021 368.227 416.877 366.454 417.589 365.08C417.92 364.441 418.281 363.825 418.692 363.235Z" fill="#69A1AC"/>
<path fill-rule="evenodd" clip-rule="evenodd" d="M421.264 380.456C422.165 379.791 423.141 381.047 422.325 381.712C421.874 382.08 421.403 381.949 421.137 381.642C420.965 381.853 420.804 382.074 420.649 382.261C420.177 382.829 419.73 383.41 419.304 384.006C418.418 385.242 417.659 386.549 416.865 387.831C416.082 389.097 415.305 390.369 414.595 391.667C413.993 392.767 413.192 394.06 412.986 395.266C413.298 392.709 414.484 390.252 415.896 387.998C417.296 385.763 418.903 383.321 421.071 381.557C420.851 381.231 420.844 380.765 421.264 380.456Z" fill="#C1DEE2"/>
<path fill-rule="evenodd" clip-rule="evenodd" d="M404.158 374.221C404.662 374.32 405.486 375.468 405.902 375.905C406.396 376.424 406.845 376.977 407.267 377.557C408.177 378.806 408.991 380.133 409.683 381.517C410.811 383.774 411.714 386.09 412.37 388.547C412.772 390.051 413.031 391.61 413.186 393.158C413.215 393.45 413.519 395.701 413.08 395.762C412.686 395.816 412.808 394.053 412.789 393.813C412.573 391.106 411.929 388.472 411.032 385.921C410.836 385.365 410.655 384.685 410.343 384.185C410.118 383.824 410.341 383.95 409.946 383.814C409.606 383.696 409.219 383.725 408.872 383.582C408.117 383.27 407.512 382.666 406.982 382.058C405.952 380.877 405.135 379.599 404.71 378.085C404.474 377.246 404.257 376.402 404.137 375.536C404.106 375.313 403.833 374.157 404.158 374.221Z" fill="#69A1AC"/>
<path fill-rule="evenodd" clip-rule="evenodd" d="M406.148 355.137C408.049 358.449 409.61 362.087 410.618 365.773C411.229 368.006 411.656 370.297 412.081 372.572C412.738 376.094 413.36 379.616 413.537 383.2C413.715 386.806 414.066 390.964 412.892 394.437C413.478 390.911 412.92 387.158 412.821 383.611C412.774 381.917 412.637 380.24 412.457 378.557C412.283 376.924 411.998 375.298 411.733 373.678C411.604 372.889 411.468 372.101 411.33 371.313C411.288 371.078 411.271 370.381 411.123 370.22C410.973 370.059 410.212 369.993 409.973 369.874C409.492 369.636 409.039 369.296 408.638 368.938C407.87 368.251 407.201 367.353 406.674 366.469C405.453 364.421 404.965 361.922 404.99 359.551C404.995 359.091 405.731 354.133 405.436 354.065C405.453 354.044 405.47 354.023 405.486 354C405.71 354.377 405.93 354.756 406.148 355.137Z" fill="#89C5CC"/>
<path fill-rule="evenodd" clip-rule="evenodd" d="M426.658 367.083C426.687 367.04 426.878 366.745 426.782 366.764C426.977 366.725 426.513 367.09 427 366.866C426.769 367.086 426.902 367.371 426.905 367.667C426.91 368.147 426.83 368.623 426.74 369.093C426.598 369.836 426.386 370.558 426.079 371.249C425.409 372.754 424.271 374.203 422.921 375.144C422.254 375.609 421.601 375.767 420.84 375.981C420.36 376.116 420.322 376.366 420.067 376.834C419.536 377.81 419.015 378.782 418.547 379.791C417.988 380.995 417.445 382.201 416.933 383.427C415.209 387.556 413.806 391.833 413.069 396.26C413.05 393.651 413.651 390.964 414.408 388.478C414.96 386.666 415.678 384.92 416.444 383.192C416.63 382.773 416.911 382.234 416.99 381.772C417.045 381.448 416.876 381.136 416.799 380.795C416.498 379.466 416.519 377.977 416.784 376.641C417.075 375.168 417.919 374.484 419.345 374.276C419.867 374.199 420.53 374.227 421.009 374.004C421.53 373.76 421.745 372.96 422.041 372.446C422.837 371.066 423.783 369.742 424.869 368.579C425.17 368.257 425.494 367.96 425.837 367.685C426.053 367.511 426.51 367.297 426.658 367.083Z" fill="#89C5CC"/>
<path fill-rule="evenodd" clip-rule="evenodd" d="M410.35 394.586C410.262 393.983 410.729 393.442 411.338 393.442H415.045C415.654 393.442 416.121 393.983 416.033 394.586L415.872 395.684C415.677 397.014 414.536 398 413.192 398V398C411.848 398 410.707 397.014 410.512 395.684L410.35 394.586Z" fill="#C1DEE2"/>
</g>
</g>
<defs>
<linearGradient id="paint0_linear_777_513" x1="250" y1="0" x2="250" y2="378.104" gradientUnits="userSpaceOnUse">
<stop stop-color="#00C9E4"/>
<stop offset="1" stop-color="#9AEFFB"/>
</linearGradient>
<clipPath id="clip0_777_513">
<rect width="500" height="500" fill="white"/>
</clipPath>
</defs>
</svg>
