<svg width="1000" height="1000" viewBox="0 0 1000 1000" fill="none" xmlns="http://www.w3.org/2000/svg">
<circle r="5" cx="91" cy="854" fill="white"/>
<circle r="5" cx="182" cy="854" fill="white"/>
<circle r="5" cx="273" cy="854" fill="white"/>
<circle r="5" cx="364" cy="854" fill="white"/>
<circle r="5" cx="455" cy="854" fill="white"/>
<circle r="5" cx="546" cy="854" fill="white"/>
<circle r="5" cx="637" cy="854" fill="white"/>
<circle r="5" cx="728" cy="854" fill="white"/>
<circle r="5" cx="819" cy="854" fill="white"/>
<circle r="5" cx="910" cy="854" fill="white"/>
<circle r="5" cx="136.5" cy="854" fill="white"/>
<circle r="5" cx="227.5" cy="854" fill="white"/>
<circle r="5" cx="318.5" cy="854" fill="white"/>
<circle r="5" cx="409.5" cy="854" fill="white"/>
<circle r="5" cx="500.5" cy="854" fill="white"/>
<circle r="5" cx="591.5" cy="854" fill="white"/>
<circle r="5" cx="682.5" cy="854" fill="white"/>
<circle r="5" cx="773.5" cy="854" fill="white"/>
<circle r="5" cx="864.5" cy="854" fill="white"/>
<circle r="5" cx="112" cy="790" fill="white"/>
<circle r="5" cx="67" cy="790" fill="white"/>
<circle r="5" cx="203" cy="790" fill="white"/>
<circle r="5" cx="294" cy="790" fill="white"/>
<circle r="5" cx="385" cy="790" fill="white"/>
<circle r="5" cx="476" cy="790" fill="white"/>
<circle r="5" cx="567" cy="790" fill="white"/>
<circle r="5" cx="658" cy="790" fill="white"/>
<circle r="5" cx="749" cy="790" fill="white"/>
<circle r="5" cx="840" cy="790" fill="white"/>
<circle r="5" cx="931" cy="790" fill="white"/>
<circle r="5" cx="157.5" cy="790" fill="white"/>
<circle r="5" cx="248.5" cy="790" fill="white"/>
<circle r="5" cx="339.5" cy="790" fill="white"/>
<circle r="5" cx="430.5" cy="790" fill="white"/>
<circle r="5" cx="521.5" cy="790" fill="white"/>
<circle r="5" cx="612.5" cy="790" fill="white"/>
<circle r="5" cx="703.5" cy="790" fill="white"/>
<circle r="5" cx="794.5" cy="790" fill="white"/>
<circle r="5" cx="885.5" cy="790" fill="white"/>
<circle r="5" cx="91" cy="725" fill="white"/>
<circle r="5" cx="182" cy="725" fill="white"/>
<circle r="5" cx="273" cy="725" fill="white"/>
<circle r="5" cx="364" cy="725" fill="white"/>
<circle r="5" cx="455" cy="725" fill="white"/>
<circle r="5" cx="546" cy="725" fill="white"/>
<circle r="5" cx="637" cy="725" fill="white"/>
<circle r="5" cx="728" cy="725" fill="white"/>
<circle r="5" cx="819" cy="725" fill="white"/>
<circle r="5" cx="910" cy="725" fill="white"/>
<circle r="5" cx="136.5" cy="725" fill="white"/>
<circle r="5" cx="227.5" cy="725" fill="white"/>
<circle r="5" cx="318.5" cy="725" fill="white"/>
<circle r="5" cx="409.5" cy="725" fill="white"/>
<circle r="5" cx="500.5" cy="725" fill="white"/>
<circle r="5" cx="591.5" cy="725" fill="white"/>
<circle r="5" cx="682.5" cy="725" fill="white"/>
<circle r="5" cx="773.5" cy="725" fill="white"/>
<circle r="5" cx="864.5" cy="725" fill="white"/>
<circle r="5" cx="86" cy="598" fill="white"/>
<circle r="5" cx="177" cy="598" fill="white"/>
<circle r="5" cx="268" cy="598" fill="white"/>
<circle r="5" cx="359" cy="598" fill="white"/>
<circle r="5" cx="450" cy="598" fill="white"/>
<circle r="5" cx="541" cy="598" fill="white"/>
<circle r="5" cx="632" cy="598" fill="white"/>
<circle r="5" cx="723" cy="598" fill="white"/>
<circle r="5" cx="814" cy="598" fill="white"/>
<circle r="5" cx="905" cy="598" fill="white"/>
<circle r="5" cx="131.5" cy="598" fill="white"/>
<circle r="5" cx="222.5" cy="598" fill="white"/>
<circle r="5" cx="313.5" cy="598" fill="white"/>
<circle r="5" cx="404.5" cy="598" fill="white"/>
<circle r="5" cx="495.5" cy="598" fill="white"/>
<circle r="5" cx="586.5" cy="598" fill="white"/>
<circle r="5" cx="677.5" cy="598" fill="white"/>
<circle r="5" cx="768.5" cy="598" fill="white"/>
<circle r="5" cx="859.5" cy="598" fill="white"/>
<circle r="5" cx="86" cy="470" fill="white"/>
<circle r="5" cx="177" cy="470" fill="white"/>
<circle r="5" cx="268" cy="470" fill="white"/>
<circle r="5" cx="359" cy="470" fill="white"/>
<circle r="5" cx="450" cy="470" fill="white"/>
<circle r="5" cx="541" cy="470" fill="white"/>
<circle r="5" cx="632" cy="470" fill="white"/>
<circle r="5" cx="723" cy="470" fill="white"/>
<circle r="5" cx="814" cy="470" fill="white"/>
<circle r="5" cx="905" cy="470" fill="white"/>
<circle r="5" cx="131.5" cy="470" fill="white"/>
<circle r="5" cx="222.5" cy="470" fill="white"/>
<circle r="5" cx="313.5" cy="470" fill="white"/>
<circle r="5" cx="404.5" cy="470" fill="white"/>
<circle r="5" cx="495.5" cy="470" fill="white"/>
<circle r="5" cx="586.5" cy="470" fill="white"/>
<circle r="5" cx="677.5" cy="470" fill="white"/>
<circle r="5" cx="768.5" cy="470" fill="white"/>
<circle r="5" cx="859.5" cy="470" fill="white"/>
<circle r="5" cx="91" cy="342" fill="white"/>
<circle r="5" cx="182" cy="342" fill="white"/>
<circle r="5" cx="273" cy="342" fill="white"/>
<circle r="5" cx="364" cy="342" fill="white"/>
<circle r="5" cx="455" cy="342" fill="white"/>
<circle r="5" cx="546" cy="342" fill="white"/>
<circle r="5" cx="637" cy="342" fill="white"/>
<circle r="5" cx="728" cy="342" fill="white"/>
<circle r="5" cx="819" cy="342" fill="white"/>
<circle r="5" cx="910" cy="342" fill="white"/>
<circle r="5" cx="136.5" cy="342" fill="white"/>
<circle r="5" cx="227.5" cy="342" fill="white"/>
<circle r="5" cx="318.5" cy="342" fill="white"/>
<circle r="5" cx="409.5" cy="342" fill="white"/>
<circle r="5" cx="500.5" cy="342" fill="white"/>
<circle r="5" cx="591.5" cy="342" fill="white"/>
<circle r="5" cx="682.5" cy="342" fill="white"/>
<circle r="5" cx="773.5" cy="342" fill="white"/>
<circle r="5" cx="864.5" cy="342" fill="white"/>
<circle r="5" cx="91" cy="214" fill="white"/>
<circle r="5" cx="182" cy="214" fill="white"/>
<circle r="5" cx="273" cy="214" fill="white"/>
<circle r="5" cx="364" cy="214" fill="white"/>
<circle r="5" cx="455" cy="214" fill="white"/>
<circle r="5" cx="546" cy="214" fill="white"/>
<circle r="5" cx="637" cy="214" fill="white"/>
<circle r="5" cx="728" cy="214" fill="white"/>
<circle r="5" cx="819" cy="214" fill="white"/>
<circle r="5" cx="910" cy="214" fill="white"/>
<circle r="5" cx="136.5" cy="214" fill="white"/>
<circle r="5" cx="227.5" cy="214" fill="white"/>
<circle r="5" cx="318.5" cy="214" fill="white"/>
<circle r="5" cx="409.5" cy="214" fill="white"/>
<circle r="5" cx="500.5" cy="214" fill="white"/>
<circle r="5" cx="591.5" cy="214" fill="white"/>
<circle r="5" cx="682.5" cy="214" fill="white"/>
<circle r="5" cx="773.5" cy="214" fill="white"/>
<circle r="5" cx="864.5" cy="214" fill="white"/>
<circle r="5" cx="112" cy="662" fill="white"/>
<circle r="5" cx="67" cy="662" fill="white"/>
<circle r="5" cx="203" cy="662" fill="white"/>
<circle r="5" cx="294" cy="662" fill="white"/>
<circle r="5" cx="385" cy="662" fill="white"/>
<circle r="5" cx="476" cy="662" fill="white"/>
<circle r="5" cx="567" cy="662" fill="white"/>
<circle r="5" cx="658" cy="662" fill="white"/>
<circle r="5" cx="749" cy="662" fill="white"/>
<circle r="5" cx="840" cy="662" fill="white"/>
<circle r="5" cx="931" cy="662" fill="white"/>
<circle r="5" cx="157.5" cy="662" fill="white"/>
<circle r="5" cx="248.5" cy="662" fill="white"/>
<circle r="5" cx="339.5" cy="662" fill="white"/>
<circle r="5" cx="430.5" cy="662" fill="white"/>
<circle r="5" cx="521.5" cy="662" fill="white"/>
<circle r="5" cx="612.5" cy="662" fill="white"/>
<circle r="5" cx="703.5" cy="662" fill="white"/>
<circle r="5" cx="794.5" cy="662" fill="white"/>
<circle r="5" cx="885.5" cy="662" fill="white"/>
<circle r="5" cx="107" cy="534" fill="white"/>
<circle r="5" cx="62" cy="534" fill="white"/>
<circle r="5" cx="198" cy="534" fill="white"/>
<circle r="5" cx="289" cy="534" fill="white"/>
<circle r="5" cx="380" cy="534" fill="white"/>
<circle r="5" cx="471" cy="534" fill="white"/>
<circle r="5" cx="562" cy="534" fill="white"/>
<circle r="5" cx="653" cy="534" fill="white"/>
<circle r="5" cx="744" cy="534" fill="white"/>
<circle r="5" cx="835" cy="534" fill="white"/>
<circle r="5" cx="926" cy="534" fill="white"/>
<circle r="5" cx="152.5" cy="534" fill="white"/>
<circle r="5" cx="243.5" cy="534" fill="white"/>
<circle r="5" cx="334.5" cy="534" fill="white"/>
<circle r="5" cx="425.5" cy="534" fill="white"/>
<circle r="5" cx="516.5" cy="534" fill="white"/>
<circle r="5" cx="607.5" cy="534" fill="white"/>
<circle r="5" cx="698.5" cy="534" fill="white"/>
<circle r="5" cx="789.5" cy="534" fill="white"/>
<circle r="5" cx="880.5" cy="534" fill="white"/>
<circle r="5" cx="107" cy="406" fill="white"/>
<circle r="5" cx="62" cy="406" fill="white"/>
<circle r="5" cx="198" cy="406" fill="white"/>
<circle r="5" cx="289" cy="406" fill="white"/>
<circle r="5" cx="380" cy="406" fill="white"/>
<circle r="5" cx="471" cy="406" fill="white"/>
<circle r="5" cx="562" cy="406" fill="white"/>
<circle r="5" cx="653" cy="406" fill="white"/>
<circle r="5" cx="744" cy="406" fill="white"/>
<circle r="5" cx="835" cy="406" fill="white"/>
<circle r="5" cx="926" cy="406" fill="white"/>
<circle r="5" cx="152.5" cy="406" fill="white"/>
<circle r="5" cx="243.5" cy="406" fill="white"/>
<circle r="5" cx="334.5" cy="406" fill="white"/>
<circle r="5" cx="425.5" cy="406" fill="white"/>
<circle r="5" cx="516.5" cy="406" fill="white"/>
<circle r="5" cx="607.5" cy="406" fill="white"/>
<circle r="5" cx="698.5" cy="406" fill="white"/>
<circle r="5" cx="789.5" cy="406" fill="white"/>
<circle r="5" cx="880.5" cy="406" fill="white"/>
<circle r="5" cx="112" cy="278" fill="white"/>
<circle r="5" cx="67" cy="278" fill="white"/>
<circle r="5" cx="203" cy="278" fill="white"/>
<circle r="5" cx="294" cy="278" fill="white"/>
<circle r="5" cx="385" cy="278" fill="white"/>
<circle r="5" cx="476" cy="278" fill="white"/>
<circle r="5" cx="567" cy="278" fill="white"/>
<circle r="5" cx="658" cy="278" fill="white"/>
<circle r="5" cx="749" cy="278" fill="white"/>
<circle r="5" cx="840" cy="278" fill="white"/>
<circle r="5" cx="931" cy="278" fill="white"/>
<circle r="5" cx="157.5" cy="278" fill="white"/>
<circle r="5" cx="248.5" cy="278" fill="white"/>
<circle r="5" cx="339.5" cy="278" fill="white"/>
<circle r="5" cx="430.5" cy="278" fill="white"/>
<circle r="5" cx="521.5" cy="278" fill="white"/>
<circle r="5" cx="612.5" cy="278" fill="white"/>
<circle r="5" cx="703.5" cy="278" fill="white"/>
<circle r="5" cx="794.5" cy="278" fill="white"/>
<circle r="5" cx="885.5" cy="278" fill="white"/>
<circle r="5" cx="112" cy="150" fill="white"/>
<circle r="5" cx="67" cy="150" fill="white"/>
<circle r="5" cx="203" cy="150" fill="white"/>
<circle r="5" cx="294" cy="150" fill="white"/>
<circle r="5" cx="385" cy="150" fill="white"/>
<circle r="5" cx="476" cy="150" fill="white"/>
<circle r="5" cx="567" cy="150" fill="white"/>
<circle r="5" cx="658" cy="150" fill="white"/>
<circle r="5" cx="749" cy="150" fill="white"/>
<circle r="5" cx="840" cy="150" fill="white"/>
<circle r="5" cx="931" cy="150" fill="white"/>
<circle r="5" cx="157.5" cy="150" fill="white"/>
<circle r="5" cx="248.5" cy="150" fill="white"/>
<circle r="5" cx="339.5" cy="150" fill="white"/>
<circle r="5" cx="430.5" cy="150" fill="white"/>
<circle r="5" cx="521.5" cy="150" fill="white"/>
<circle r="5" cx="612.5" cy="150" fill="white"/>
<circle r="5" cx="703.5" cy="150" fill="white"/>
<circle r="5" cx="794.5" cy="150" fill="white"/>
<circle r="5" cx="885.5" cy="150" fill="white"/>
</svg>
