<svg width="1000" height="1000" viewBox="0 0 1000 1000" fill="none" xmlns="http://www.w3.org/2000/svg">
<circle className={"largePeg"} r="5" cx="91" cy="290" fill="white"/>
<circle className={"largePeg"} r="5" cx="182" cy="290" fill="white"/>
<circle className={"largePeg"} r="5" cx="273" cy="290" fill="white"/>
<circle className={"largePeg"} r="5" cx="364" cy="290" fill="white"/>
<circle className={"largePeg"} r="5" cx="455" cy="290" fill="white"/>
<circle className={"largePeg"} r="5" cx="546" cy="290" fill="white"/>
<circle className={"largePeg"} r="5" cx="637" cy="290" fill="white"/>
<circle className={"largePeg"} r="5" cx="728" cy="290" fill="white"/>
<circle className={"largePeg"} r="5" cx="819" cy="290" fill="white"/>
<circle className={"largePeg"} r="5" cx="910" cy="290" fill="white"/>
<circle className={"largePeg"} r="5" cx="136" cy="150" fill="white"/>
<circle className={"largePeg"} r="5" cx="227" cy="150" fill="white"/>
<circle className={"largePeg"} r="5" cx="318" cy="150" fill="white"/>
<circle className={"largePeg"} r="5" cx="409" cy="150" fill="white"/>
<circle className={"largePeg"} r="5" cx="500" cy="150" fill="white"/>
<circle className={"largePeg"} r="5" cx="591" cy="150" fill="white"/>
<circle className={"largePeg"} r="5" cx="682" cy="150" fill="white"/>
<circle className={"largePeg"} r="5" cx="773" cy="150" fill="white"/>
<circle className={"largePeg"} r="5" cx="864" cy="150" fill="white"/>
<circle className={"largePeg"} r="5" cx="136" cy="710" fill="white"/>
<circle className={"largePeg"} r="5" cx="227" cy="710" fill="white"/>
<circle className={"largePeg"} r="5" cx="318" cy="710" fill="white"/>
<circle className={"largePeg"} r="5" cx="409" cy="710" fill="white"/>
<circle className={"largePeg"} r="5" cx="500" cy="710" fill="white"/>
<circle className={"largePeg"} r="5" cx="591" cy="710" fill="white"/>
<circle className={"largePeg"} r="5" cx="682" cy="710" fill="white"/>
<circle className={"largePeg"} r="5" cx="773" cy="710" fill="white"/>
<circle className={"largePeg"} r="5" cx="864" cy="710" fill="white"/>
<circle className={"largePeg"} r="5" cx="91" cy="850" fill="white"/>
<circle className={"largePeg"} r="5" cx="182" cy="850" fill="white"/>
<circle className={"largePeg"} r="5" cx="273" cy="850" fill="white"/>
<circle className={"largePeg"} r="5" cx="364" cy="850" fill="white"/>
<circle className={"largePeg"} r="5" cx="455" cy="850" fill="white"/>
<circle className={"largePeg"} r="5" cx="546" cy="850" fill="white"/>
<circle className={"largePeg"} r="5" cx="637" cy="850" fill="white"/>
<circle className={"largePeg"} r="5" cx="728" cy="850" fill="white"/>
<circle className={"largePeg"} r="5" cx="819" cy="850" fill="white"/>
<circle className={"largePeg"} r="5" cx="910" cy="850" fill="white"/>
<circle className={"largePeg"} r="5" cx="91" cy="570" fill="white"/>
<circle className={"largePeg"} r="5" cx="182" cy="570" fill="white"/>
<circle className={"largePeg"} r="5" cx="273" cy="570" fill="white"/>
<circle className={"largePeg"} r="5" cx="364" cy="570" fill="white"/>
<circle className={"largePeg"} r="5" cx="455" cy="570" fill="white"/>
<circle className={"largePeg"} r="5" cx="546" cy="570" fill="white"/>
<circle className={"largePeg"} r="5" cx="637" cy="570" fill="white"/>
<circle className={"largePeg"} r="5" cx="728" cy="570" fill="white"/>
<circle className={"largePeg"} r="5" cx="819" cy="570" fill="white"/>
<circle className={"largePeg"} r="5" cx="910" cy="570" fill="white"/>
<circle className={"largePeg"} r="5" cx="136" cy="430" fill="white"/>
<circle className={"largePeg"} r="5" cx="227" cy="430" fill="white"/>
<circle className={"largePeg"} r="5" cx="318" cy="430" fill="white"/>
<circle className={"largePeg"} r="5" cx="409" cy="430" fill="white"/>
<circle className={"largePeg"} r="5" cx="500" cy="430" fill="white"/>
<circle className={"largePeg"} r="5" cx="591" cy="430" fill="white"/>
<circle className={"largePeg"} r="5" cx="682" cy="430" fill="white"/>
<circle className={"largePeg"} r="5" cx="773" cy="430" fill="white"/>
<circle className={"largePeg"} r="5" cx="864" cy="430" fill="white"/>
</svg>
